<?xml version="1.0" encoding="utf-8"?>
<!-- Generator: Adobe Illustrator 21.0.0, SVG Export Plug-In . SVG Version: 6.00 Build 0)  -->
<svg version="1.1" id="Layer_1" xmlns="http://www.w3.org/2000/svg" xmlns:xlink="http://www.w3.org/1999/xlink" x="0px" y="0px"
	 width="2000px" height="2000px" viewBox="0 0 2000 2000" style="enable-background:new 0 0 2000 2000;" xml:space="preserve">
<style type="text/css">
	.st0{fill:#FFFFFF;}
	.st1{fill:url(#SVGID_1_);}
	.st2{fill:#FFAFAC;}
	.st3{fill:#31385E;}
	.st4{font-family:'ArialMT';}
	.st5{font-size:35.5755px;}
	.st6{letter-spacing:7;}
	.st7{fill:#6687D1;}
	.st8{fill:#F1F2F2;}
	.st9{fill:#373F7C;}
	.st10{fill:url(#SVGID_2_);}
	.st11{fill:url(#SVGID_3_);}
	.st12{fill:#383F9B;}
	.st13{fill:url(#SVGID_4_);}
	.st14{fill:url(#SVGID_5_);}
	.st15{fill:url(#SVGID_6_);}
	.st16{fill:url(#SVGID_7_);}
	.st17{fill:url(#SVGID_8_);}
	.st18{fill:url(#SVGID_9_);}
	.st19{fill:url(#SVGID_10_);}
	.st20{fill:url(#SVGID_11_);}
	.st21{fill:url(#SVGID_12_);}
	.st22{fill:url(#SVGID_13_);}
	.st23{fill:url(#SVGID_14_);}
	.st24{fill:url(#SVGID_15_);}
	.st25{fill:url(#SVGID_16_);}
	.st26{fill:url(#SVGID_17_);}
	.st27{fill:url(#SVGID_18_);}
	.st28{fill:url(#SVGID_19_);}
	.st29{fill:url(#SVGID_20_);}
	.st30{fill:url(#SVGID_21_);}
	.st31{fill:url(#SVGID_22_);}
	.st32{fill:url(#SVGID_23_);}
	.st33{fill:url(#SVGID_24_);}
	.st34{fill:url(#SVGID_25_);}
	.st35{fill:url(#SVGID_26_);}
	.st36{fill:url(#SVGID_27_);}
	.st37{fill:url(#SVGID_28_);}
	.st38{fill:url(#SVGID_29_);}
	.st39{fill:url(#SVGID_30_);}
	.st40{fill:#8EA4DD;}
	.st41{fill:url(#SVGID_31_);}
	.st42{fill:url(#SVGID_32_);}
	.st43{fill:url(#SVGID_33_);}
	.st44{fill:url(#SVGID_34_);}
	.st45{fill:#F9D45F;}
	.st46{fill:#FDEE99;}
	.st47{fill:#FEF8D7;}
</style>
<g>
	<rect class="st0" width="2000" height="2000"/>
	<g>
		<linearGradient id="SVGID_1_" gradientUnits="userSpaceOnUse" x1="1007.0518" y1="401.6394" x2="1007.0518" y2="1191.2026">
			<stop  offset="0" style="stop-color:#EA6A8B"/>
			<stop  offset="1" style="stop-color:#D84867"/>
		</linearGradient>
		<path class="st1" d="M1919.9,563.7c-4.2-89.3-29.5-180.8-87.8-249c-27.3-31.9-62.3-57.9-102.2-69.8c-48.1-14.4-99-6.1-146.5,6.4
			c-91.1,24-177.5,62.8-265.3,96.6c-84.4,32.4-172.1,61.8-262.9,64.4c-96.7,2.8-186.1-31-271.3-75.1
			c-88.1-45.6-173.1-99.9-268.2-129.1c-83.5-25.7-176.6-29.6-257.2,8.6C179.7,253.9,130,331.9,108.3,416.1
			c-26.1,101.2-12.2,207,1.1,309c14.2,109.2,28.4,218.4,42.6,327.6c7.2,55.2,14.4,110.4,21.6,165.6c3.6,27.6,7.2,55.2,10.8,82.8
			c3.2,24.4,5.8,49.1,11.7,73c10.8,43.2,35,78.8,73.4,100.2c38.3,21.4,82.7,28.3,125.8,28.6c175.7,1.1,350-118.8,525.3-51.4
			c24.4,9.4,46.7,23.1,65.9,40.8c1.2,3.6,3.8,6.7,8.1,8.3c0.2,0.1,0.5,0.2,0.7,0.3c3.9,4,7.7,8.3,11.2,12.7c6.1,7.5,14.7,4.6,19-1.8
			c176.2,60.5,367.3,73.4,549.7,36.9c75.4-15.1,162.7-41.3,203.5-114.8c23.1-41.6,25-90.3,24-137c-1-50.8-0.9-100.7,6.3-151.1
			C1837.3,949.9,1929.3,765.4,1919.9,563.7z"/>
		<g>
			<path class="st2" d="M1790.5,772c8.2,0,14.8-6.6,14.8-14.8V430.8c0-8.2-6.6-14.8-14.8-14.8h-270.4c-8.2,0-14.8,6.6-14.8,14.8
				v326.4c0,8.2,6.6,14.8,14.8,14.8H1790.5z"/>
			<path class="st3" d="M1778.3,751.4c5.9,0,10.6-4.8,10.6-10.6V447.2c0-5.9-4.8-10.6-10.6-10.6h-246c-5.9,0-10.6,4.8-10.6,10.6
				v293.6c0,5.9,4.8,10.6,10.6,10.6H1778.3z"/>
			<text transform="matrix(1 0 0 1 1587.2013 510.7304)" class="st0 st4 st5 st6">MENU</text>
			<g>
				<g>
					<path class="st0" d="M1641,551.1c1.4,0,2.5-1.1,2.5-2.5c0-1.4-1.1-2.5-2.5-2.5h-84.2c-1.4,0-2.5,1.1-2.5,2.5
						c0,1.4,1.1,2.5,2.5,2.5H1641z"/>
					<path class="st0" d="M1753.9,551.1c1.4,0,2.5-1.1,2.5-2.5c0-1.4-1.1-2.5-2.5-2.5h-84.2c-1.4,0-2.5,1.1-2.5,2.5
						c0,1.4,1.1,2.5,2.5,2.5H1753.9z"/>
				</g>
				<g>
					<path class="st0" d="M1641,581.8c1.4,0,2.5-1.1,2.5-2.5s-1.1-2.5-2.5-2.5h-84.2c-1.4,0-2.5,1.1-2.5,2.5s1.1,2.5,2.5,2.5H1641z"
						/>
					<path class="st0" d="M1753.9,581.8c1.4,0,2.5-1.1,2.5-2.5s-1.1-2.5-2.5-2.5h-84.2c-1.4,0-2.5,1.1-2.5,2.5s1.1,2.5,2.5,2.5
						H1753.9z"/>
				</g>
				<g>
					<path class="st0" d="M1641,612.4c1.4,0,2.5-1.1,2.5-2.5c0-1.4-1.1-2.5-2.5-2.5h-84.2c-1.4,0-2.5,1.1-2.5,2.5
						c0,1.4,1.1,2.5,2.5,2.5H1641z"/>
					<path class="st0" d="M1753.9,612.4c1.4,0,2.5-1.1,2.5-2.5c0-1.4-1.1-2.5-2.5-2.5h-84.2c-1.4,0-2.5,1.1-2.5,2.5
						c0,1.4,1.1,2.5,2.5,2.5H1753.9z"/>
				</g>
				<g>
					<path class="st0" d="M1641,643.1c1.4,0,2.5-1.1,2.5-2.5c0-1.4-1.1-2.5-2.5-2.5h-84.2c-1.4,0-2.5,1.1-2.5,2.5
						c0,1.4,1.1,2.5,2.5,2.5H1641z"/>
					<path class="st0" d="M1753.9,643.1c1.4,0,2.5-1.1,2.5-2.5c0-1.4-1.1-2.5-2.5-2.5h-84.2c-1.4,0-2.5,1.1-2.5,2.5
						c0,1.4,1.1,2.5,2.5,2.5H1753.9z"/>
				</g>
				<g>
					<path class="st0" d="M1641,673.7c1.4,0,2.5-1.1,2.5-2.5c0-1.4-1.1-2.5-2.5-2.5h-84.2c-1.4,0-2.5,1.1-2.5,2.5
						c0,1.4,1.1,2.5,2.5,2.5H1641z"/>
					<path class="st0" d="M1753.9,673.7c1.4,0,2.5-1.1,2.5-2.5c0-1.4-1.1-2.5-2.5-2.5h-84.2c-1.4,0-2.5,1.1-2.5,2.5
						c0,1.4,1.1,2.5,2.5,2.5H1753.9z"/>
				</g>
			</g>
		</g>
		<path class="st7" d="M1408.3,312.1c-30.1,12-60.1,24.2-90.3,35.8c-84.4,32.4-172.1,61.8-262.9,64.4c-96.7,2.8-186.1-31-271.3-75.1
			c-38.7-20-76.8-41.7-115.4-62.2v764.6h739.9V312.1z"/>
		<path class="st8" d="M1370.7,327.1c-17.5,7-35.1,14-52.7,20.7c-84.4,32.4-172.1,61.8-262.9,64.4c-96.7,2.8-186.1-31-271.3-75.1
			c-26.1-13.5-51.9-27.8-77.8-41.9v714.3h664.7V327.1z"/>
		<g>
			<path class="st7" d="M1096,409.4h301.3v-34h-155.4C1194.2,391.1,1145.6,403.8,1096,409.4z"/>
			<path class="st7" d="M866.8,375.4H678.2v34h316.5C950.7,404,908.2,391.7,866.8,375.4z"/>
		</g>
		<rect x="678.9" y="463.4" class="st7" width="719" height="34"/>
		<rect x="679.5" y="551.4" class="st7" width="719" height="34"/>
		<rect x="680.1" y="639.4" class="st7" width="719" height="34"/>
		<rect x="679.5" y="737.6" class="st7" width="719" height="34"/>
		<rect x="681.3" y="826.3" class="st7" width="719" height="34"/>
		<rect x="681.9" y="916.3" class="st7" width="719" height="34"/>
		<path class="st9" d="M1793.4,1689c-15.2-17.3-37.7-24.5-60-27.1c-28.8-3.4-58.3-2.4-87.2-3c-30.3-0.7-60.5-1.3-90.8-2
			c-60.5-1.3-121.1-2.7-181.6-4.1c-120.9-2.7-241.7-5.6-362.6-8c-119.9-2.4-239.8-4-359.8-2.3c-120.3,1.7-240.6,6.6-360.4,17.3
			c-29.4,2.6-47.4,3.7-76.7,7c-0.8-0.1-13.5,1.5-14.8,8c-5.1,26.4-4.9,32.5,2,49.3c7.9,19.3,23.9,31.5,42.7,39.5
			c24.7,10.6,52.1,15.3,78.6,19.1c27.5,4,55.3,6,83.1,6.9c57.5,1.9,115.1-0.6,172.6,1.3c57.7,1.8,113.6,10,169.3,25.7
			c52.9,14.9,105.1,33.2,159.7,40.8c53.2,7.4,105.4,0.7,157.2-12.2c53.1-13.3,105-31.6,159-40.9c52.9-9.1,106.7-7.6,159.9-2.8
			c103.3,9.3,209.7,32.1,312.7,8.5c39.4-9,91.5-25.9,107.5-67.6C1810.9,1723.8,1806.4,1703.8,1793.4,1689z"/>
		<g>
			<linearGradient id="SVGID_2_" gradientUnits="userSpaceOnUse" x1="1014.1037" y1="1424.3811" x2="1084.1212" y2="1424.3811">
				<stop  offset="0" style="stop-color:#FC7D77"/>
				<stop  offset="1" style="stop-color:#E06161"/>
			</linearGradient>
			<rect x="1014.1" y="1164.8" class="st10" width="70" height="519.2"/>
			<g>
				
					<linearGradient id="SVGID_3_" gradientUnits="userSpaceOnUse" x1="-2477.9253" y1="900.3682" x2="-2477.9253" y2="945.299" gradientTransform="matrix(-1 0 0 1 -1647.6367 0)">
					<stop  offset="0" style="stop-color:#F9D45F"/>
					<stop  offset="1" style="stop-color:#E5BC48"/>
				</linearGradient>
				<path class="st11" d="M830.3,881.3h26.6c2.7,0,4.8,2.8,4.5,5.9l-5.5,64.4c-0.6,6.6-5.3,11.7-10.9,11.7h-14.7h-14.7
					c-5.6,0-10.4-5.1-10.9-11.7l-5.5-64.4c-0.3-3.2,1.8-5.9,4.5-5.9H830.3z"/>
				<path class="st0" d="M818.3,855.7c2.8,6.2,9.1,9,15.6,9.2c0.9,0,1.5-0.4,1.9-1c0.6-0.5,0.9-1.3,0.5-2.3
					c-3.6-8.7,3.9-15.4,8.9-21.5c3.6-4.4,6.8-9.4,6.7-15.2c-0.1-10.3-8.6-24-18.9-26.6c-2.7-0.7-3.8,2.7-1.8,4.3
					c7.4,5.6,10,15.6,5.7,24c-3.4,6.7-10.4,8.8-15.5,13.7C817.3,844.4,815.9,850.2,818.3,855.7z"/>
			</g>
			<path class="st12" d="M1498.7,759.6c-4.9-14.9-27.8-38.9-33.7-25.8c-1.4,3.1-1.9,3.6-5.7,7.4c-7.9,9.2-14.7,22.8-10,34.2
				c4.9,11.9,21.2,15.4,32.6,13.1C1495.4,785.9,1503,772.6,1498.7,759.6z"/>
			
				<linearGradient id="SVGID_4_" gradientUnits="userSpaceOnUse" x1="1571.7028" y1="1945.3801" x2="1362.1" y2="1716.0834" gradientTransform="matrix(0.9834 -0.1812 0.1812 0.9834 -435.871 -62.6365)">
				<stop  offset="0" style="stop-color:#FFAFAC"/>
				<stop  offset="1" style="stop-color:#FC7D77"/>
			</linearGradient>
			<path class="st13" d="M1355.7,1273.2c0,0,30.2,29.6,44,111.7c13.8,82.1,18.6,129.4,39,147.8c20.3,18.4,28.8,36.4,9.1,49.1
				c-19.8,12.8-23.6,34.3-47.4,46.5c-23.8,12.2-115.3,50.1-89,23.1c26.3-27,87.8-72.4,77.4-100.4c-10.4-28-95.3-276.8-95.3-276.8
				L1355.7,1273.2z"/>
			<linearGradient id="SVGID_5_" gradientUnits="userSpaceOnUse" x1="1402.7266" y1="1411.2979" x2="1349.0214" y2="1352.5465">
				<stop  offset="0" style="stop-color:#FFFFFF"/>
				<stop  offset="1" style="stop-color:#D7D7F9"/>
			</linearGradient>
			<path class="st14" d="M1405.2,1418.3c-1.7-10.4-3.5-21.5-5.5-33.4c-13.8-82.1-44-111.7-44-111.7l-62.3,1.1
				c0,0,30.3,88.9,57,166.4C1365.7,1440,1393.6,1436.3,1405.2,1418.3z"/>
			<linearGradient id="SVGID_6_" gradientUnits="userSpaceOnUse" x1="1409.7544" y1="1622.4766" x2="1370.8137" y2="1579.8771">
				<stop  offset="0" style="stop-color:#F9D45F"/>
				<stop  offset="1" style="stop-color:#E5BC48"/>
			</linearGradient>
			<path class="st15" d="M1438.7,1532.7c-2.6-2.3-4.9-5.1-7-8.4l0,0c0,0-9.9,60.7-37.2,72s-64.6,42.5-64.6,42.5s-0.2,8.6-0.4,18.2
				c23.2-7.1,57.5-21.9,70.8-28.7c23.8-12.2,27.6-33.7,47.4-46.5C1467.5,1569,1459,1551.1,1438.7,1532.7z"/>
			<g>
				
					<linearGradient id="SVGID_7_" gradientUnits="userSpaceOnUse" x1="-3448.1216" y1="1529.8499" x2="-3418.5225" y2="1390.2834" gradientTransform="matrix(-1 0 0 1 -1734 0)">
					<stop  offset="0" style="stop-color:#FC7D77"/>
					<stop  offset="1" style="stop-color:#E06161"/>
				</linearGradient>
				<polygon class="st16" points="1723.2,1683.6 1757.3,1683.6 1700.4,1354.3 1667.2,1359.5 				"/>
				
					<linearGradient id="SVGID_8_" gradientUnits="userSpaceOnUse" x1="-3124.981" y1="1514.4183" x2="-3128.4573" y2="1424.3638" gradientTransform="matrix(-1 0 0 1 -1734 0)">
					<stop  offset="0" style="stop-color:#FC7D77"/>
					<stop  offset="1" style="stop-color:#E06161"/>
				</linearGradient>
				<polygon class="st17" points="1379.9,1680.8 1435.9,1356.7 1402.7,1351.5 1345.8,1680.8 				"/>
				
					<linearGradient id="SVGID_9_" gradientUnits="userSpaceOnUse" x1="-3495.8694" y1="1155.0089" x2="-3133.2817" y2="1155.0089" gradientTransform="matrix(-1 0 0 1 -1734 0)">
					<stop  offset="0" style="stop-color:#FC7D77"/>
					<stop  offset="1" style="stop-color:#E06161"/>
				</linearGradient>
				<polygon class="st18" points="1399.3,1370.9 1703.3,1370.9 1761.9,939.1 1728,939.1 1673.9,1337.3 1399.3,1337.3 				"/>
				<path class="st0" d="M1728,939.1c0,0-24.4,1.4-28.2,32.3c-3.7,30.8-48.7,337.4-48.7,337.4h-206.2c-19.4,0-37.2,11.1-45.7,28.6v0
					h274.6L1728,939.1z"/>
			</g>
			<linearGradient id="SVGID_10_" gradientUnits="userSpaceOnUse" x1="1541.7864" y1="957.1713" x2="1576.4717" y2="827.178">
				<stop  offset="0" style="stop-color:#FFAFAC"/>
				<stop  offset="1" style="stop-color:#FC7D77"/>
			</linearGradient>
			<path class="st19" d="M1507.5,869.4c0,0,22.1,50.9,11.5,68.2c-10.6,17.3-29.8,51.9-48,72c-18.3,20.2-22.1,50.9-7.7,70.1
				c14.4,19.2,43.2,77.8,43.2,107.6s-10.6,42.3-74.9,39.4c-64.4-2.9-150.8-25-166.2,19.2c-15.4,44.2,80.7,339.1,68.2,366
				s-34.3,39.4-46.1,47.7c-11.8,8.3-73,11.8-56.4,22.4c16.6,10.6,74,7.4,99.9,3.8c25.9-3.5,30.1-33.6,52.5-42.3
				c22.4-8.6,15-32.3-6.1-44.2c-21.1-11.8-10.2-247.8-40-306.4c0,0,50.9,32.7,167.1,32.7s152.7-4,151.8-66.9
				c-1-62.8-50.9-119.5-41.3-175.2c9.6-55.7,29.9-109.5,19.3-143.1c-10.6-33.6-86.5-75.9-80.7-101.4L1507.5,869.4z"/>
			
				<linearGradient id="SVGID_11_" gradientUnits="userSpaceOnUse" x1="-3665.9895" y1="969.5228" x2="-3727.9839" y2="901.7033" gradientTransform="matrix(-0.9983 5.771121e-02 5.771121e-02 0.9983 -2230.4934 84.4484)">
				<stop  offset="0" style="stop-color:#FFAFAC"/>
				<stop  offset="1" style="stop-color:#FC7D77"/>
			</linearGradient>
			<path class="st20" d="M1460.7,778.3c-3.2-48.3,41-57.8,41-57.8c103.3,4,90.3,71.9,79.1,113.6c-11.1,41.7-70.5,54-93.8,52.6
				c-17.8-1-22.5-24.1-24.1-53c-3.3-0.3-11.5-2.2-11.8-5.7c-0.2-3.2,7.7-21.3,10.6-27.8C1461.4,792.8,1461.2,785.5,1460.7,778.3z"/>
			<g>
				<linearGradient id="SVGID_12_" gradientUnits="userSpaceOnUse" x1="713.8943" y1="899.5009" x2="666.2293" y2="997.2784">
					<stop  offset="0" style="stop-color:#FFAFAC"/>
					<stop  offset="1" style="stop-color:#FC7D77"/>
				</linearGradient>
				<path class="st21" d="M590.5,953.1c0,0,80,116.3,88.8,110c8.8-6.3,31.3-140,36.3-155.6c5-15.6,10-46.3,23.1-55.6
					c13.1-9.4,26.9-22.5,23.1-13.8c-3.8,8.8-19.7,21.9-15.6,24.1c4.1,2.2,30,4.4,39.7-5c9.7-9.4,13.8-28.6,15-21.9
					c1.3,6.6,2.5,36.3-10.9,41.6c-13.4,5.3-36.6,10.3-44.4,27.8c-7.8,17.5-18.6,156.6-23.7,177.2c-5.1,20.6-46.3,35-46.3,35
					l-95-77.5L590.5,953.1z"/>
				<linearGradient id="SVGID_13_" gradientUnits="userSpaceOnUse" x1="754.8618" y1="1046.9047" x2="665.5223" y2="1038.1573">
					<stop  offset="0" style="stop-color:#FFFFFF"/>
					<stop  offset="1" style="stop-color:#D7D7F9"/>
				</linearGradient>
				<path class="st22" d="M697.7,993.8c-7,34.3-14.3,66.3-18.5,69.3c-8.8,6.3-88.8-110-88.8-110l-10,86.3l95,77.5
					c0,0,41.3-14.4,46.3-35c2.4-9.6,6-44.8,9.9-81.4C720.8,995.4,707.4,994.1,697.7,993.8z"/>
				<path class="st9" d="M693.5,766.5c-1.4-12.1-8.1-22.3-14.9-32c-3.4-4.9-11.5-0.2-8.1,4.7c1,1.5,2.2,3.1,3.3,4.7
					c-1.4,0-2.8,0.6-3.8,2.1c-6.2,8.8-8.5,19.8-6.5,30.4c1.6,8.7,8,20.6,18.6,16.6C691.9,789.4,694.5,775.6,693.5,766.5z"/>
				<path class="st9" d="M649,880.9c-4.6-10.2-9.2-20.4-13.8-30.6c1.7-3.3-0.7-8.3-5-6.7c-1.5-0.2-3.2,0.6-4.3,1.9
					c-14.8,6.9-27.1,18.6-33.9,33.6c-7.6,16.7-9.2,38.3-0.6,55c8.3,16.1,29.6,20.6,45,11.6c7.9-4.6,11.1-13.2,6.9-21.5
					c-1.9-3.8-3-5.3,0.4-8.2c2.6-2.2,5.5-3.8,7.8-6.4C659.4,900.8,653.1,889.9,649,880.9z"/>
				<linearGradient id="SVGID_14_" gradientUnits="userSpaceOnUse" x1="792.7408" y1="1604.4395" x2="575.543" y2="1366.8341">
					<stop  offset="0" style="stop-color:#FFAFAC"/>
					<stop  offset="1" style="stop-color:#FC7D77"/>
				</linearGradient>
				<path class="st23" d="M662.1,1287.7c0,0-29.4,49.4-38.8,96.9c-9.4,47.5-28.8,173.2-39.4,194.4c-10.6,21.3-30.6,31.9-19.4,46.9
					c11.3,15,33.6,14.4,47.1,34.4c13.5,20,102.7,32.1,100.2,15.7c-2.5-16.4-99.1-53.2-84.7-109.5c14.4-56.3,99.4-253.8,99.4-253.8
					l-6.3-58.8L662.1,1287.7z"/>
				<linearGradient id="SVGID_15_" gradientUnits="userSpaceOnUse" x1="605.7486" y1="1492.5519" x2="693.7649" y2="1347.8381">
					<stop  offset="0" style="stop-color:#8EA4DD"/>
					<stop  offset="1" style="stop-color:#6687D1"/>
				</linearGradient>
				<path class="st24" d="M626.1,1571.3c0.3-1.6,0.6-3.2,1-4.8c14.4-56.3,99.4-253.8,99.4-253.8l-6.3-58.8l-58.1,33.8
					c0,0-29.4,49.4-38.8,96.9c-7.6,38.3-21.6,127.4-32.4,171.7C600,1562.9,611.9,1569.4,626.1,1571.3z"/>
				<linearGradient id="SVGID_16_" gradientUnits="userSpaceOnUse" x1="598.8027" y1="1574.6399" x2="665.3098" y2="1703.2866">
					<stop  offset="0" style="stop-color:#F9D45F"/>
					<stop  offset="1" style="stop-color:#E5BC48"/>
				</linearGradient>
				<path class="st25" d="M711.9,1675.9c-1-6.5-16.8-16.2-34.7-29.1c-9.3,5.7-26.4,2.1-46.2-9.5c-26.8-15.6-49.5-53.7-49.5-53.7l0,0
					c-10.9,18.2-27.2,28.4-16.8,42.2c11.3,15,33.6,14.4,47.1,34.4C625.2,1680.3,714.4,1692.3,711.9,1675.9z"/>
				<g>
					<linearGradient id="SVGID_17_" gradientUnits="userSpaceOnUse" x1="313.5026" y1="1533.0343" x2="343.1018" y2="1393.4679">
						<stop  offset="0" style="stop-color:#FC7D77"/>
						<stop  offset="1" style="stop-color:#E06161"/>
					</linearGradient>
					<polygon class="st26" points="304.4,1686.8 270.3,1686.8 327.2,1357.5 360.4,1362.7 					"/>
					<linearGradient id="SVGID_18_" gradientUnits="userSpaceOnUse" x1="636.6433" y1="1517.6028" x2="633.1669" y2="1427.5482">
						<stop  offset="0" style="stop-color:#FC7D77"/>
						<stop  offset="1" style="stop-color:#E06161"/>
					</linearGradient>
					<polygon class="st27" points="647.8,1684 591.8,1359.9 624.9,1354.7 681.9,1684 					"/>
					<linearGradient id="SVGID_19_" gradientUnits="userSpaceOnUse" x1="265.7548" y1="1158.1935" x2="628.3425" y2="1158.1935">
						<stop  offset="0" style="stop-color:#FC7D77"/>
						<stop  offset="1" style="stop-color:#E06161"/>
					</linearGradient>
					<polygon class="st28" points="628.3,1374.1 324.4,1374.1 265.8,942.3 299.7,942.3 353.7,1340.5 628.3,1340.5 					"/>
					<path class="st0" d="M299.7,942.3c0,0,24.4,1.4,28.2,32.3s48.7,337.4,48.7,337.4h206.2c19.4,0,37.2,11.1,45.7,28.6l0,0H353.7
						L299.7,942.3z"/>
				</g>
				<linearGradient id="SVGID_20_" gradientUnits="userSpaceOnUse" x1="665.6163" y1="1115.6505" x2="681.9886" y2="789.0363">
					<stop  offset="0" style="stop-color:#FFAFAC"/>
					<stop  offset="1" style="stop-color:#FC7D77"/>
				</linearGradient>
				<path class="st29" d="M593.4,1089.5c0,0-77.9,99-32.1,109.3c28,6.2,155.9,12.6,182.1,17.6c26.3,5,22.5,51.3,28.1,70.6
					s34.4,282.5,45,316.3c10.6,33.8,40.6,35,68.1,35.6s30.6,23.1,29.4,30c-1.3,6.9-61.9,2.5-88.8,2.5s-59.4,1.3-64.4-8.8
					c-5-10,2.5-29.4,14.4-48.1c11.9-18.8-0.6-58.8-38.8-153.8c-38.1-95-23.8-168.8-25-173.8c-1.3-5-21.3,7.5-163.8,28.8
					c-142.5,21.3-161.3-43.8-163.8-87.5c-2.5-43.8,63.1-86.9,73.3-227.7c6.2-84.8,59.4-108.9,82.9-113.6c45.3-9,54.6-53.2,54.6-53.2
					l54.2,5.7c0,0-34.4,59.4-35.6,81.9c-1.3,22.5,16.9,66.3,28.1,94.4C652.7,1043.9,619,1087.6,593.4,1089.5"/>
				
					<linearGradient id="SVGID_21_" gradientUnits="userSpaceOnUse" x1="2552.3389" y1="603.994" x2="2491.2195" y2="537.1317" gradientTransform="matrix(0.9983 5.771121e-02 -5.771121e-02 0.9983 -1851.5066 84.4484)">
					<stop  offset="0" style="stop-color:#FFAFAC"/>
					<stop  offset="1" style="stop-color:#FC7D77"/>
				</linearGradient>
				<path class="st30" d="M684.8,776c3.1-46.6-36-64.4-36-64.4c-99.7,3.9-90.7,78.1-80,118.4c10.7,40.3,68,52.1,90.5,50.8
					c17.2-1,21.7-23.3,23.3-51.2c3.2-0.3,11.1-2.1,11.4-5.5c0.2-3.1-7.4-20.6-10.2-26.8C684.1,790,684.4,782.9,684.8,776z"/>
				<linearGradient id="SVGID_22_" gradientUnits="userSpaceOnUse" x1="852.2513" y1="1553.4324" x2="447.9474" y2="1111.1407">
					<stop  offset="0" style="stop-color:#8EA4DD"/>
					<stop  offset="1" style="stop-color:#6687D1"/>
				</linearGradient>
				<path class="st31" d="M775.5,1310.8c-1.8-12.4-3.1-20.8-4-23.7c-5.6-19.4-1.9-65.6-28.1-70.6c-26.3-5-154.1-11.4-182.1-17.6
					c-20.4-4.6-16.3-26.7-5.5-49.8l-131-16.7c-20.5,45-42.4,70.4-40.9,96.1c2.5,43.8,21.3,108.8,163.8,87.5
					c142.5-21.3,162.5-33.8,163.8-28.8c1.3,5-13.1,78.8,25,173.8c24.6,61.4,38.6,99.8,42.2,124.4c27,8.3,46.5-7,46.5-7L775.5,1310.8
					z"/>
				<linearGradient id="SVGID_23_" gradientUnits="userSpaceOnUse" x1="867.6048" y1="1679.8208" x2="788.0225" y2="1622.153">
					<stop  offset="0" style="stop-color:#F9D45F"/>
					<stop  offset="1" style="stop-color:#E5BC48"/>
				</linearGradient>
				<path class="st32" d="M914,1669c1.3-6.9-1.9-29.4-29.4-30c-1.3,0-2.5-0.1-3.8-0.1c-3.6,5.8-8.1,11.5-14,15.9
					c-17.9,13.2-73.2-21.3-93.7-36.7c-10.6,17.6-17,35.3-12.3,44.7c5,10,37.5,8.8,64.4,8.8C852.1,1671.5,912.8,1675.9,914,1669z"/>
				<linearGradient id="SVGID_24_" gradientUnits="userSpaceOnUse" x1="510.4182" y1="1040.4917" x2="554.944" y2="1126.6194">
					<stop  offset="0" style="stop-color:#FFFFFF"/>
					<stop  offset="1" style="stop-color:#D7D7F9"/>
				</linearGradient>
				<path class="st33" d="M641.5,1015.8c-7.3-18.4-17.6-43.4-23.5-64.8c0.2-1.7,0-3.5-0.6-5.1c6-5.2,11.7-12.1,8.3-20.4
					c-1.4-3.5-4.2-5.8-7.9-6.3c-2.9-0.4-5.8,0.6-8.2-1.6c-1.7-1.6-2.5-4.2-4.3-5.8c-3.2-3-7.7-3.2-11.9-3.4
					c-6.2-0.3-11.8-2-16.6-6.1c-4.5-3.8-6.7-8.7-8.6-14.1c-1.5-4.4-3.1-8.8-6.7-11.9c-7.3-6.3-17.3-1.7-22.5,5c-1.7,2.1-3,4.5-4,6.9
					c-25.6,6.4-71.8,33.7-77.6,112.5c-6.3,86.9-33.7,136.6-53.2,172.2c32.5,10.2,97.5,26.3,142.9,10.5
					c-3.3-30.7,46.4-93.8,46.4-93.8C619,1087.6,652.7,1043.9,641.5,1015.8z"/>
				<linearGradient id="SVGID_25_" gradientUnits="userSpaceOnUse" x1="712.7985" y1="938.8149" x2="646.5389" y2="1014.7762">
					<stop  offset="0" style="stop-color:#FFAFAC"/>
					<stop  offset="1" style="stop-color:#FC7D77"/>
				</linearGradient>
				<path class="st34" d="M535.9,929.2c0,0,35.4,29.4,66.6,65.6s76.8,103.5,89,97.9s44.2-48.7,70.4-73.1
					c26.3-24.4,32.8-38.9,32.8-63.3c0-24.4,0.9-51.6,6.6-51.1s3.8,12.7,5.2,22.5c1.4,9.8,7.5,28.6,12.2,25.3
					c4.7-3.3,33.8-18.3,34.2-26.3c0.5-8,4.7-15.5,7.5-5.2s6.1,34.2,0,45.9s-29.5,18.1-40.3,35.5s-87.1,149.9-125.6,149.9
					c-38.8,0-136.3-110-164.9-141.9C500.9,979.3,535.9,929.2,535.9,929.2z"/>
				<path class="st0" d="M729.3,1053.1c-15.5,20.8-30.9,30-38.3,33.5c-12.2,5.6-56.7-56.4-87.8-92.7s-73.9-74-73.9-74
					s-37.7,51.7-9.1,83.6c28.6,31.9,135.4,149.7,174.2,149.7c17.1,0,41.8-26.3,64.8-57C754.5,1073.5,738.6,1058.5,729.3,1053.1z"/>
				<linearGradient id="SVGID_26_" gradientUnits="userSpaceOnUse" x1="590.0304" y1="814.9869" x2="552.0797" y2="877.9743">
					<stop  offset="0" style="stop-color:#383F9B"/>
					<stop  offset="1" style="stop-color:#373F7C"/>
				</linearGradient>
				<path class="st35" d="M684.6,746.3c-2.4-28.6-37.5-40.3-61.9-40c-29.7,0.5-57,16.6-71.8,42.3c-3.4,6-6.2,12.4-8,19
					c-2.1,7.4-2.6,14.9-3.9,22.5c-1.5,8.8-5,15.5-11.2,21.9c-5.2,5.3-10.8,10.4-13.8,17.3c-2.6,6-2.3,12.2,0.5,18
					c2.6,5.2,7.1,9.9,8.8,15.6c-7.2,12.9-20.5,24.6-17.3,40.2c1.5,6.9,6.8,12.3,13.1,15.1c3.6,1.6,7.5,2.5,11.4,3
					c0.9,0.1,2,0.2,3,0.2c1.7,1.2,3.3,2.6,4.8,4.1c3.2,3.3,5.6,7.3,8.7,10.7c10.4,11.5,24.6,19.3,40.1,14c0.9-0.3,1.3-0.9,1.5-1.6
					c0.3-0.9,0.1-1.9-0.8-2.4c-0.3-0.2-0.7-0.4-1.1-0.4c-0.5-0.1-0.9-0.3-1.3-0.4c-3.8-3.8-1.8-11.4-1-16.1c0.5-3,1.1-6,1.8-9
					c3.9-5.6,8.2-11,9.3-17.9c1.4-8.9-4.3-16.8-3.5-25.6c0.7-7.1,6-12.4,10.7-17.1c4.6-4.5,9.5-9,12.5-14.7
					c3.6-6.9,3.2-14.3,2.4-21.8c-0.6-5.8-1.2-11.5,0.4-16.7c5.5-3.2,12.3-5.3,16.7-7.1c9-3.6,18-7.2,26.2-12.5
					c12-7.8,21.9-20,22.1-34.5c0.7-1.4,1.4-2.7,2-4.1C685,747.7,684.9,746.9,684.6,746.3z M508.1,904.2
					c-4.1-14.4,8.1-26.3,15.6-38.6c1.5,12.6-13.2,21.4-10.9,34.5c1.4,7.7,7.8,12.9,13.9,17c1.2,0.8,2.4,1.6,3.6,2.4
					C521.1,918.2,510.9,914,508.1,904.2z M581.4,936.3c-0.2,2.3-0.3,4.7,0.3,6.8c-3.7-4.7-1.5-13.2,1.5-18.2
					C582.4,928.7,581.8,932.5,581.4,936.3z M646,792.7c-9,4-18.6,7-27.4,11.5c1-2.2,2.4-4.2,4.5-6.1c6.9-6.3,16.3-8.4,24.6-12.1
					c13.8-6.2,25.3-16.8,32.9-29.7C678.5,773.7,661.5,785.8,646,792.7z"/>
			</g>
			<linearGradient id="SVGID_27_" gradientUnits="userSpaceOnUse" x1="1314.614" y1="1232.0583" x2="1522.6417" y2="1325.9581">
				<stop  offset="0" style="stop-color:#FFFFFF"/>
				<stop  offset="1" style="stop-color:#D7D7F9"/>
			</linearGradient>
			<path class="st36" d="M1656.4,1258.8c-0.7-46.3-28-89.2-38.5-130.8c-36.8,3.8-91.3,8.5-123.6,11.2c7.1,17.8,12.2,35.6,12.2,48.2
				c0,29.8-10.6,42.3-74.9,39.4c-64.4-2.9-150.8-25-166.2,19.2c-8.3,24,19.4,134.9,41.5,223.6c15.1,3.7,38.8,5.8,53.7-6.9
				c-3.6-67.5-8.4-140.5-23.2-169.6c0,0,50.9,32.7,167.1,32.7S1657.3,1321.6,1656.4,1258.8z"/>
			<linearGradient id="SVGID_28_" gradientUnits="userSpaceOnUse" x1="1557.9105" y1="1068.2195" x2="1507.3052" y2="1175.0707">
				<stop  offset="0" style="stop-color:#8EA4DD"/>
				<stop  offset="1" style="stop-color:#6687D1"/>
			</linearGradient>
			<path class="st37" d="M1615.1,1083.6c9.6-55.7,29.9-109.5,19.3-143.1c-4.7-14.8-22.1-31.4-39.5-47.4c-11.7,5-31.3,17.1-48.9,46
				c-26.8,44.2-49.6,36.5-49.9,36.4c-7.9,12.4-16.6,24.8-25.1,34.2c-18.3,20.2-22.1,50.9-7.7,70.1c13.7,18.3,40.4,72.1,43,103
				c49,10.8,100.6-8.1,123.8-18.4C1619.4,1136.8,1610.5,1110.1,1615.1,1083.6z"/>
			<linearGradient id="SVGID_29_" gradientUnits="userSpaceOnUse" x1="1413.5935" y1="1015.8204" x2="1493.5024" y2="1040.8528">
				<stop  offset="0" style="stop-color:#FFAFAC"/>
				<stop  offset="1" style="stop-color:#FC7D77"/>
			</linearGradient>
			<path class="st38" d="M1545.6,955.6c0,0-107.2,163.6-115.9,141.5s-42.3-129.7-38.4-160.4c3.8-30.7,5.1-29.8-3.8-47.7
				s-24.7-41-25.9-33c-1.3,8,0.3,17.3,5.4,30.3c5.1,13-0.3,35.1-12.2,27.4c-11.8-7.7-27.2-21.5-27.2-33.9c0-12.5-7.7-21.8-8.3-10.6
				c-0.6,11.2-7.4,32.3,1.9,43.5c9.3,11.2,22.4,13.1,32,27.2c9.6,14.1,17.9,167.8,34.3,193.7c16.3,25.9,36.2,37.9,54.9,27.4
				s159.2-136.8,159.2-136.8L1545.6,955.6z"/>
			<linearGradient id="SVGID_30_" gradientUnits="userSpaceOnUse" x1="1343.8896" y1="1682.5029" x2="1288.7974" y2="1622.2344">
				<stop  offset="0" style="stop-color:#F9D45F"/>
				<stop  offset="1" style="stop-color:#E5BC48"/>
			</linearGradient>
			<path class="st39" d="M1302.5,1668.5c-7.9-1.7-15.3-3.6-22-5.8c-19.7,6.3-63.8,10.2-49.3,19.3c16.6,10.6,74,7.4,99.9,3.8
				c25.9-3.5,30.1-33.6,52.5-42.3c22.4-8.6,15-32.3-6.1-44.2c-1-0.6-1.9-1.6-2.8-3.2h0C1374.7,1596.3,1349.8,1678.4,1302.5,1668.5z"
				/>
			<path class="st40" d="M1471.5,1138.2c46.9-39.3,130.1-114,130.1-114l-56-68.6c0,0-73.3,111.8-103.6,138.1
				C1448,1108.5,1458.2,1129,1471.5,1138.2z"/>
			<path class="st12" d="M1590.7,762.9c-8.3-15.5-18.8-31.2-33.9-40.8c-14.5-9.3-32.2-11.4-49.1-10.1c-19.6,1.5-37.2,9.4-48.4,26
				c-0.5,0.8-0.5,1.6-0.1,2.2c0,0.1,0.1,0.3,0.1,0.4c-0.2,0.2-0.3,0.5-0.2,0.8c3.9,20.9,17.4,38.9,36.6,48.1
				c10.5,5.1,21.9,6.1,33.1,8.7c7.9,1.9,16.2,5.2,21.5,11.2c0,4.4-1.4,9-2.9,13.2c-2.7,7.6-5.7,14.9-5.9,23.1c0,1.7,0,3.4,0.2,5
				c-1.4,11-0.5,22.1,7.9,30.7c7.3,7.5,23,17.9,32.8,10c0.8,0.1,1.6,0.2,2.4,0.2c0.9,0,1.6-0.4,1.9-1c0.9,0,1.8-0.5,2.2-1.6
				c7.4-22.1,13.4-44.9,14.7-68.2C1604.8,800.3,1600.3,781,1590.7,762.9z M1506.2,791.6c-19.8-5.8-35.2-20.8-42.2-39.6
				c4.7,8.2,11.7,15,19.7,20.1c13.8,8.8,29.6,12,45.1,16.6c6.5,2,13.6,4.6,17.9,10.1c1.8,2.3,2.8,4.8,3.2,7.3
				C1539.2,796.1,1519.7,795.5,1506.2,791.6z M1548.6,877.4c-4.5-5.9-5.9-12.7-5.7-19.7c0.8,3,1.8,6,3.2,8.9
				c6.3,13.3,19.2,22.1,33.5,24.4C1569.5,896.2,1554.4,885,1548.6,877.4z"/>
			<path class="st12" d="M1642.6,1037.4c9.1-9.3,19.2-18.8,22.5-31.9c4.8-18.9-3.6-36.4-14.7-51.7c-1-2.3-2-4.5-3.2-6.7
				c-8.7-16.6-21-31.3-32.2-46.3c-3.2-4.3-6.3-8.6-9.6-12.8c-2.5-3.2-5.3-6.3-9.1-7.7c-5.6-2-11.8,0.7-13.2,6.4
				c-1.5,0.2-2.8,1.8-1.8,3.5c16.1,28.4,33.7,60.1,27.8,94c-5.1,29.6-27.8,58.2-18.9,89.4c3.6,12.8,12.7,24.1,25.7,27.8
				c8,2.1,14.9-1.2,22.7-2.6c1.7-0.3,2.3-2.8,1-3.9c-13.3-12-9.4-32-2.6-46.3C1638.8,1044.7,1640.7,1041,1642.6,1037.4z
				 M1655.4,964.8c7.5,12.8,12.1,28.8,7,43.3c-3.3,9.4-10,16.7-16.9,23.7c5.3-10.5,10.1-21,11.7-33.2c1.6-12.7,0.2-25.3-3.8-37.3
				C1654,962.5,1654.7,963.6,1655.4,964.8z"/>
			<linearGradient id="SVGID_31_" gradientUnits="userSpaceOnUse" x1="1574.7086" y1="882.3931" x2="1601.7266" y2="882.3931">
				<stop  offset="0" style="stop-color:#F9D45F"/>
				<stop  offset="1" style="stop-color:#E5BC48"/>
			</linearGradient>
			<path class="st41" d="M1585.4,889.7c2.3-4.1,6.2-6.1,10.8-5.9c7.4,0.4,7.4-11.1,0-11.5c-8.5-0.5-16.6,4.2-20.7,11.6
				C1571.9,890.3,1581.8,896.1,1585.4,889.7L1585.4,889.7z"/>
			<g>
				<linearGradient id="SVGID_32_" gradientUnits="userSpaceOnUse" x1="1351.4557" y1="856.7472" x2="1351.4557" y2="901.678">
					<stop  offset="0" style="stop-color:#F9D45F"/>
					<stop  offset="1" style="stop-color:#E5BC48"/>
				</linearGradient>
				<path class="st42" d="M1351.5,837.7h-26.6c-2.7,0-4.8,2.8-4.5,5.9l5.5,64.4c0.6,6.6,5.3,11.7,10.9,11.7h14.7h14.7
					c5.6,0,10.4-5.1,10.9-11.7l5.5-64.4c0.3-3.2-1.8-5.9-4.5-5.9H1351.5z"/>
				<path class="st0" d="M1362.5,796.7c-5.1-5-12.1-7-15.5-13.7c-4.2-8.3-1.6-18.3,5.7-24c2-1.5,1-4.9-1.8-4.3
					c-10.4,2.6-18.8,16.3-18.9,26.6c-0.1,5.9,3.1,10.9,6.7,15.2c5,6.1,12.6,12.8,8.9,21.5c-0.4,1-0.1,1.8,0.5,2.3c0.4,0.6,1,1,1.9,1
					c6.5-0.1,12.9-3,15.6-9.2C1368.2,806.6,1366.7,800.7,1362.5,796.7z"/>
			</g>
			<linearGradient id="SVGID_33_" gradientUnits="userSpaceOnUse" x1="1049.1124" y1="1160.7582" x2="1049.1124" y2="1178.7367">
				<stop  offset="0" style="stop-color:#FC7D77"/>
				<stop  offset="1" style="stop-color:#E06161"/>
			</linearGradient>
			<path class="st43" d="M1438.1,1186H660.1c-9.1,0-16.4-7.4-16.4-16.4l0,0c0-9.1,7.4-16.4,16.4-16.4h777.9
				c9.1,0,16.4,7.4,16.4,16.4l0,0C1454.5,1178.6,1447.2,1186,1438.1,1186z"/>
			<linearGradient id="SVGID_34_" gradientUnits="userSpaceOnUse" x1="1049.1124" y1="1655.6984" x2="1049.1124" y2="1697.1118">
				<stop  offset="0" style="stop-color:#FC7D77"/>
				<stop  offset="1" style="stop-color:#E06161"/>
			</linearGradient>
			<path class="st44" d="M1110.6,1654.2l-12.8-2.4c-32.1-6-65.2-6-97.3,0l-12.8,2.4c-23.5,4.4-45.1,14.7-61.8,29.8l0,0l123.3-0.4
				l123.3,0.4v0C1155.7,1668.9,1134.1,1658.6,1110.6,1654.2z"/>
			<g>
				<path class="st45" d="M1415.8,1152.7c-6.4,0-12.7,0-19.1,0c-17.3,0-34.6,0-52,0.1c-25.5,0-51,0.1-76.4,0.1
					c-31.2,0-62.4,0.1-93.7,0.1c-34.2,0-68.4,0.1-102.6,0.1c-34.4,0-68.8,0.1-103.1,0.1c-32.2,0-64.4,0.1-96.6,0.1
					c-27.2,0-54.4,0.1-81.6,0.1c-19.6,0-39.1,0-58.7,0.1c-9.2,0-18.5-0.4-27.7,0c-0.4,0-0.8,0-1.2,0c-0.9,0-1.5,0.4-1.8,0.9
					c-0.1,0.1-0.1,0.1-0.2,0.2c-9.3,13.9-9.4,31.1-4.4,46.6c5.4,16.6,15.9,30.2,27.7,42.8c13.1,14,27.7,27.1,37.5,43.8
					c8.4,14.3,13.2,30.3,18.8,45.9c5.3,14.8,11.4,29.8,21.9,41.8c10.9,12.5,25.9,20.1,42,23.2c39.8,7.8,78.6-8.4,118.4-6.2
					c41,2.3,71.8,32.7,111.2,40.6c16.5,3.3,34.4,2.7,49.1-6.4c13.9-8.6,22.3-23,30.7-36.5c9.2-14.9,19.4-28,35-36.5
					c15.1-8.3,32.5-11.9,49.6-12.8c17.7-1,35.1,1.3,52.5,3.9c17.5,2.7,35.4,5.4,53.1,3.4c16.1-1.9,31.4-8.3,42.2-20.7
					c10.2-11.7,15.4-26.8,17.7-41.9c2.5-16.5,2.1-33.3,1-49.9c-1.2-18.2-3.4-37.1,1-55.1c2.2-8.9,6.2-17.1,11.7-24.4
					C1418.9,1154.7,1417.4,1152.7,1415.8,1152.7z"/>
				<g>
					<path class="st46" d="M775.1,1211.2h-25.2v36.8h25.2V1211.2 M775.1,1153.4c-8.4,0-16.8,0-25.2,0v32.5h25.2V1153.4"/>
					<path class="st46" d="M775.1,1273.2h-23.6c3.8,4.6,7.3,9.5,10.3,14.7c4.2,7.1,7.4,14.5,10.3,22.2h3V1273.2"/>
					<path class="st46" d="M822,1186h-46.9v25.2H822V1186 M894.1,1186h-46.9v25.2h46.9V1186 M966.2,1186h-46.9v25.2h46.9V1186
						 M1038.4,1186h-46.9v25.2h46.9V1186 M1110.5,1186h-46.9v25.2h46.9V1186 M1182.6,1186h-46.9v25.2h46.9V1186 M1254.7,1186h-46.9
						v25.2h46.9V1186 M1326.9,1186h-46.9v25.2h46.9V1186 M1404.9,1186h-52.8v25.2h51.4C1403.2,1202.7,1403.5,1194.2,1404.9,1186"/>
					<path class="st46" d="M749.8,1186h-56.4c0.4,5.2,1.5,10.3,3.1,15.3c1.1,3.4,2.4,6.7,3.9,9.9h49.3V1186"/>
					<polyline class="st47" points="775.1,1186 749.8,1186 749.8,1211.2 775.1,1211.2 775.1,1186 					"/>
					<path class="st46" d="M822,1248h-46.9v25.2H822V1248 M894.1,1248h-46.9v25.2h46.9V1248 M966.2,1248h-46.9v25.2h46.9V1248
						 M1038.4,1248h-46.9v25.2h46.9V1248 M1110.5,1248h-46.9v25.2h46.9V1248 M1182.6,1248h-46.9v25.2h46.9V1248 M1254.7,1248h-46.9
						v25.2h46.9V1248 M1326.9,1248h-46.9v25.2h46.9V1248 M1405.7,1248h-53.6v25.2h53.3C1406,1264.8,1406,1256.4,1405.7,1248"/>
					<path class="st46" d="M749.8,1248H728c7.4,7.7,15,15.2,21.9,23.3V1248"/>
					<path class="st0" d="M749.8,1271.3v1.9h1.6C750.9,1272.6,750.4,1271.9,749.8,1271.3"/>
					<path class="st47" d="M775.1,1248h-25.2v23.3c0.5,0.6,1,1.2,1.6,1.9h23.6V1248"/>
					<path class="st46" d="M894.1,1310h-46.9v25.2h46.9V1310 M966.2,1310h-46.9v25.2h46.9V1310 M1038.4,1310h-46.9v25.2h46.9V1310
						 M1110.5,1310h-46.9v25.2h46.9V1310 M1182.6,1310h-46.9v25.2h46.9V1310 M1254.7,1310h-46.9v25.2h46.9V1310 M1326.9,1310h-46.9
						v25.2h46.9V1310 M1397.3,1310h-45.2v25.2h26.1c2.9-2.2,5.7-4.8,8.2-7.7C1390.9,1322.3,1394.5,1316.3,1397.3,1310"/>
					<path class="st46" d="M822,1310h-46.9v8c1.9,5.2,3.7,10.5,5.5,15.7c0.2,0.5,0.4,1,0.5,1.5H822V1310"/>
					<path class="st47" d="M775.1,1310h-3c1,2.7,2,5.3,3,8V1310"/>
					<path class="st46" d="M894.1,1372h-46.9v25.2h46.9V1372 M966.2,1372h-46.9v23.5c11.9-1.7,23.8-3.1,35.8-3.1
						c2.6,0,5.2,0.1,7.7,0.2c1.1,0.1,2.2,0.1,3.3,0.3V1372 M1038.4,1372h-46.9v25.2h46.9V1372 M1110.5,1372h-46.9v25.2h46.9V1372
						 M1166.9,1372h-31.2v25.2h13.9c1.5-2.3,2.9-4.6,4.3-6.9C1157.9,1383.8,1162.1,1377.6,1166.9,1372"/>
					<path class="st46" d="M822,1372h-22.4c0.9,1.2,1.9,2.4,2.9,3.5c5.5,6.4,12.2,11.5,19.5,15.4V1372"/>
					<path class="st46" d="M847.2,1211.2H822v36.8h25.2V1211.2 M847.2,1153.3c-8.4,0-16.8,0-25.2,0v32.6h25.2V1153.3"/>
					<polyline class="st47" points="847.2,1186 822,1186 822,1211.2 847.2,1211.2 847.2,1186 					"/>
					<path class="st46" d="M847.2,1335.2H822v36.8h25.2V1335.2 M847.2,1273.2H822v36.8h25.2V1273.2"/>
					<polyline class="st47" points="847.2,1248 822,1248 822,1273.2 847.2,1273.2 847.2,1248 					"/>
					<polyline class="st47" points="847.2,1310 822,1310 822,1335.2 847.2,1335.2 847.2,1310 					"/>
					<path class="st46" d="M847.2,1397.2h-9.2c2.2,0.6,4.4,1.1,6.6,1.6c0.9,0.2,1.8,0.3,2.7,0.5V1397.2"/>
					<path class="st47" d="M847.2,1372H822v18.9c5,2.7,10.4,4.8,16,6.3h9.2V1372"/>
					<path class="st46" d="M907.8,1397.2h-13.7v1.9C898.7,1398.5,903.2,1397.9,907.8,1397.2 M919.3,1335.2h-25.2v36.8h25.2V1335.2
						 M919.3,1273.2h-25.2v36.8h25.2V1273.2 M919.3,1211.2h-25.2v36.8h25.2V1211.2 M919.3,1153.2c-8.4,0-16.8,0-25.2,0v32.7h25.2
						V1153.2"/>
					<polyline class="st47" points="919.3,1186 894.1,1186 894.1,1211.2 919.3,1211.2 919.3,1186 					"/>
					<polyline class="st47" points="919.3,1248 894.1,1248 894.1,1273.2 919.3,1273.2 919.3,1248 					"/>
					<polyline class="st47" points="919.3,1310 894.1,1310 894.1,1335.2 919.3,1335.2 919.3,1310 					"/>
					<path class="st47" d="M919.3,1372h-25.2v25.2h13.7c1.2-0.2,2.5-0.4,3.7-0.5c2.6-0.4,5.2-0.8,7.8-1.1V1372"/>
					<path class="st46" d="M991.4,1397.2h-4.2c1.4,0.4,2.8,0.9,4.2,1.4V1397.2 M991.4,1335.2h-25.2v36.8h25.2V1335.2 M991.4,1273.2
						h-25.2v36.8h25.2V1273.2 M991.4,1211.2h-25.2v36.8h25.2V1211.2 M991.4,1153.2c-7.5,0-15.1,0-22.6,0c-0.9,0-1.7,0-2.6,0v32.8
						h25.2V1153.2"/>
					<polyline class="st47" points="991.4,1186 966.2,1186 966.2,1211.2 991.4,1211.2 991.4,1186 					"/>
					<polyline class="st47" points="991.4,1248 966.2,1248 966.2,1273.2 991.4,1273.2 991.4,1248 					"/>
					<polyline class="st47" points="991.4,1310 966.2,1310 966.2,1335.2 991.4,1335.2 991.4,1310 					"/>
					<path class="st47" d="M991.4,1372h-25.2v20.9c7.3,0.7,14.2,2.2,21,4.3h4.2V1372"/>
					<path class="st46" d="M1063.6,1397.2h-25.2v23.2c8.2,3.9,16.5,7.5,25.2,10.1V1397.2 M1063.6,1335.2h-25.2v36.8h25.2V1335.2
						 M1063.6,1273.2h-25.2v36.8h25.2V1273.2 M1063.6,1211.2h-25.2v36.8h25.2V1211.2 M1063.6,1153.1c-8.4,0-16.8,0-25.2,0v32.9h25.2
						V1153.1"/>
					<polyline class="st47" points="1063.6,1186 1038.4,1186 1038.4,1211.2 1063.6,1211.2 1063.6,1186 					"/>
					<polyline class="st47" points="1063.6,1248 1038.4,1248 1038.4,1273.2 1063.6,1273.2 1063.6,1248 					"/>
					<polyline class="st47" points="1063.6,1310 1038.4,1310 1038.4,1335.2 1063.6,1335.2 1063.6,1310 					"/>
					<polyline class="st47" points="1063.6,1372 1038.4,1372 1038.4,1397.2 1063.6,1397.2 1063.6,1372 					"/>
					<path class="st46" d="M1135.7,1397.2h-25.2v35.2c4.4-1.3,8.7-3.2,12.7-5.7c4.7-2.9,8.8-6.5,12.5-10.5V1397.2 M1135.7,1335.2
						h-25.2v36.8h25.2V1335.2 M1135.7,1273.2h-25.2v36.8h25.2V1273.2 M1135.7,1211.2h-25.2v36.8h25.2V1211.2 M1135.7,1153
						c-8.4,0-16.8,0-25.2,0v32.9h25.2V1153"/>
					<polyline class="st47" points="1135.7,1186 1110.5,1186 1110.5,1211.2 1135.7,1211.2 1135.7,1186 					"/>
					<polyline class="st47" points="1135.7,1248 1110.5,1248 1110.5,1273.2 1135.7,1273.2 1135.7,1248 					"/>
					<polyline class="st47" points="1135.7,1310 1110.5,1310 1110.5,1335.2 1135.7,1335.2 1135.7,1310 					"/>
					<polyline class="st47" points="1135.7,1372 1110.5,1372 1110.5,1397.2 1135.7,1397.2 1135.7,1372 					"/>
					<path class="st46" d="M1207.8,1335.2h-25.2v22.4c2-1.4,4.1-2.7,6.3-3.9c6-3.3,12.4-5.9,18.9-7.8V1335.2 M1207.8,1273.2h-25.2
						v36.8h25.2V1273.2 M1207.8,1211.2h-25.2v36.8h25.2V1211.2 M1207.8,1152.9c-8.4,0-16.8,0-25.2,0v33h25.2V1152.9"/>
					<polyline class="st47" points="1207.8,1186 1182.6,1186 1182.6,1211.2 1207.8,1211.2 1207.8,1186 					"/>
					<polyline class="st47" points="1207.8,1248 1182.6,1248 1182.6,1273.2 1207.8,1273.2 1207.8,1248 					"/>
					<polyline class="st47" points="1207.8,1310 1182.6,1310 1182.6,1335.2 1207.8,1335.2 1207.8,1310 					"/>
					<path class="st46" d="M1279.9,1335.2h-25.2v5.6c8.4,0.4,16.8,1.2,25.2,2.4V1335.2 M1279.9,1273.2h-25.2v36.8h25.2V1273.2
						 M1279.9,1211.2h-25.2v36.8h25.2V1211.2 M1279.9,1152.8c-3.9,0-7.8,0-11.7,0c-4.5,0-9,0-13.5,0v33.1h25.2V1152.8"/>
					<polyline class="st47" points="1279.9,1186 1254.7,1186 1254.7,1211.2 1279.9,1211.2 1279.9,1186 					"/>
					<polyline class="st47" points="1279.9,1248 1254.7,1248 1254.7,1273.2 1279.9,1273.2 1279.9,1248 					"/>
					<polyline class="st47" points="1279.9,1310 1254.7,1310 1254.7,1335.2 1279.9,1335.2 1279.9,1310 					"/>
					<path class="st46" d="M1352.1,1335.2h-25.2v13.7c1.5,0,2.9,0.1,4.4,0.1c4.3,0,8.6-0.2,12.9-0.7c2.7-0.3,5.3-0.7,7.9-1.3V1335.2
						 M1352.1,1273.2h-25.2v36.8h25.2V1273.2 M1352.1,1211.2h-25.2v36.8h25.2V1211.2 M1352.1,1152.7c-2.5,0-4.9,0-7.4,0
						c-5.9,0-11.9,0-17.8,0v33.2h25.2V1152.7"/>
					<polyline class="st47" points="1352.1,1186 1326.9,1186 1326.9,1211.2 1352.1,1211.2 1352.1,1186 					"/>
					<polyline class="st47" points="1352.1,1248 1326.9,1248 1326.9,1273.2 1352.1,1273.2 1352.1,1248 					"/>
					<polyline class="st47" points="1352.1,1310 1326.9,1310 1326.9,1335.2 1352.1,1335.2 1352.1,1310 					"/>
				</g>
			</g>
			<path class="st0" d="M862.9,1128h-90.8h0c16.9,15.9,39.3,24.7,62.5,24.7h28.2h28.2c23.2,0,45.6-8.8,62.5-24.7l0,0H862.9z"/>
			<path class="st0" d="M1279.9,1129h-90.8l0,0c16.9,15.9,39.3,24.7,62.5,24.7h28.2h28.2c23.2,0,45.6-8.8,62.5-24.7l0,0H1279.9z"/>
		</g>
		<g>
			<circle class="st7" cx="360.4" cy="568.4" r="104.9"/>
			<circle class="st8" cx="360.4" cy="568.4" r="87.6"/>
			<path class="st7" d="M425.7,574.7h-65.3c-1.6,0-2.8-1.3-2.8-2.8v-75.5c0-1.6,1.3-2.8,2.8-2.8c1.6,0,2.8,1.3,2.8,2.8v72.7h62.5
				c1.6,0,2.8,1.3,2.8,2.8C428.5,573.4,427.3,574.7,425.7,574.7z"/>
		</g>
	</g>
</g>
</svg>
