<?xml version="1.0" encoding="utf-8"?>
<!-- Generator: Adobe Illustrator 21.0.0, SVG Export Plug-In . SVG Version: 6.00 Build 0)  -->
<svg version="1.1" id="Layer_1" xmlns="http://www.w3.org/2000/svg" xmlns:xlink="http://www.w3.org/1999/xlink" x="0px" y="0px"
	 width="2000px" height="2000px" viewBox="0 0 2000 2000" style="enable-background:new 0 0 2000 2000;" xml:space="preserve">
<style type="text/css">
	.st0{fill:#FCF0E3;}
	.st1{opacity:0.52;fill:#3A3A99;}
	.st2{fill:#F34761;}
	.st3{fill:#FFC2C9;}
	.st4{fill:#FAF5EF;}
	.st5{fill:#D31B59;}
	.st6{fill:#EAAD5A;}
	.st7{clip-path:url(#SVGID_2_);}
	.st8{fill:url(#SVGID_3_);}
	.st9{fill:#D15F54;}
	.st10{fill:url(#SVGID_4_);}
	.st11{fill:url(#SVGID_5_);}
	.st12{fill:url(#SVGID_6_);}
	.st13{fill:#B23D38;}
	.st14{fill:url(#SVGID_7_);}
	.st15{fill:#C46157;}
	.st16{fill:#1B1130;}
	.st17{fill:url(#SVGID_8_);}
	.st18{fill:url(#SVGID_9_);}
	.st19{fill:url(#SVGID_10_);}
	.st20{fill:url(#SVGID_11_);}
</style>
<g>
	<rect class="st0" width="2000" height="2000"/>
	<g>
		<path class="st1" d="M1874.7,1339.3c-9.7-122.9-43.9-242.9-48.5-366.3c-4.7-124.8,21-248.2,19.8-372.9
			c-0.9-94.4-20.7-190.8-72.9-270.9c-23.7-36.4-54.1-68.7-91-92c-43.7-27.6-95-40.1-146.5-39.6c-119.1,1.1-224.2,62.1-334.5,98.6
			c-53,17.5-107.3,27.8-163.3,26.2c-51.7-1.5-102.7-11.9-152.4-26C782.1,267,683.9,222,580,194.4c-93.6-24.9-203.1-39.9-292.3,7.9
			c-40.8,21.9-69.6,58.6-95.6,96c-13.5,19.5-26.2,39.8-36.5,61.1c-10.8,22.3-17,45.4-21.8,69.7c-23.8,119.4-4.8,239.5,21.5,356.7
			c13.4,60,29.5,118.9,46.4,178c16.4,57.1,32.2,115,37.1,174.4c2.4,29.6,2.3,59.6-2.1,89c-4,26.7-11.6,52.6-20.8,77.9
			c-18.1,49.6-42.3,96.8-58.4,147.1c-15.3,47.9-22,99.1-8.8,148.3c11.7,43.5,37.5,82.4,70,113.2c34,32.2,75.3,56.3,119.3,71.9
			c53.1,18.8,110.8,23.8,166.8,21.9c123.3-4,242.1-41.7,364.6-52.7c6.7-0.6,13.4-1.1,20.1-1.5c18.8-0.5,37.7,0.1,56.4,1.1
			c29.5,1.5,58.9,4.4,88.3,7.9c3.4,0.8,6.9,1.6,10.3,2.4c2.4,0.6,4.5,0.4,6.3-0.3c9.3,1.2,18.7,2.5,28,3.9
			c86.2,12.4,171.5,29.7,257.2,45c44.6,8,89.1,14.1,134.5,13.4c51.3-0.8,102.8-8.8,151.5-25.2c48-16.2,93-40.6,132-73.1
			c35.2-29.3,61.9-67.6,80.6-109.2C1873.4,1532.3,1882.2,1433.5,1874.7,1339.3z"/>
		<path class="st1" d="M1784.1,1409.5c0-113.6-22.7-226.2-18.1-339.9c4.7-114.9,37.2-226.4,45.1-341c6-86.8-5.2-176.7-47.4-254
			c-19.2-35.2-44.7-67-76.9-91.1c-38.2-28.5-84.4-43.6-131.7-46.9c-109.5-7.6-210.4,40.8-314.3,66.4c-50,12.3-100.5,17.8-151.8,12.2
			c-47.4-5.2-93.4-18.4-138-34.9c-92.8-34.4-179.8-82.8-273.2-115.6c-84.2-29.6-183.6-51.3-269-13.8c-39.1,17.2-68.2,48.8-94.7,81.3
			c-13.8,16.9-26.9,34.6-37.9,53.5c-11.5,19.7-18.9,40.5-25.1,62.4c-30.5,107.9-21.7,219.6-6,329.1c8,56,18.5,111.4,29.8,166.8
			c10.9,53.6,21.3,108,21.5,162.8c0.1,27.3-2.2,54.9-8.4,81.5c-5.6,24.2-14.4,47.5-24.8,70c-20.2,44.2-45.8,85.8-64.3,130.9
			c-17.5,42.8-27.4,89.4-18.8,135.5c7.6,40.8,28.5,78.4,56.1,109c28.9,32,65.1,57.2,104.4,74.7c47.4,21.1,100,29.8,151.5,32.2
			c113.5,5.2,225.3-20.8,338.6-22.1c6.2-0.1,12.4-0.1,18.6,0c17.3,0.9,34.6,2.8,51.7,5.1c27,3.5,53.8,8.3,80.5,13.7
			c3.1,0.9,6.2,1.9,9.3,2.9c2.1,0.7,4.1,0.7,5.8,0.2c8.5,1.8,16.9,3.7,25.4,5.6c78.2,17.6,155.3,39.6,232.9,59.9
			c40.4,10.5,80.8,19.4,122.6,22c47.2,3,95.1-0.6,140.9-12.2c45.3-11.5,88.3-30.6,126.5-57.6c34.4-24.4,61.8-57.6,81.9-94.5
			C1768.9,1586.6,1784.1,1496.5,1784.1,1409.5z"/>
		<path class="st1" d="M1813.9,1250.5c-13.2-110.5-48.3-217.4-57-328.5c-8.7-112.3,9.9-224.5,4.3-336.9
			c-4.2-85.1-25.5-171.3-75.5-241.6c-22.7-32-51.3-60-85.4-79.7c-40.4-23.3-87.1-32.7-133.5-30.4c-107.4,5.3-199.9,64.1-298,101
			c-47.2,17.7-95.7,29-146.2,29.5c-46.7,0.5-93-7-138.3-18c-94.3-22.7-184.5-59.7-279.2-80.8c-85.3-19-184.5-28.6-263.2,17.7
			c-36,21.2-60.6,55.3-82.7,90c-11.5,18.1-22.2,36.8-30.7,56.4c-8.9,20.5-13.7,41.6-17.2,63.6c-17.2,108.5,4.4,216.1,32.3,320.8
			C258,867.5,274.6,920,292,972.7c16.8,50.9,33.2,102.5,39.8,155.9c3.3,26.6,4.2,53.6,1.3,80.3c-2.7,24.2-8.5,47.9-16,71
			c-14.5,45.3-34.6,88.8-47.3,134.7c-12.1,43.7-16.3,90.1-2.5,134c12.2,38.8,36.8,73,67.2,99.6c31.8,27.8,69.9,48.1,110.2,60.5
			c48.6,15,100.7,17.4,151.1,13.7c111-8.1,216.8-46.4,326.8-60.7c6-0.8,12.1-1.5,18.1-2.1c17-1.1,34-1.2,50.9-1
			c26.6,0.3,53.3,1.8,79.8,4c3.1,0.6,6.3,1.1,9.4,1.8c2.2,0.4,4.1,0.2,5.7-0.5c8.5,0.8,16.9,1.6,25.3,2.5
			c78.1,8.1,155.7,20.5,233.5,31.2c40.5,5.6,80.9,9.5,121.8,7.2c46.2-2.6,92.4-11.6,135.6-28.2c42.7-16.4,82.4-40,116.3-70.7
			c30.7-27.7,53.4-63.2,68.7-101.4C1819.7,1424.5,1824,1335.2,1813.9,1250.5z"/>
		<g>
			<path class="st2" d="M1212.3,683.5c-0.7,0-1.5-0.1-2.2-0.4c0,0-0.3-0.1-0.7-0.3c-1.7-0.7-3-2.1-3.5-3.8l-6.8-22.8
				c-0.5-1.6-0.3-3.4,0.6-4.8l9-14.9l-19.8-25.1c-2-2.6-1.6-6.3,0.9-8.3l10.7-8.9l-11-10.5c-1.2-1.2-1.9-2.8-1.8-4.5
				c0.1-1.7,0.8-3.3,2.1-4.4l16.5-14v-13.9c0-31.3,26.1-56.7,58.2-56.7c32.1,0,58.2,25.4,58.2,56.7c0,3.2-0.3,6.5-0.9,9.8
				c-4.7,36.5-24.7,70-58,96.8c-25,20.1-48.3,29.3-49.3,29.7C1213.8,683.4,1213,683.5,1212.3,683.5z M1211.4,655.3l4.2,14.2
				c8.2-3.8,24.3-12.3,40.9-25.7c31.1-25.2,49.1-55,53.3-88.8c0-0.1,0-0.2,0.1-0.3c0.5-2.6,0.7-5.2,0.7-7.8
				c0-24.6-20.7-44.7-46.1-44.7c-25.4,0-46.1,20-46.1,44.7v16.6c0,1.8-0.8,3.4-2.1,4.6l-13.6,11.5l11,10.6c1.2,1.2,1.9,2.8,1.8,4.5
				s-0.8,3.3-2.2,4.4l-11.3,9.4l18.8,23.8c1.6,2,1.7,4.7,0.4,6.8L1211.4,655.3z M1212.3,563.5L1212.3,563.5L1212.3,563.5z
				 M1176.9,683.3c-0.8,0-1.6-0.1-2.3-0.5c-9.8-4-95.8-41.8-106.5-126.2c-0.6-3.3-0.9-6.6-0.9-9.8c0-31.3,26.1-56.7,58.2-56.7
				s58.2,25.4,58.2,56.7v16.6c0,1.8-0.8,3.4-2.1,4.6l-13.6,11.5l11,10.6c1.2,1.2,1.9,2.8,1.8,4.5c-0.1,1.7-0.8,3.3-2.2,4.4
				l-11.3,9.4l18.8,23.8c1.6,2,1.7,4.7,0.4,6.8l-9.8,16.2l6,20.2c0.7,2.2,0,4.6-1.7,6.2C1179.8,682.7,1178.4,683.3,1176.9,683.3z
				 M1125.4,502.2c-25.4,0-46.1,20-46.1,44.7c0,2.6,0.2,5.2,0.7,7.8c0,0.1,0,0.2,0.1,0.3c4.1,32.6,21,61.6,50.2,86.2
				c13.9,11.7,27.6,19.9,37.1,24.9l-2.9-9.9c-0.5-1.6-0.3-3.4,0.6-4.8l9-14.9l-19.8-25.1c-2-2.6-1.6-6.3,0.9-8.3l10.7-8.9l-11-10.5
				c-1.2-1.2-1.9-2.8-1.9-4.5c0.1-1.7,0.8-3.3,2.1-4.4l16.5-14v-13.9C1171.6,522.2,1150.9,502.2,1125.4,502.2z"/>
			<g>
				<path class="st3" d="M1355.3,1057.4c-5.8,0-24.5-2.2-24.5-31c0-10.8,3.9-28.4,22.8-51.4c0.4-0.5,1.1-0.8,1.8-0.8
					s1.4,0.3,1.8,0.8c18.8,23,22.8,40.6,22.8,51.4C1379.8,1055.2,1361,1057.4,1355.3,1057.4z M1355.3,980.1
					c-16.4,20.8-19.9,36.6-19.9,46.3c0,23,12.5,26.4,19.9,26.4c7.4,0,19.9-3.4,19.9-26.4C1375.2,1016.7,1371.7,1000.9,1355.3,980.1z
					"/>
				<path class="st3" d="M1440.1,1132.6c-8.8,0-37.4-3.4-37.4-46.6c0-15.6,5.7-41.2,32.8-74.3c1.1-1.4,2.8-2.2,4.7-2.2
					c1.8,0,3.5,0.8,4.7,2.2c27.1,33.1,32.8,58.7,32.8,74.3C1477.5,1129.3,1448.8,1132.6,1440.1,1132.6z M1440.1,1025.2
					c-20.8,27.4-25.4,48-25.4,60.8c0,22.3,9,34.6,25.4,34.6c16.4,0,25.4-12.3,25.4-34.6C1465.4,1073.3,1460.9,1052.6,1440.1,1025.2z
					"/>
			</g>
			<path class="st4" d="M1514.2,705.7h-87.8c-17,0-30.9-13.9-30.9-30.9c0-17,13.9-30.9,30.9-30.9c1,0,2,0,3,0.1c0-0.2,0-0.4,0-0.6
				c0-22.4,18.2-40.6,40.6-40.6c20.6,0,37.8,15.5,40.3,35.7c1.4-0.2,2.7-0.2,4.1-0.2c13.3,0,25.3,7.9,30.7,19.9
				c2.2-0.7,4.4-1.1,6.7-1.1c11.8,0,21.4,9.6,21.4,21.4c0,11.8-9.6,21.4-21.4,21.4c-4.8,0-9.4-1.6-13.2-4.5
				C1532.1,701.9,1523.4,705.7,1514.2,705.7z M1426.3,648.5c-14.5,0-26.3,11.8-26.3,26.3c0,14.5,11.8,26.3,26.3,26.3h87.8
				c8.6,0,16.8-3.8,22.3-10.5c0.4-0.5,1-0.8,1.7-0.8c0.7,0,1.3,0.2,1.7,0.7c3.2,3.1,7.3,4.8,11.8,4.8c9.3,0,16.8-7.5,16.8-16.8
				c0-9.3-7.5-16.8-16.8-16.8c-2.5,0-4.8,0.5-7,1.5c-0.6,0.3-1.3,0.3-1.9,0c-0.6-0.2-1.1-0.7-1.3-1.3c-4.2-11.4-15.2-19-27.3-19
				c-1.9,0-3.8,0.2-5.7,0.6c-0.7,0.1-1.3,0-1.9-0.4c-0.5-0.4-0.9-1-0.9-1.7c-1.1-19-16.8-33.9-35.9-33.9
				c-19.8,0-35.9,16.1-35.9,35.9c0,1,0,2,0.1,3.1c0.1,0.7-0.2,1.4-0.8,1.9c-0.5,0.5-1.3,0.7-2,0.6
				C1429.6,648.6,1428,648.5,1426.3,648.5z"/>
			<g>
				<path class="st4" d="M676.7,746.9H563.4c-11.8,0-23.1-4.5-31.7-12.4c-4.9,3.2-10.7,4.9-16.7,4.9c-16.9,0-30.7-13.8-30.7-30.7
					c0-16.9,13.8-30.7,30.7-30.7c2.4,0,4.8,0.3,7.1,0.8c7.9-15.2,23.9-25,41.3-25c0.9,0,1.8,0,2.7,0.1c4.5-26.1,27.4-45.8,54.5-45.8
					c29.7,0,54,23.5,55.3,53c0.3,0,0.6,0,0.8,0c23.6,0,42.9,19.2,42.9,42.9C719.6,727.6,700.3,746.9,676.7,746.9z M532.3,720.3
					c0.1,0,0.2,0,0.3,0c1.7,0.1,3.2,0.9,4.3,2.2c6.6,7.9,16.2,12.4,26.5,12.4h113.3c17,0,30.9-13.8,30.9-30.9
					c0-17-13.8-30.9-30.9-30.9c-1.9,0-3.9,0.2-5.9,0.6c-1.9,0.4-3.8-0.2-5.2-1.4c-1.4-1.3-2.1-3.1-2-5c0.1-1.4,0.2-2.6,0.2-3.8
					c0-23.9-19.4-43.3-43.3-43.3c-22.9,0-41.9,17.9-43.2,40.8c-0.1,1.7-0.9,3.3-2.3,4.4c-1.4,1.1-3.1,1.5-4.9,1.1
					c-2.2-0.4-4.5-0.7-6.8-0.7c-14.4,0-27.4,9.1-32.4,22.6c-0.6,1.6-1.8,2.8-3.3,3.5c-1.6,0.6-3.3,0.6-4.8-0.1
					c-2.5-1.1-5.1-1.7-7.8-1.7c-10.3,0-18.6,8.4-18.6,18.6c0,10.3,8.4,18.6,18.6,18.6c4.9,0,9.5-1.9,13-5.3
					C529.2,720.9,530.7,720.3,532.3,720.3z"/>
				<path class="st4" d="M538,782c-1.5,0-3.1-0.6-4.3-1.8l-17.9-17.9c-2.3-2.3-2.3-6.2,0-8.5c2.3-2.3,6.2-2.3,8.5,0l17.9,17.9
					c2.3,2.3,2.3,6.2,0,8.5C541,781.4,539.5,782,538,782z"/>
				<path class="st4" d="M565.7,782c-1.5,0-3.1-0.6-4.3-1.8l-17.9-17.9c-2.3-2.3-2.3-6.2,0-8.5c2.3-2.3,6.2-2.3,8.5,0l17.9,17.9
					c2.3,2.3,2.3,6.2,0,8.5C568.7,781.4,567.2,782,565.7,782z"/>
				<path class="st4" d="M593.4,782c-1.5,0-3.1-0.6-4.3-1.8l-17.9-17.9c-2.3-2.3-2.3-6.2,0-8.5c2.3-2.3,6.2-2.3,8.5,0l17.9,17.9
					c2.3,2.3,2.3,6.2,0,8.5C596.4,781.4,594.9,782,593.4,782z"/>
				<path class="st4" d="M621.1,782c-1.5,0-3.1-0.6-4.3-1.8l-17.9-17.9c-2.3-2.3-2.3-6.2,0-8.5c2.3-2.3,6.2-2.3,8.5,0l17.9,17.9
					c2.3,2.3,2.3,6.2,0,8.5C624.1,781.4,622.6,782,621.1,782z"/>
				<path class="st4" d="M648.7,782c-1.5,0-3.1-0.6-4.3-1.8l-17.9-17.9c-2.3-2.3-2.3-6.2,0-8.5c2.3-2.3,6.2-2.3,8.5,0l17.9,17.9
					c2.3,2.3,2.3,6.2,0,8.5C651.8,781.4,650.3,782,648.7,782z"/>
				<path class="st4" d="M676.4,782c-1.5,0-3.1-0.6-4.3-1.8l-17.9-17.9c-2.3-2.3-2.3-6.2,0-8.5c2.3-2.3,6.2-2.3,8.5,0l17.9,17.9
					c2.3,2.3,2.3,6.2,0,8.5C679.5,781.4,678,782,676.4,782z"/>
				<path class="st4" d="M704.1,782c-1.5,0-3.1-0.6-4.3-1.8L682,762.3c-2.3-2.3-2.3-6.2,0-8.5c2.3-2.3,6.2-2.3,8.5,0l17.9,17.9
					c2.3,2.3,2.3,6.2,0,8.5C707.2,781.4,705.7,782,704.1,782z"/>
			</g>
			<path class="st5" d="M1261.8,897.4c-1.8,0-3.6-0.8-4.7-2.3c-1.9-2.4-1.7-5.8,0.5-7.9l53.9-53.9h-26.7c-2.4,0-4.6-1.5-5.6-3.7
				c-0.9-2.2-0.4-4.8,1.3-6.6l57.7-57.7c1.1-1.1,2.6-1.7,4.1-1.8l55.2-1.4c2.5-0.1,4.7,1.4,5.7,3.6c1,2.3,0.5,4.9-1.3,6.6
				l-32.9,32.9h26.8c2.7,0,5.1,1.8,5.8,4.4c0.7,2.6-0.4,5.4-2.7,6.8l-134.1,80.1C1263.9,897.1,1262.9,897.4,1261.8,897.4z
				 M1299.3,821.2h26.7c2.4,0,4.6,1.5,5.6,3.7c0.9,2.2,0.4,4.8-1.3,6.6l-30,30l73.8-44.1h-19.6c-2.4,0-4.6-1.5-5.6-3.7
				c-0.9-2.2-0.4-4.8,1.3-6.6l32.5-32.5l-37.8,0.9L1299.3,821.2z"/>
			<path class="st3" d="M612.1,987.5c-1.1,0-2.1-0.3-3.1-0.9l-147.4-88c-2.3-1.4-3.4-4.2-2.7-6.8c0.7-2.6,3.1-4.4,5.8-4.4h30.9
				l-37.2-37.2c-1.7-1.7-2.2-4.4-1.3-6.6c1-2.3,3.2-3.7,5.7-3.6l60.7,1.5c1.5,0,3,0.7,4.1,1.8l63.4,63.4c1.7,1.7,2.2,4.3,1.3,6.6
				c-0.9,2.2-3.1,3.7-5.6,3.7h-30.8l60.3,60.3c2.1,2.1,2.4,5.6,0.5,7.9C615.7,986.7,613.9,987.5,612.1,987.5z M486.5,899.5l87.2,52
				l-36.3-36.3c-1.7-1.7-2.2-4.3-1.3-6.6c0.9-2.2,3.1-3.7,5.6-3.7h30.8l-51.5-51.5l-43.3-1.1l36.8,36.8c1.7,1.7,2.2,4.3,1.3,6.6
				c-0.9,2.2-3.1,3.7-5.6,3.7H486.5z"/>
			<g>
				<path class="st6" d="M838.1,700.4c-8.8,0-16.4-3.2-22.7-9.5c-6.3-6.3-9.5-13.9-9.5-22.7c0-8.8,3.2-16.4,9.5-22.7
					c6.3-6.3,13.9-9.5,22.7-9.5c8.8,0,16.4,3.2,22.7,9.5c6.3,6.3,9.5,14,9.5,22.7c0,8.8-3.2,16.4-9.5,22.7
					C854.5,697.2,846.8,700.4,838.1,700.4z M838.1,648c-5.5,0-10.2,2-14.2,6c-4,4-6,8.7-6,14.2c0,5.5,2,10.2,6,14.2
					c4,4,8.7,6,14.2,6c5.5,0,10.2-2,14.2-6c4-4,6-8.7,6-14.2c0-5.5-2-10.2-6-14.2C848.3,649.9,843.6,648,838.1,648z M852,618.1
					h-28.1c-3.1,0-5.7-2.4-6-5.5l-9.7-116.8c-0.6-7-0.9-14-0.9-21v-10.5c0-16.9,13.7-30.6,30.6-30.6c16.9,0,30.6,13.7,30.6,30.6
					v10.5c0,7-0.3,14-0.9,21L858,612.6C857.7,615.7,855.1,618.1,852,618.1z M829.4,606h17.1l9.2-111.2c0.6-6.6,0.8-13.3,0.8-20
					v-10.5c0-10.3-8.3-18.6-18.6-18.6s-18.6,8.3-18.6,18.6v10.5c0,6.6,0.3,13.4,0.8,20L829.4,606z"/>
			</g>
			<g>
				<path class="st4" d="M1484.7,913.4c-1.4,0-2.9-0.2-4.3-0.6c-4-1.2-7.1-3.6-9.2-7.4c-2.1-3.7-2.5-7.7-1.4-11.7
					c1.2-4,3.6-7.1,7.4-9.2c3.7-2.1,7.7-2.5,11.7-1.4c4,1.2,7.1,3.6,9.2,7.4c2.1,3.7,2.5,7.7,1.4,11.7c-1.2,4-3.6,7.1-7.4,9.2
					C1489.7,912.7,1487.2,913.4,1484.7,913.4z M1484.6,887.1c-1.8,0-3.5,0.5-5.2,1.4c-2.7,1.5-4.4,3.6-5.2,6.4
					c-0.8,2.9-0.5,5.5,1,8.2c1.5,2.7,3.6,4.4,6.4,5.2l0,0c2.8,0.8,5.5,0.5,8.2-1c2.7-1.5,4.4-3.6,5.2-6.4c0.8-2.8,0.5-5.5-1-8.2
					c-1.5-2.7-3.6-4.4-6.4-5.2C1486.6,887.3,1485.6,887.1,1484.6,887.1z M1499.1,875.2c-0.2,0-0.4,0-0.6-0.1l-13.5-3.9
					c-1.2-0.3-1.9-1.5-1.6-2.7l11.5-57.4c0.7-3.4,1.5-6.8,2.5-10.1l1.5-5c1.1-3.8,3.6-6.9,7-8.7c3.4-1.9,7.4-2.3,11.1-1.3l0,0
					c3.8,1.1,6.9,3.6,8.7,7c1.9,3.4,2.3,7.4,1.3,11.1l-1.5,5c-1,3.3-2.1,6.7-3.3,9.9l-20.8,54.7
					C1500.9,874.7,1500,875.2,1499.1,875.2z M1488.3,867.4l9.4,2.7l20.1-52.8c1.2-3.1,2.3-6.3,3.2-9.5l1.5-5
					c0.7-2.6,0.4-5.3-0.9-7.6c-1.3-2.3-3.4-4-6-4.8c-2.6-0.7-5.3-0.4-7.6,0.9c-2.3,1.3-4,3.4-4.8,6l-1.5,5c-0.9,3.2-1.7,6.5-2.4,9.8
					L1488.3,867.4z"/>
			</g>
			<g>
				<g>
					<path class="st3" d="M986.2,710.9c-3.1,0-5.7-2.6-5.7-5.7v-2.3c-7-1-13.6-3.6-19.6-7.6c-2-1.3-3.3-3.4-3.6-5.7
						c-0.3-2.3,0.3-4.7,1.9-6.5c2.8-3.3,7.5-3.9,11.1-1.5c3.4,2.3,6.8,4,10.3,4.9v-15.8c-7.5-1.9-12.9-4.4-16.6-7.5
						c-4.2-3.5-6.4-8.8-6.4-15.5c0-6.7,2.4-12.3,7.1-16.6c4.2-3.8,9.5-6.1,15.9-6.8c0.1-3,2.6-5.5,5.7-5.5c3.1,0,5.6,2.5,5.7,5.6
						c5.1,0.6,10.1,2.1,14.8,4.5c2.1,1.1,3.7,3,4.3,5.3c0.6,2.3,0.1,4.8-1.3,6.7c-2.4,3.3-6.9,4.4-10.5,2.5
						c-2.3-1.2-4.8-2.1-7.4-2.7v15.2c7.8,2,13.5,4.5,17.3,7.8c4.3,3.7,6.5,9,6.5,15.8c0,6.8-2.5,12.5-7.3,16.8
						c-4.3,3.8-9.8,6.1-16.5,6.7v2.1C991.9,708.3,989.3,710.9,986.2,710.9z M965.4,684.8c-1,0-2.1,0.4-2.8,1.3
						c-0.7,0.8-1,1.8-0.8,2.9c0.2,1.1,0.7,2,1.6,2.6c5.9,4,12.5,6.3,19.6,7.1c1.2,0.1,2.1,1.1,2.1,2.3v4.3c0,0.6,0.5,1.1,1.1,1.1
						s1.1-0.5,1.1-1.1v-4.2c0-1.2,1-2.2,2.2-2.3c6.6-0.3,11.9-2.3,15.9-5.8c3.9-3.4,5.8-7.8,5.8-13.3c0-5.5-1.6-9.5-4.9-12.3
						c-3.5-2.9-9-5.4-16.6-7.1h0c-1.3,0-2.3-1-2.3-2.3V638c0-0.7,0.3-1.3,0.8-1.7c0.5-0.4,1.2-0.6,1.8-0.5c4,0.6,7.9,1.8,11.5,3.7
						c1.6,0.8,3.5,0.3,4.6-1.1c0.6-0.9,0.8-1.9,0.5-2.9c-0.3-1-0.9-1.8-1.9-2.3c-4.9-2.4-10-3.8-15.2-4.2c-1.2-0.1-2.1-1.1-2.1-2.3
						v-2c0-0.6-0.5-1.1-1.1-1.1s-1.1,0.5-1.1,1.1v1.9c0,1.2-1,2.2-2.2,2.3c-6.2,0.3-11.4,2.3-15.2,5.7c-3.8,3.4-5.6,7.8-5.6,13.2
						c0,5.4,1.5,9.3,4.7,12c3.4,2.8,9,5.2,16.5,7c1,0.2,1.8,1.2,1.8,2.2v20.5c0,0.7-0.3,1.3-0.8,1.8c-0.5,0.4-1.2,0.6-1.9,0.5
						c-5.1-0.8-10.1-2.9-14.9-6.2C966.9,685,966.2,684.8,965.4,684.8z M989.6,692c-0.6,0-1.1-0.2-1.5-0.6c-0.5-0.4-0.8-1.1-0.8-1.7
						v-19c0-0.7,0.3-1.4,0.9-1.9c0.6-0.4,1.3-0.6,2-0.4c4.6,1.4,7.7,2.9,9.6,4.6c2,1.9,3.1,4.4,3.1,7.5c0,3.2-1.3,5.8-3.8,7.9l0,0
						c-2.3,1.9-5.4,3.1-9.2,3.5C989.7,692,989.6,692,989.6,692z M991.9,673.9v13c1.7-0.4,3.1-1.1,4.2-2l0,0c1.4-1.2,2.1-2.6,2.1-4.3
						c0-1.8-0.5-3.2-1.6-4.2C996,675.8,994.6,674.9,991.9,673.9z M982.8,658.2c-0.2,0-0.5,0-0.7-0.1c-4.3-1.4-7.2-2.9-8.9-4.5
						c-1.9-1.8-2.8-4.3-2.8-7.2c0-3,1.2-5.6,3.5-7.6c2.2-1.9,5.1-3,8.8-3.4c0.6-0.1,1.3,0.2,1.8,0.6c0.5,0.4,0.8,1.1,0.8,1.7v18.3
						c0,0.7-0.4,1.4-1,1.9C983.8,658.1,983.3,658.2,982.8,658.2z M980.5,640.4c-1.5,0.4-2.7,1-3.6,1.8c0,0,0,0,0,0
						c-1.3,1.1-1.9,2.5-1.9,4.2c0,1.7,0.5,3,1.4,3.9c0.6,0.6,1.7,1.4,4.1,2.3V640.4z M975.4,640.4L975.4,640.4L975.4,640.4z"/>
				</g>
				<path class="st3" d="M986.3,713.9L986.3,713.9c-3.2,0-5.7-2.6-5.7-5.7v-87.6c0-3.2,2.6-5.7,5.7-5.7l0,0c3.2,0,5.7,2.6,5.7,5.7
					v87.6C992,711.3,989.5,713.9,986.3,713.9z"/>
			</g>
			<g>
				<g>
					<path class="st6" d="M538.5,1070.7c-2,0-3.9-0.7-5.4-2c-1.8-1.5-2.8-3.7-2.9-6.1c-0.1-4.3,3-7.9,7.3-8.4
						c4.1-0.5,7.8-1.5,11-3.2l-10.5-11.9c-6.9,3.5-12.6,5.2-17.5,5.4c-5.5,0.1-10.6-2.4-15.1-7.4c-4.5-5.1-6.4-10.8-5.7-17.2
						c0.6-5.6,3.1-10.8,7.4-15.6c-0.9-1.1-1.3-2.5-1.3-3.9c0.1-1.5,0.8-2.9,1.9-3.9c1.1-1,2.6-1.5,4.1-1.4c1.5,0.1,2.8,0.7,3.8,1.8
						c4.2-2.9,9-5.1,14.1-6.4c2.3-0.6,4.8-0.2,6.7,1.2c2,1.4,3.3,3.5,3.5,5.9c0.4,4.1-2.2,7.9-6.2,8.8c-2.6,0.6-5,1.6-7.3,2.8
						l10,11.4c7.1-3.7,13.1-5.5,18.2-5.6c5.7-0.1,10.8,2.5,15.4,7.6c4.5,5.1,6.4,11,5.6,17.4c-0.7,5.7-3.4,11.1-7.9,16l1.4,1.6
						c2.1,2.4,1.8,6-0.5,8c-1.1,1-2.6,1.5-4.1,1.4c-1.5-0.1-2.9-0.8-3.9-1.9l0,0c0,0,0,0,0,0l-1.5-1.7c-6,3.9-12.6,6.3-19.7,7.3
						C539.3,1070.7,538.9,1070.7,538.5,1070.7z M538.6,1033.9c0.6,0,1.3,0.3,1.7,0.8l13.5,15.4c0.4,0.5,0.6,1.2,0.6,1.9
						c-0.1,0.7-0.5,1.3-1,1.6c-4.3,2.8-9.5,4.5-15.3,5.2c-1.9,0.2-3.3,1.8-3.3,3.7c0,1.1,0.5,2,1.3,2.7c0.8,0.7,1.8,1,2.9,0.8
						c7.1-1,13.6-3.5,19.4-7.7c1-0.7,2.3-0.5,3.1,0.4l2.9,3.2c0,0,0,0,0,0c0.3,0.3,0.6,0.3,0.7,0.4c0.2,0,0.5,0,0.8-0.3
						c0.4-0.4,0.5-1.1,0.1-1.5l-2.8-3.2c-0.8-0.9-0.8-2.3,0.1-3.2c4.7-4.6,7.5-9.6,8.1-14.8c0.6-5.1-0.8-9.7-4.5-13.8
						c-3.6-4.1-7.5-6.1-11.8-6c-4.5,0.1-10.3,2-17.2,5.6l0,0c-1,0.8-2.4,0.8-3.3-0.2l-13.1-14.9c-0.4-0.5-0.6-1.2-0.6-1.8
						c0.1-0.7,0.5-1.3,1-1.6c3.4-2.2,7.1-3.8,11-4.8c1.7-0.4,2.9-2.1,2.7-3.9c-0.1-1-0.7-2-1.5-2.6c-0.9-0.6-1.9-0.8-2.9-0.5
						c-5.2,1.4-10,3.7-14.2,6.9c-1,0.7-2.3,0.6-3.1-0.3l-1.3-1.5c-0.3-0.3-0.6-0.3-0.7-0.4c-0.2,0-0.5,0-0.8,0.3
						c-0.3,0.3-0.3,0.6-0.4,0.7c0,0.2,0,0.5,0.3,0.8l1.3,1.4c0.8,0.9,0.8,2.3-0.1,3.2c-4.5,4.4-7,9.2-7.6,14.3
						c-0.6,5.1,0.9,9.5,4.5,13.6c3.6,4.1,7.4,6,11.5,5.9c4.4-0.1,10.2-2,17-5.7C537.9,1034,538.2,1033.9,538.6,1033.9z
						 M557.4,1049.7C557.4,1049.7,557.4,1049.7,557.4,1049.7c-0.7,0-1.3-0.3-1.7-0.8l-12.6-14.2c-0.5-0.5-0.7-1.3-0.5-2
						c0.2-0.7,0.6-1.3,1.3-1.6c4.4-2,7.7-3,10.2-2.9c2.8,0.1,5.2,1.3,7.3,3.6c2.1,2.4,2.9,5.2,2.4,8.4c0,0,0,0,0,0
						c-0.5,3-2,5.9-4.6,8.7C558.7,1049.4,558.1,1049.7,557.4,1049.7z M548.7,1034l8.6,9.8c1-1.5,1.6-2.9,1.9-4.3
						c0.3-1.8-0.1-3.3-1.3-4.6c-1.2-1.4-2.5-2-3.9-2.1C553.1,1032.7,551.4,1033,548.7,1034z M561.5,1039.9L561.5,1039.9
						L561.5,1039.9z M521.7,1031.2c-0.2,0-0.3,0-0.4,0c-2.6-0.1-4.9-1.3-6.9-3.6c-2-2.3-2.8-5-2.4-8c0.4-2.9,1.8-5.7,4.3-8.3
						c0.4-0.5,1.1-0.8,1.7-0.7c0.6,0,1.3,0.3,1.7,0.8l12.1,13.7c0.5,0.6,0.7,1.3,0.5,2c-0.2,0.7-0.7,1.3-1.3,1.6
						C527,1030.3,524,1031.2,521.7,1031.2z M518,1016.4c-0.8,1.3-1.4,2.5-1.5,3.7c-0.2,1.7,0.2,3.1,1.3,4.4c1.1,1.3,2.3,2,3.7,2
						c0.8,0,2.2-0.1,4.6-1L518,1016.4z"/>
				</g>
				<path class="st6" d="M571,1067.7L571,1067.7c-2.4,2.1-6,1.9-8.1-0.5l-57.9-65.7c-2.1-2.4-1.9-6,0.5-8.1l0,0
					c2.4-2.1,6-1.9,8.1,0.5l57.9,65.7C573.6,1062,573.3,1065.6,571,1067.7z"/>
			</g>
			<path class="st3" d="M742.5,903.8c-0.2-10.2-9.2-17.3-18.6-19.2c-12.5-2.5-26.9,2.4-38.3-4.5c-10.2-6.2-7.8-20.5-16.8-27.9
				c-8-6.5-19.4-5.6-28.9-4.4c-2.9,0.4-3,5,0,4.6c9.4-1.2,22.5-2.6,28.7,6.3c5.5,7.8,4.5,18,12.8,24.1c8.1,6,18.6,5.7,28.1,5.5
				c10.5-0.2,28.1,1.2,28.4,15.4C738,906.8,742.6,906.8,742.5,903.8L742.5,903.8z"/>
			<path class="st3" d="M1187,821.4c-4.5-8.5,1.8-18,8.3-23.5c6.3-5.4,13.8-9,19.7-14.9c5.9-5.9,8.2-13.1,10-21
				c1.9-8.3,6.8-23.3,18.4-19.3c2.8,1,4-3.5,1.2-4.5c-9-3.1-17.4,3.9-20.9,11.8c-4.7,10.6-3.8,22.1-12.9,30.6
				c-7.4,6.9-17,10.9-23.4,18.8c-5.6,6.9-8.7,15.9-4.3,24.2C1184.3,826.3,1188.3,824,1187,821.4L1187,821.4z"/>
			<path class="st3" d="M1451.5,962c8.6-5.4,18.5-8.1,28.7-7.7c10.5,0.4,19.6,5.4,29.6,7.9c16.1,4,32.4-3.6,38.7-19.1
				c1.1-2.8-3.3-4-4.5-1.2c-3.3,8.2-10.6,14.3-19.2,16.3c-9.6,2.3-18.7-2-27.5-5c-16.2-5.6-33.5-4.2-48.2,4.9
				C1446.7,959.6,1449,963.6,1451.5,962L1451.5,962z"/>
			<path class="st3" d="M734.8,632.6c4.6-13.3-0.3-27.5-11.7-35.7c-6.8-4.9-15-7.7-21.5-13.1c-6.2-5.2-11.1-15-4.5-21.9
				c2.1-2.1-1.2-5.4-3.3-3.3c-4.5,4.7-5.5,11.4-3.4,17.5c2.3,7,8.3,11.8,14.4,15.5c7.5,4.5,16.3,7.7,21.8,14.8
				c5.5,7.1,6.7,16.5,3.7,24.9C729.4,634.1,733.8,635.4,734.8,632.6L734.8,632.6z"/>
			<path class="st5" d="M747.7,852.8c-11.8,0-21.3-9.6-21.3-21.3c0-11.8,9.6-21.3,21.3-21.3s21.3,9.6,21.3,21.3
				C769.1,843.2,759.5,852.8,747.7,852.8z M747.7,819.3c-6.7,0-12.1,5.4-12.1,12.1c0,6.7,5.4,12.1,12.1,12.1
				c6.7,0,12.1-5.4,12.1-12.1C759.8,824.8,754.4,819.3,747.7,819.3z"/>
			<path class="st2" d="M446,653.3c-11.8,0-21.3-9.6-21.3-21.3s9.6-21.3,21.3-21.3c11.8,0,21.3,9.6,21.3,21.3S457.7,653.3,446,653.3
				z M446,619.8c-6.7,0-12.1,5.4-12.1,12.1c0,6.7,5.4,12.1,12.1,12.1s12.1-5.4,12.1-12.1C458.1,625.3,452.6,619.8,446,619.8z"/>
			<path class="st5" d="M1013.4,547.8c-11.8,0-21.3-9.6-21.3-21.3c0-11.8,9.6-21.3,21.3-21.3c11.8,0,21.3,9.6,21.3,21.3
				C1034.8,538.3,1025.2,547.8,1013.4,547.8z M1013.4,514.4c-6.7,0-12.1,5.4-12.1,12.1c0,6.7,5.4,12.1,12.1,12.1
				c6.7,0,12.1-5.4,12.1-12.1C1025.5,519.8,1020.1,514.4,1013.4,514.4z"/>
			<path class="st3" d="M1403.1,581.3c-11.8,0-21.3-9.6-21.3-21.3s9.6-21.3,21.3-21.3c11.8,0,21.3,9.6,21.3,21.3
				S1414.8,581.3,1403.1,581.3z M1403.1,547.8c-6.7,0-12.1,5.4-12.1,12.1c0,6.7,5.4,12.1,12.1,12.1c6.7,0,12.1-5.4,12.1-12.1
				C1415.2,553.3,1409.7,547.8,1403.1,547.8z"/>
			<path class="st3" d="M1414.4,881.2c-11.8,0-21.3-9.6-21.3-21.3c0-11.8,9.6-21.3,21.3-21.3c11.8,0,21.3,9.6,21.3,21.3
				C1435.8,871.6,1426.2,881.2,1414.4,881.2z M1414.4,847.8c-6.7,0-12.1,5.4-12.1,12.1c0,6.7,5.4,12.1,12.1,12.1
				c6.7,0,12.1-5.4,12.1-12.1C1426.5,853.2,1421.1,847.8,1414.4,847.8z"/>
			<path class="st2" d="M1381,1207.2c-11.8,0-21.3-9.6-21.3-21.3c0-11.8,9.6-21.3,21.3-21.3c11.8,0,21.3,9.6,21.3,21.3
				C1402.3,1197.7,1392.8,1207.2,1381,1207.2z M1381,1173.8c-6.7,0-12.1,5.4-12.1,12.1c0,6.7,5.4,12.1,12.1,12.1
				c6.7,0,12.1-5.4,12.1-12.1C1393.1,1179.2,1387.7,1173.8,1381,1173.8z"/>
			<path class="st3" d="M512.3,1190.5c-11.8,0-21.3-9.6-21.3-21.3c0-11.8,9.6-21.3,21.3-21.3s21.3,9.6,21.3,21.3
				C533.6,1181,524.1,1190.5,512.3,1190.5z M512.3,1157.1c-6.7,0-12.1,5.4-12.1,12.1c0,6.7,5.4,12.1,12.1,12.1
				c6.7,0,12.1-5.4,12.1-12.1C524.4,1162.5,519,1157.1,512.3,1157.1z"/>
		</g>
		<g>
			<defs>
				<path id="SVGID_1_" d="M1874.7,1339.3c-9.7-122.9-43.9-242.9-48.5-366.3c-4.7-124.8,21-248.2,19.8-372.9
					c-0.9-94.4-20.7-190.8-72.9-270.9c-23.7-36.4-54.1-68.7-91-92c-43.7-27.6-95-40.1-146.5-39.6c-119.1,1.1-224.2,62.1-334.5,98.6
					c-53,17.5-107.3,27.8-163.3,26.2c-51.7-1.5-102.7-11.9-152.4-26C782.1,267,683.9,222,580,194.4c-93.6-24.9-203.1-39.9-292.3,7.9
					c-40.8,21.9-69.6,58.6-95.6,96c-13.5,19.5-26.2,39.8-36.5,61.1c-10.8,22.3-17,45.4-21.8,69.7c-23.8,119.4-4.8,239.5,21.5,356.7
					c13.4,60,29.5,118.9,46.4,178c16.4,57.1,32.2,115,37.1,174.4c2.4,29.6,2.3,59.6-2.1,89c-4,26.7-11.6,52.6-20.8,77.9
					c-18.1,49.6-42.3,96.8-58.4,147.1c-15.3,47.9-22,99.1-8.8,148.3c11.7,43.5,37.5,82.4,70,113.2c34,32.2,75.3,56.3,119.3,71.9
					c53.1,18.8,110.8,23.8,166.8,21.9c123.3-4,242.1-41.7,364.6-52.7c6.7-0.6,13.4-1.1,20.1-1.5c18.8-0.5,37.7,0.1,56.4,1.1
					c29.5,1.5,58.9,4.4,88.3,7.9c3.4,0.8,6.9,1.6,10.3,2.4c2.4,0.6,4.5,0.4,6.3-0.3c9.3,1.2,18.7,2.5,28,3.9
					c30,4.3,60,9.3,89.9,14.5c28.8,7.7,57.6,15.5,86.5,23c40.4,10.5,80.8,19.4,122.6,22c25.4,1.6,51,1.3,76.4-1.2
					c5.5,0.1,11,0.1,16.5,0c51.3-0.8,102.8-8.8,151.5-25.2c48-16.2,93-40.6,132-73.1c35.2-29.3,61.9-67.6,80.6-109.2
					C1873.4,1532.3,1882.2,1433.5,1874.7,1339.3z"/>
			</defs>
			<clipPath id="SVGID_2_">
				<use xlink:href="#SVGID_1_"  style="overflow:visible;"/>
			</clipPath>
			<g class="st7">
				<linearGradient id="SVGID_3_" gradientUnits="userSpaceOnUse" x1="929.863" y1="984.9737" x2="929.863" y2="1699.3633">
					<stop  offset="0" style="stop-color:#180B2D"/>
					<stop  offset="1" style="stop-color:#23103D"/>
				</linearGradient>
				<path class="st8" d="M1394.7,1437.8c-6.1-21.3-17.4-40.1-33.9-54.9c-17.4-15.6-38.2-26.8-55.9-42.1
					c-18.7-16.1-30.6-36.7-37-60.4c-6.4-23.6-8-48.2-10.3-72.5c-8.6-92.9-36.6-190.1-105.8-256.5c-60.7-58.3-158.2-87.1-237.2-50.1
					c-42.2,19.8-72.4,56.5-101.3,91.7c-14.6,17.8-29.2,35.7-45.6,51.9c-15.7,15.6-32.9,29.5-49.9,43.6c-32.3,26.7-66.4,54.8-85,93.4
					c-19.9,41.2-14.1,87-15.7,131.2c-0.8,22.1-3.7,44.8-14.5,64.4c-11.3,20.4-31.1,32.2-46.2,49.2c-7.7,8.7-13,18.6-16,29.8
					c-3.3,12.5-4,25.5-5.8,38.2c-2.8,20.2-10.1,45.5-32.2,51.8c-11.8,3.4-38.5,3.8-40.7-13c-0.1-1.4-1.3-2-2.4-1.8
					c-0.8,0.1-1.5,0.7-1.3,1.8c1,19.1,8,37.5,22.2,50.6c15.5,14.3,36.4,20.2,57.1,21.2c28.1,1.4,55.8-5.4,83.7-6.5
					c23.3-1,46.6,1.3,69.5,5.6c92.3,17.2,177.8,66,272.6,70.5c23.2,1.1,46.5-0.8,69.1-6.5c25.4-6.4,49.6-17.1,73.1-28.5
					c49.1-23.8,99.7-53,156-52.3c14.4,0.2,28.2,3,42.1,6.6c12.6,3.3,25.4,6.9,38.4,7.3c20.4,0.7,41.9-6.7,50.7-26.5
					c4.6-10.3,5.6-21.7,6.5-32.8c1-11.8,1.8-23.7,2.1-35.6C1402.1,1483.7,1401.1,1460.2,1394.7,1437.8z"/>
				<path class="st9" d="M757.6,1140.8c5.3,35.8,38.6,60.4,74.4,55.1l-19.2-129.5C777,1071.8,752.3,1105.1,757.6,1140.8z"/>
				<linearGradient id="SVGID_4_" gradientUnits="userSpaceOnUse" x1="758.9449" y1="1131.5876" x2="819.8474" y2="1131.5876">
					<stop  offset="0" style="stop-color:#D15F54"/>
					<stop  offset="1" style="stop-color:#B23D38"/>
				</linearGradient>
				<path class="st10" d="M768.5,1139.1c4.3,29,31.3,49,60.3,44.7l-15.6-105C784.2,1083.1,764.2,1110.1,768.5,1139.1z"/>
				<path class="st9" d="M1187.2,1066.5L1168,1196c35.8,5.3,69.1-19.4,74.4-55.1C1247.7,1105.1,1223,1071.8,1187.2,1066.5z"/>
				<linearGradient id="SVGID_5_" gradientUnits="userSpaceOnUse" x1="1256.9745" y1="1156.2957" x2="1169.0287" y2="1127.6598">
					<stop  offset="0" style="stop-color:#D15F54"/>
					<stop  offset="1" style="stop-color:#B23D38"/>
				</linearGradient>
				<path class="st11" d="M1186.8,1078.8l-15.6,105c29,4.3,56-15.7,60.3-44.7C1235.8,1110.1,1215.8,1083.1,1186.8,1078.8z"/>
				<linearGradient id="SVGID_6_" gradientUnits="userSpaceOnUse" x1="1000" y1="1536.6984" x2="1000" y2="1343.5319">
					<stop  offset="0" style="stop-color:#D15F54"/>
					<stop  offset="1" style="stop-color:#B23D38"/>
				</linearGradient>
				<path class="st12" d="M1221.1,1476.3c-29,1.5-64.5-4.8-98.5-13.7c-18.8-4.9-31.8-21.9-31.8-41.3v-218H909.2v218
					c0,19.4-13.1,36.4-31.8,41.3c-34,8.9-69.5,15.2-98.5,13.7c-83.6-4.3-194.5-34.6-201.7,167.1l-25.9,193.8H1000h448.7l-25.9-193.8
					C1415.6,1441.7,1304.7,1472,1221.1,1476.3z"/>
				<path class="st13" d="M909.2,1365.2c29.3,26.7,62.9,44.6,97.3,44.6c29.4,0,58.3-13.1,84.3-33.6v-163.1H909.2V1365.2z"/>
				<linearGradient id="SVGID_7_" gradientUnits="userSpaceOnUse" x1="1000" y1="1299.0583" x2="1000" y2="845.5311">
					<stop  offset="0" style="stop-color:#D15F54"/>
					<stop  offset="1" style="stop-color:#B23D38"/>
				</linearGradient>
				<path class="st14" d="M1200.8,937.3c-25-141.9-200.8-138.3-200.8-138.3s-175.7-3.6-200.8,138.3
					c-21.3,120.4,17.3,110.3,8.7,190.3c-8.1,75,88.4,237.9,192.1,237.9s200.2-162.9,192.1-237.9
					C1183.5,1047.6,1222,1057.7,1200.8,937.3z"/>
				<g>
					<path class="st15" d="M853.8,1118.4h12.8h13.3l15.4-7.6l20.5-3.7l19.7,2.5C935.6,1109.6,902.7,1068.5,853.8,1118.4z"/>
					<g>
						<path class="st16" d="M943.1,1115.4c-3.7-3.6-8.1-6.5-13-8.6c-1.2-0.5-2.5-1-3.8-1.4c-1.3-0.4-2.6-0.7-3.9-1
							c-2.6-0.6-5.3-0.8-8-0.9c-5.4-0.1-10.7,0.8-15.7,2.4c-2.5,0.8-4.9,1.8-7.3,2.9c-0.6,0.3-1.2,0.6-1.7,0.9
							c-0.6,0.3-1.1,0.6-1.7,0.9l-3.1,1.7c-0.5,0.3-1,0.5-1.4,0.8c-0.5,0.2-1,0.5-1.4,0.7c-1,0.4-2,0.9-2.9,1.3c-1,0.4-2,0.8-3,1.1
							l-1.5,0.5c-0.5,0.2-1,0.3-1.5,0.4c-4.1,1.1-8.4,1.5-12.8,1c-4.4-0.5-8.9-1.9-13.1-4.4c1.2,2.2,3,4.1,4.9,5.7
							c2,1.7,4.2,3,6.6,4.1c4.8,2.1,10.4,2.9,15.7,2.5c0.7-0.1,1.3-0.1,2-0.2l2-0.3c1.3-0.3,2.6-0.5,3.9-0.9c2.6-0.7,5-1.7,7.4-2.7
							c0.6-0.3,1.2-0.6,1.8-0.8l1.5-0.8c1-0.5,2-0.9,3-1.4c2-0.9,4.1-1.7,6.1-2.3c2-0.7,4.1-1.2,6.2-1.7c2.1-0.5,4.2-0.7,6.3-0.9
							c4.2-0.3,8.5,0,12.7,1c4.2,0.9,8.4,2.5,12.5,4.6c4.1,2.1,8,4.7,11.8,7.9c-0.9-2.3-2.2-4.5-3.6-6.5
							C946.6,1119.1,944.9,1117.2,943.1,1115.4z"/>
						<circle class="st16" cx="914.9" cy="1126.5" r="20.7"/>
						<circle class="st4" cx="922.9" cy="1121.9" r="7.6"/>
					</g>
				</g>
				<g>
					<path class="st15" d="M1062.1,1109l19.7-2.5l20.5,3.7l15.4,7.6h13.3h12.8C1094.9,1067.9,1062.1,1109,1062.1,1109z"/>
					<g>
						<path class="st16" d="M1124.6,1116.7c-0.5-0.1-1-0.3-1.5-0.4l-1.5-0.5c-1-0.4-2-0.7-3-1.1c-1-0.4-2-0.9-2.9-1.3
							c-0.5-0.2-1-0.5-1.4-0.7c-0.5-0.3-1-0.5-1.4-0.8l-3.1-1.7c-0.6-0.3-1.1-0.6-1.7-0.9c-0.6-0.3-1.1-0.6-1.7-0.9
							c-2.4-1.1-4.8-2.1-7.3-2.9c-5-1.6-10.4-2.5-15.7-2.4c-2.7,0.1-5.4,0.3-8,0.9c-1.3,0.3-2.6,0.6-3.9,1c-1.3,0.4-2.5,0.9-3.8,1.4
							c-4.9,2.1-9.3,5-13,8.6c-1.8,1.8-3.5,3.7-4.9,5.8c-1.4,2.1-2.7,4.2-3.6,6.5c3.8-3.1,7.8-5.7,11.8-7.9
							c4.1-2.1,8.2-3.7,12.5-4.6c4.2-1,8.5-1.2,12.7-1c2.1,0.2,4.2,0.4,6.3,0.9c2.1,0.4,4.2,1,6.2,1.7c2.1,0.7,4.1,1.4,6.1,2.3
							c1,0.4,2,0.9,3,1.4l1.5,0.8c0.6,0.3,1.2,0.6,1.8,0.8c2.4,1,4.8,2,7.4,2.7c1.3,0.4,2.6,0.6,3.9,0.9l2,0.3
							c0.7,0.1,1.3,0.1,2,0.2c5.4,0.4,10.9-0.4,15.7-2.5c2.4-1.1,4.7-2.4,6.6-4.1c2-1.6,3.7-3.5,4.9-5.7c-4.3,2.5-8.7,3.9-13.1,4.4
							C1133,1118.2,1128.7,1117.8,1124.6,1116.7z"/>
						<circle class="st16" cx="1082.8" cy="1125.9" r="20.7"/>
						<circle class="st4" cx="1090.7" cy="1122.7" r="7.6"/>
					</g>
				</g>
				<linearGradient id="SVGID_8_" gradientUnits="userSpaceOnUse" x1="1000" y1="1837.1498" x2="1000" y2="1394.0214">
					<stop  offset="0" style="stop-color:#D31B59"/>
					<stop  offset="1" style="stop-color:#F34761"/>
				</linearGradient>
				<path class="st17" d="M1422.8,1643.4c-7.2-201.7-118.1-171.4-201.7-167.1c-29,1.5-64.5-4.8-98.5-13.7c-3.6-0.9-7-2.3-10.1-4.1
					c2.3-12.8,4-25.9,5.7-38.8c1.3-9.7,0-20.8-10.9-24c-9.6-2.9-19.4,1.9-26.4,8.3c-8.5,7.8-14.7,19-25.9,23.1
					c-5.5,2-10.7,1.5-15.5-1.8c-4.1-2.8-8-6.3-13.3-6.2c-8.2,0.2-12.2,8.1-16,14.1c-1.8,2.8-4,6.4-7.5,7.2
					c-6.1,1.4-11.2-5.3-14.8-9.2c-3.5-3.8-7.5-7.6-12.6-8.9c-5-1.2-9.7,0.4-14,2.7c-4.5,2.4-9.2,5.9-14.6,4.5
					c-5.4-1.4-9.4-6.5-12.3-10.9c-5.4-8.2-9.5-18.4-19-22.9c-9.1-4.2-18.5-0.2-24.1,7.5c-6.9,9.5-6.4,21-4.1,32
					c1.5,6.9,3.6,14,3.9,21c-4.1,2.9-8.7,5.1-13.8,6.4c-34,8.9-69.5,15.2-98.5,13.7c-83.6-4.3-194.5-34.6-201.7,167.1l-25.9,193.8
					H1000h448.7L1422.8,1643.4z"/>
				<g>
					<circle class="st3" cx="1252.1" cy="1718.7" r="13.7"/>
					<path class="st3" d="M1211.2,1476.5c0.1,7.5,6.2,13.5,13.7,13.5c7.5,0,13.7-6.1,13.7-13.7c0-0.4,0-0.8-0.1-1.2
						c-5.9,0.5-11.6,0.9-17.3,1.2C1217.9,1476.5,1214.6,1476.5,1211.2,1476.5z"/>
					<circle class="st3" cx="939.5" cy="1524.4" r="13.7"/>
					<circle class="st3" cx="1130.2" cy="1801" r="13.7"/>
					<circle class="st3" cx="1150.5" cy="1615.6" r="13.7"/>
					<path class="st3" d="M1430.7,1702.6l-3.5-26.4c-5.2,1.9-9,6.9-9,12.8C1418.2,1696.1,1423.7,1702,1430.7,1702.6z"/>
					<circle class="st3" cx="1302.6" cy="1549.9" r="13.7"/>
					<circle class="st3" cx="1082.8" cy="1476.3" r="13.7"/>
					<path class="st3" d="M1395.3,1823.5c-7.5,0-13.7,6.1-13.7,13.7h27.3C1408.9,1829.6,1402.8,1823.5,1395.3,1823.5z"/>
					<path class="st3" d="M578.2,1823.5c-7.5,0-13.7,6.1-13.7,13.7h27.3C591.9,1829.6,585.8,1823.5,578.2,1823.5z"/>
					<path class="st3" d="M801,1490c7.5,0,13.7-6.1,13.7-13.7c0-0.5,0-1-0.1-1.5c-9.4,1.1-18.6,1.7-27.2,1.6
						C787.4,1484,793.5,1490,801,1490z"/>
					<path class="st3" d="M922.8,1823.5c-7.5,0-13.7,6.1-13.7,13.7h27.3C936.5,1829.6,930.4,1823.5,922.8,1823.5z"/>
					<circle class="st3" cx="951.6" cy="1675.3" r="13.7"/>
					<circle class="st3" cx="722.5" cy="1753.7" r="13.7"/>
					<path class="st3" d="M570.9,1718.7c7.5,0,13.7-6.1,13.7-13.7s-6.1-13.7-13.7-13.7c-0.1,0-0.1,0-0.2,0l-3.6,26.8
						C568.4,1718.5,569.6,1718.7,570.9,1718.7z"/>
					<circle class="st3" cx="736.2" cy="1577.2" r="13.7"/>
					<path class="st3" d="M615.8,1524.4c7.5,0,13.7-6.1,13.7-13.7c0-4.7-2.4-8.8-5.9-11.3c-6.3,5.8-12.1,12.7-17.3,21
						C608.7,1522.9,612.1,1524.4,615.8,1524.4z"/>
				</g>
				<g>
					<linearGradient id="SVGID_9_" gradientUnits="userSpaceOnUse" x1="1000" y1="1289.1437" x2="1000" y2="1271.8871">
						<stop  offset="0" style="stop-color:#B72C47"/>
						<stop  offset="1" style="stop-color:#A51C3D"/>
					</linearGradient>
					<path class="st18" d="M1055.1,1272.7c-0.2-0.3-0.5-0.5-0.9-0.7c-17-7-34.5-13.8-53.3-12.5c-9.1,0.6-18.1,2.7-27,4.5
						c-9.7,2-19.5,4-29.2,6c-1.4-1-3.9,0.8-2.9,2.9c4.4,9.4,12.5,16.5,22.2,20c4.7,1.7,9.8,2.5,14.8,2.1c6.7-0.4,13.1-2.9,19.8-3.3
						c11.9-0.8,23.3,5.6,35.3,3.1c10.5-2.2,18.8-10.7,24.4-19.4C1059.5,1273.3,1056.8,1271.5,1055.1,1272.7z"/>
					<linearGradient id="SVGID_10_" gradientUnits="userSpaceOnUse" x1="1000" y1="1264.8007" x2="1000" y2="1233.6483">
						<stop  offset="0" style="stop-color:#B72C47"/>
						<stop  offset="1" style="stop-color:#A51C3D"/>
					</linearGradient>
					<path class="st19" d="M1057.6,1269.5c-12.2-4.1-20-15.1-30.3-22.3c-7.9-5.5-18.3-2.6-27.3,1.4c-9-4-19.4-7-27.3-1.4
						c-10.3,7.2-18,18.2-30.3,22.3c-1.8,0.6-1.8,2.8-0.6,3.7c0.1,0.2,0.2,0.3,0.3,0.5c5.9,6.4,15.3,5.7,22.8,2.6
						c5.1-2.1,9.8-5.2,15.1-6.9c6-1.9,12.4-1.5,18.2,1c0.4,0.5,1.1,0.7,1.8,0.6c0.7,0.1,1.4-0.1,1.8-0.6c5.8-2.5,12.1-2.9,18.2-1
						c5.3,1.7,10,4.8,15.1,6.9c7.5,3.1,16.8,3.8,22.8-2.6c0.1-0.2,0.2-0.3,0.3-0.5C1059.3,1272.3,1059.4,1270.1,1057.6,1269.5z"/>
				</g>
				<path class="st16" d="M964.4,1044.9c0,0-21.3,13.4-34.6,13.7v0c-18.7,0.7-48.3,2.9-61.4,10c-19.9,10.8-34.9,37.6-34.9,37.6
					s21.1-17.3,32.5-20.1c19-4.8,78.7-10.5,81.2-11.3c0.4-0.1,0.9-0.4,1.5-0.9C960.6,1067.9,964.4,1044.9,964.4,1044.9z"/>
				<path class="st16" d="M1035.6,1044.9c0,0,21.3,13.4,34.6,13.7v0c18.7,0.7,48.3,2.9,61.4,10c19.9,10.8,34.9,37.6,34.9,37.6
					s-21.1-17.3-32.5-20.1c-19-4.8-78.7-10.5-81.2-11.3c-0.4-0.1-0.9-0.4-1.5-0.9C1039.4,1067.9,1035.6,1044.9,1035.6,1044.9z"/>
				<linearGradient id="SVGID_11_" gradientUnits="userSpaceOnUse" x1="957.5189" y1="910.3715" x2="957.5189" y2="1543.8933">
					<stop  offset="0" style="stop-color:#2D184F"/>
					<stop  offset="1" style="stop-color:#23103D"/>
				</linearGradient>
				<path class="st20" d="M1449.5,1639.7c-1.3-0.7-2.5-1.5-3.7-2.4c1.1-1.1,1.9-2.7,1.9-4.2c0-3.3-2.6-5.3-5.6-5.6
					c-4.6-0.5-8.3-2.9-11.1-6.3c-1.6-2.5-3.1-5.1-4.4-7.8c-1.4-3.6-2.1-7.5-2.1-10.9c-0.1-16,10.1-30.5,16.8-44.4
					c14.9-30.7,22.6-64.7,22.4-98.9c-0.3-31.6-7.4-64-32.7-85.1c-21.5-17.9-48.8-25.8-74.9-34.7c-1.2-0.8-2.5-1.5-3.8-2.3
					c-14.6-8.6-30.9-15.2-43.7-26.6c-14.3-12.7-19.5-29.4-20.7-47.1c26.6-69.4,30.4-147.1,10.7-218.9
					c-19.4-70.5-62.2-133.5-119.6-178.6c-9.2-7.2-18.7-14-28.5-20.2c-34.7-26.2-75.3-44.3-118.7-51.1c-6.7-1-13.4-1.8-20.1-2.4
					c-0.1,0-0.2,0-0.4-0.1c-72-7.4-141.3,28.2-192.6,76.2c-50,46.8-85.7,105.7-121.2,163.7c-9.3,9.1-18.8,18.1-28.4,26.9
					c-32.4,29.6-68.5,56.2-95.1,91.5c-12.4,16.5-22.4,35.1-27.9,55c-5.9,21.1-5.6,42.6-0.3,63.8c5.9,23.3,16.5,45.3,20.9,69
					c2.4,12.9,3,27.1-0.4,40.1c-0.6,0.6-1.3,1.2-1.9,1.7c-10.4,9.1-22.7,15.8-32.5,25.6c-10.8,10.8-16.5,24.7-14.8,40
					c1.8,16.4,9.3,31.2,12.4,47.3c2.9,14.7-0.9,28.9-12.6,38.7c-11,9.2-26.4,10.6-39.1,4c-4.5-2.3-8.3-5.4-11.5-9.1
					c0-0.1-0.1-0.2-0.1-0.3c-0.5-1.6-1.5-2.7-2.6-3.4c-0.3-0.5-0.7-1-1-1.5c-3.9-6.6-14.2-0.6-10.3,6c1.1,1.9,2.3,3.6,3.6,5.3
					c2.8,6.8,7.3,12.2,12.9,16.3c15.5,23.1,43.2,35.9,70.7,37.2c32.9,1.5,64-14.5,87.6-36.4c24.9-23,43-53.3,53.4-85.5
					c11-33.9,12.7-69.8,6.2-104.7c-5.4-29.1-15.4-57.8-19.7-87.1c1.1-17.5,2-35,4.5-52.4c2.1-14.7,5.5-29.6,11.5-43.3
					c6.2-14.1,15.1-26.6,25.9-37.5c0.4-0.4,0.7-0.7,1.1-1.1c27.6-16.6,59.6-24.5,90.2-33.7c63-18.9,125.6-48.5,167.9-100.6
					c18.7-23.1,33.2-49.9,40.3-78.7c5.9,20.4,16.7,39.4,30,56.2c21.8,27.7,50.3,48.6,78.9,68.7c29,20.4,58.9,40.4,82.5,67.2
					c2.3,2.6,4.5,5.2,6.6,7.9c8.8,21.3,15.2,43.4,15.4,66.5c0.4,39.6-23,73.1-29,111.4c-2.8,17.6-2.4,35.9,5.1,52.4
					c7,15.5,20.3,26.7,35.5,33.6c15.9,7.2,32.9,10.2,50,13.2c18.1,3.1,36.8,6.4,52.7,16.2c12.3,7.6,21.3,18.6,27.4,31.2
					c0.6,2.3,1.1,4.6,1.4,6.9c2.7,16,0,32-4.1,47.5c-8.5,32.2-22.7,67.4-4.6,99c17.1,29.9,51.8,42.1,84.1,46.8
					c1.9,0.3,3.8,0.5,5.7,0.8C1458.1,1647.2,1449.5,1639.7,1449.5,1639.7z M564.1,1291.1c-7.2-20.9-13.2-42-10.8-64.3
					c2.1-20.3,10.3-39.7,21-56.8c23.5-37.7,60.1-64.7,92.8-93.9c2.5-2.2,5-4.4,7.4-6.7c-15.9,25.1-32.4,49.8-51,72.9
					c-21.7,27-47.3,53.7-50.7,89.9c-3.5,37.1,15.4,72.3,11.4,109.4c-0.7,6.2-2.2,12-4.4,17.4c0-2.3-0.1-4.6-0.2-6.9
					C578.2,1330.9,570.9,1311.1,564.1,1291.1z M671.2,1341.6c4.1,17.1,7.5,34.4,8.1,52.1c0.5,16.4-1,32.9-4.5,48.9
					c-7,31.7-21.5,62-42.9,86.5c-19.9,22.8-46.9,41.9-77.6,45.7c-21.7,2.7-45-3.1-62.1-16.6c9,1,18.3-0.2,26.5-3.7
					c30.2-12.9,43.3-45.6,54.2-74.1c6-15.8,12.6-31,22.2-44.9c8.9-12.8,19.3-24.5,29.1-36.7c10-12.4,19.5-25.3,26.1-39.9
					c6.3-14,10.3-28.7,12.7-43.8c0.2-1.5,0.4-3,0.7-4.4C665.9,1321,668.7,1331.3,671.2,1341.6z M891.1,1054.6
					c-29.1,17.2-60.5,29.4-92.8,39.1c-15.7,4.7-31.8,9.1-47.5,14.4c12.4-7.1,25.4-13.3,38.4-19c31.5-13.9,63.9-26,93.2-44.3
					c45.7-28.4,84.6-67.6,112.5-113.5C978.9,984.1,938.4,1026.6,891.1,1054.6z M1299.7,1149c-0.8,24.7-4.2,49.3-10.3,73.3
					c0.4-4.2,0.7-8.3,1-12.3c2.6-39.2,1-78.6-5-117.4c-9.2-59.1-29.4-117.8-62.3-168c4,4.8,7.8,9.6,11.5,14.6
					C1279.4,999.6,1302,1073.8,1299.7,1149z M1256.9,1386.1c-15.9-4.2-32.1-11-42.6-24.2c-10.6-13.3-13.1-30.8-11.8-47.3
					c1.5-18.9,8.3-36.8,14.9-54.5c7-18.8,13.7-37.7,15.1-57.8c0.9-12,0-23.8-2.1-35.5c4.7,12,7.6,24.6,8,37.5
					c1.1,36.4-21.7,68.8-19.6,105.3c0.9,15.8,6.7,30.8,18.3,41.9c10.3,9.9,23.6,15.8,36.8,20.7c13.2,4.9,26.9,8.8,39.6,15.1
					c11.4,5.6,21.5,13.5,29.6,23.2C1317.8,1394.3,1285.8,1393.8,1256.9,1386.1z M1382.7,1360.6c11.7,4.4,23.1,9.5,33.5,16.5
					c12.3,8.3,22.2,19.5,27.9,33.2c6.4,15.2,8.1,32,8.3,48.3c0.4,34.7-7.9,69-23.8,99.7c-3.9,7.6-8.2,15.5-11.2,23.7
					c-2.1-19.1,1.3-38.6,4.6-57.3c3.5-20.3,7.4-40.8,6.5-61.5c-1.5-34.4-15.2-67.6-37.5-93.7
					C1388.3,1366.5,1385.6,1363.5,1382.7,1360.6z"/>
			</g>
		</g>
	</g>
</g>
</svg>
