<svg id="Layer_1" enable-background="new 0 0 512.001 512.001" height="512" viewBox="0 0 512.001 512.001" width="512" xmlns="http://www.w3.org/2000/svg"><g><g clip-rule="evenodd" fill-rule="evenodd"><path d="m416.006 242.256c0-88.14-72.912-160.255-162.028-160.255s-162.028 72.114-162.028 160.254c0 17.238-16.661 43.013-26.604 56.867-20.535 28.612-6.733 48.099 36.729 48.099v53.4c0 24.019 19.869 43.67 44.153 43.67 57.186 0 62.504 3.947 66.027 57.709h143.395c-4.677-71.369-2.23-113.831 36.576-176.43 15.072-24.312 23.78-52.856 23.78-83.314z" fill="#ffd0c7"/><path d="m237.307 136.471h186.14c17.909 0 32.561-14.652 32.561-32.561 0-17.908-14.652-32.56-32.561-32.56h-1.525c-1.593-19.91-18.254-35.571-38.574-35.571-1.181 0-2.348.056-3.502.16-9.428-15.549-26.513-25.939-46.025-25.939-25.219 0-46.381 17.358-52.198 40.778-1.834-.266-3.708-.407-5.616-.407-21.374 0-38.7 17.327-38.7 38.7-13.035 0-23.7 10.665-23.7 23.7s10.665 23.7 23.7 23.7z" fill="#b6bccf"/><path d="m283.166 136.471-15.98 66.945 26.778 3.023-12.525 59.171 67.57-81.415-28.074-6.478 16.651-41.246z" fill="#ffc144"/></g><g><path d="m466.007 103.91c0-21.102-15.436-38.666-35.609-41.993-5.455-20.293-23.818-35.334-45.313-36.106-12.003-16.265-30.764-25.811-51.263-25.811-26.55 0-49.896 16.245-59.364 40.396-20.812.653-38.364 14.43-44.658 33.31-39.502 5.562-75.906 24.676-103.084 54.281-28.868 31.446-44.766 72.028-44.766 114.27 0 10.383-9.245 29.462-24.729 51.036-14.404 20.07-12.34 34.197-8.072 42.515 4.5 8.768 15.635 19.047 42.925 21.063v43.754c0 29.594 24.293 53.67 54.153 53.67 26.102 0 40.475.968 46.598 6.26 5.996 5.181 7.887 18.243 9.451 42.103.345 5.258 4.709 9.346 9.979 9.346h143.395c2.766 0 5.408-1.146 7.299-3.164s2.86-4.73 2.68-7.49c-1.268-19.33-1.795-33.578-1.71-46.197.037-5.523-4.41-10.03-9.933-10.067-.023 0-.046 0-.068 0-5.492 0-9.962 4.434-9.999 9.933-.071 10.654.271 22.348 1.1 36.986h-123.455c-1.742-21.759-4.681-37.092-15.662-46.581-12.009-10.378-30.556-11.127-59.675-11.127-18.832 0-34.153-15.104-34.153-33.67v-13.399c6.168 0 15.748 3.318 25 8.66 1.575.909 3.294 1.342 4.991 1.342 3.456 0 6.817-1.794 8.669-5.002 2.762-4.783 1.123-10.899-3.66-13.66-7.335-4.235-21.637-11.34-35-11.34v-20.002c0-5.522-4.477-10-10-10-18.609 0-31.742-3.942-35.131-10.547-2.401-4.68-.022-12.597 6.526-21.721 12.993-18.104 28.48-43.676 28.48-62.698 0-66.209 43.096-122.889 104.375-142.73-1.746 4.069-2.718 8.545-2.718 13.246 0 18.582 15.118 33.699 33.7 33.699h33.191l-13.039 54.624c-.665 2.785-.104 5.723 1.542 8.066 1.646 2.345 4.217 3.87 7.063 4.191l15.836 1.788-10.244 48.397c-.952 4.5 1.287 9.069 5.428 11.073 1.393.674 2.879.999 4.352.999 2.903-.001 5.75-1.266 7.699-3.614l67.57-81.415c2.216-2.67 2.89-6.299 1.779-9.586-1.11-3.288-3.846-5.765-7.227-6.545l-16.667-3.846 9.743-24.134h26.51c22.703 26.985 35.163 60.826 35.163 95.786 0 27.546-7.704 54.534-22.28 78.046-9.387 15.14-16.738 29.185-22.478 42.936-2.127 5.097.28 10.953 5.377 13.08 1.259.525 2.563.774 3.848.774 3.914 0 7.631-2.313 9.232-6.151 5.324-12.758 12.2-25.875 21.019-40.101 16.54-26.68 25.282-57.311 25.282-88.584 0-34.295-10.553-67.622-30.028-95.786h27.468c23.47-.002 42.562-19.095 42.562-42.563zm-242.4 8.861c0-7.554 6.146-13.699 13.7-13.699 5.523 0 10-4.478 10-10 0-15.825 12.875-28.7 28.7-28.7 1.388 0 2.795.102 4.183.303 5.087.739 9.9-2.5 11.139-7.486 4.853-19.542 22.327-33.189 42.493-33.189 15.445 0 29.454 7.896 37.474 21.123 1.979 3.264 5.635 5.121 9.444 4.775.881-.079 1.759-.119 2.608-.119 14.857 0 27.422 11.582 28.605 26.368.415 5.196 4.754 9.202 9.968 9.202h1.525c12.439 0 22.561 10.121 22.561 22.561s-10.121 22.561-22.561 22.561h-186.14c-7.553 0-13.699-6.146-13.699-13.7zm88.459 69.565c1.352 2.595 3.771 4.467 6.621 5.125l12.267 2.83-31.345 37.768 4.138-19.548c.584-2.759-.023-5.635-1.673-7.922-1.649-2.286-4.187-3.771-6.988-4.086l-15.549-1.756 11.523-48.276h31.705l-11.103 27.503c-1.095 2.712-.948 5.768.404 8.362z"/><path d="m134.581 255.147c-5.523 0-9.997 4.478-9.997 10s4.481 10 10.004 10 10-4.478 10-10-4.477-10-10-10z"/><path d="m357.677 400.239h-.007c-5.522 0-9.996 4.478-9.996 10s4.48 10 10.003 10 10-4.478 10-10-4.477-10-10-10z"/><path d="m172.16 230.146c0-5.522-4.477-10-10-10-3.812 0-8.588-2.039-13.645-4.197-6.373-2.72-13.595-5.803-21.498-5.803-5.523 0-10 4.478-10 10s4.477 10 10 10c3.813 0 8.589 2.039 13.646 4.197 6.372 2.72 13.595 5.803 21.497 5.803 5.523 0 10-4.478 10-10z"/></g></g></svg>