<svg id="Capa_1" enable-background="new 0 0 512.036 512.036" height="512" viewBox="0 0 512.036 512.036" width="512" xmlns="http://www.w3.org/2000/svg"><g><g><path clip-rule="evenodd" d="m385.87 138.638c-.226-41.268-4.924-75.54-38.145-90.609-8.829-26.313-27.279-35.632-51.36-37.614h-24.421c-41.173 2.521-92.392 14.729-140.017 3.427.028 16.853 13.243 46.281 29.543 53.646-22.949 16.145-35.316 31.185-35.316 71.15 49.295 10.65 154.902 2.096 191.689-33.224 26.684 30.505 44.851 29.768 68.027 33.224z" fill="#ffda8f" fill-rule="evenodd"/></g><g><path clip-rule="evenodd" d="m385.87 138.638c-23.176-3.456-41.343-2.719-68.028-33.224-36.787 35.32-142.394 43.874-191.689 33.224v30.533c0 36.085 25.949 79.279 62.283 106.357 10.951 8.157 22.836 14.842 35.231 19.459 11.744 4.362 22.044 6.543 32.344 6.543s20.601-2.181 32.373-6.543c12.394-4.617 24.279-11.301 35.202-19.459 36.363-27.078 62.283-70.272 62.283-106.357v-30.533z" fill="#ffdcd5" fill-rule="evenodd"/></g><g><path clip-rule="evenodd" d="m348.347 308.355c-21.365-7.024-21.195-12.859-24.761-32.828-10.923 8.157-22.808 14.842-35.202 19.459-11.772 4.362-22.072 6.543-32.373 6.543-10.3 0-20.601-2.181-32.344-6.543-12.394-4.617-24.279-11.301-35.231-19.459-3.566 19.968-3.367 25.803-24.732 32.828 36.108 73.331 148.507 73.331 184.643 0z" fill="#ffd0c7" fill-rule="evenodd"/></g><g><path clip-rule="evenodd" d="m467.085 458.784c-13.102-59.254-17.262-122.983-105.522-146.577-5.15-1.36-9.508-2.634-13.215-3.852-36.136 73.331-148.535 73.331-184.643 0-3.707 1.218-8.093 2.492-13.215 3.852-88.29 23.594-92.45 87.324-105.552 146.577-7.244 32.686 1.019 43.251 32.91 43.251h178.163 178.191c31.892 0 40.127-10.565 32.883-43.251z" fill="#ccf5fc" fill-rule="evenodd"/></g><g><path d="m476.849 456.624c-1.249-5.645-2.443-11.467-3.597-17.097-5.617-27.381-11.424-55.694-26.475-80.127-17.251-28.004-44.28-46.602-82.633-56.854-10.971-2.931-21.634-6.144-25.337-9.781-2.129-2.09-3.003-5.677-4.325-13.047 35.831-28.753 61.389-72.222 61.389-110.546v-30.534c0-.009-.001-.018-.001-.027s.001-.019.001-.028c-.205-37.369-3.573-78.584-40.125-97.762-8.519-21.76-24.212-34.517-47.851-38.945-20.838-3.905-45.848-.98-72.325 2.115-31.995 3.74-68.258 7.98-101.332.12-2.98-.708-6.119-.012-8.519 1.889-2.401 1.901-3.799 4.796-3.794 7.858.025 14.688 8.83 39.269 22.978 53.71-18.728 15.799-28.751 34.315-28.751 71.069v30.534c0 38.315 25.558 81.776 61.392 110.531-1.323 7.383-2.197 10.973-4.326 13.066-3.699 3.635-14.351 6.848-25.31 9.778-38.365 10.253-65.402 28.85-82.658 56.856-15.054 24.435-20.863 52.749-26.479 80.132-1.155 5.627-2.348 11.447-3.597 17.094-3.034 13.743-5.32 31.007 4.009 42.621 9.104 11.334 25.447 12.787 38.667 12.787h177.596c5.523 0 10.001-4.478 10.001-10.001s-4.477-10.001-10.001-10.001h-122.688v-34.978c0-5.523-4.477-10.001-10.001-10.001-5.523 0-10.001 4.478-10.001 10.001v34.978h-34.907c-12.48 0-20.242-1.787-23.074-5.312-2.999-3.734-3.023-12.408-.071-25.778 1.281-5.793 2.491-11.689 3.66-17.392 10.756-52.436 20.915-101.964 94.709-121.683 2.011-.538 3.924-1.063 5.757-1.584 19.68 32.931 56.137 53.062 97.166 53.069h.02c41.035 0 77.507-20.131 97.203-53.068 1.834.52 3.748 1.046 5.761 1.584 73.764 19.718 83.923 69.243 94.678 121.677 1.17 5.704 2.38 11.603 3.663 17.402 2.962 13.363 2.943 22.034-.057 25.772-2.83 3.526-10.589 5.314-23.061 5.314h-34.936v-34.978c0-5.523-4.477-10.001-10.001-10.001s-10.001 4.478-10.001 10.001v34.978h-34.172c-5.523 0-10.001 4.478-10.001 10.001s4.477 10.001 10.001 10.001h89.11c13.218 0 29.557-1.454 38.66-12.796 9.329-11.624 7.03-28.883 3.986-42.617zm-309.626-380.957c2.936-2.066 4.54-5.547 4.202-9.122s-2.567-6.693-5.838-8.172c-8.711-3.935-17.542-18.828-21.504-32.03 31.989 4.737 64.591.929 93.808-2.487 56.043-6.55 88.332-8.51 100.351 27.35.883 2.634 2.822 4.783 5.351 5.93 24.182 10.968 30.85 34.14 32.061 70.002-17.125-2.4-30.533-5.73-50.285-28.31-1.799-2.057-4.362-3.288-7.092-3.407-2.736-.124-5.39.885-7.361 2.777-31.179 29.936-123.611 40.094-174.563 32.152 1.469-29.005 11.164-40.819 30.87-54.683zm-31.069 93.504v-18.634c11.532 1.623 24.695 2.459 38.673 2.459 49.994-.002 110.23-10.655 142.11-33.855 22.513 22.819 40.337 25.724 58.933 28.214v21.815c0 44.01-42.509 98.421-90.959 116.438-10.9 4.038-20.083 5.919-28.898 5.919-8.823 0-17.993-1.88-28.858-5.916-48.478-18.024-91.001-72.436-91.001-116.44zm119.861 184.182c-.004 0-.012 0-.016 0-32.476-.005-61.387-15.095-77.899-40.001 3.655-1.838 6.656-3.88 9.137-6.317 4.37-4.294 6.582-9.088 8.107-14.822 7.991 4.867 16.315 8.979 24.841 12.149 13.168 4.891 24.552 7.169 35.826 7.169 11.263 0 22.653-2.277 35.858-7.17 8.516-3.167 16.83-7.273 24.813-12.135 1.526 5.729 3.739 10.519 8.109 14.811 2.484 2.439 5.49 4.482 9.151 6.321-16.525 24.908-45.444 39.995-77.927 39.995z"/><path d="m211.924 175.513h-15.79c-5.523 0-10.001 4.478-10.001 10.001s4.477 10.001 10.001 10.001h15.79c5.523 0 10.001-4.478 10.001-10.001-.001-5.523-4.478-10.001-10.001-10.001z"/><path d="m300.128 195.514h15.762c5.523 0 10.001-4.478 10.001-10.001s-4.477-10.001-10.001-10.001h-15.762c-5.523 0-10.001 4.478-10.001 10.001s4.477 10.001 10.001 10.001z"/><path d="m239.937 251.319c9.311-5.549 22.848-5.546 32.187.005 1.603.953 3.364 1.407 5.102 1.407 3.411 0 6.735-1.746 8.605-4.891 2.823-4.747 1.263-10.885-3.485-13.707-15.514-9.226-37.165-9.225-52.649.005-4.745 2.827-6.298 8.966-3.471 13.71 2.828 4.746 8.967 6.297 13.711 3.471z"/><path d="m300.269 492.034c-5.523 0-10.001 4.478-10.001 10.001s4.477 10.001 10.001 10.001h.056c5.523 0 9.973-4.478 9.973-10.001s-4.505-10.001-10.029-10.001z"/></g></g></svg>