<?xml version="1.0" encoding="utf-8"?>
<!-- Generator: Adobe Illustrator 19.0.0, SVG Export Plug-In . SVG Version: 6.00 Build 0)  -->
<svg version="1.1" id="Layer_1" xmlns="http://www.w3.org/2000/svg" xmlns:xlink="http://www.w3.org/1999/xlink" x="0px" y="0px"
	 width="1400px" height="1400px" viewBox="0 0 1400 1400" enable-background="new 0 0 1400 1400" xml:space="preserve">
<g id="XMLID_2_">
	<defs>
		<rect id="XMLID_33_" width="1400" height="1400"/>
	</defs>
	<clipPath id="XMLID_36_">
		<use xlink:href="#XMLID_33_"  overflow="visible"/>
	</clipPath>
	<g id="XMLID_3_" clip-path="url(#XMLID_36_)">
		<linearGradient id="XMLID_107_" gradientUnits="userSpaceOnUse" x1="1162.9" y1="-486.9997" x2="1162.9" y2="945.093">
			<stop  offset="0" style="stop-color:#FFFFFF"/>
			<stop  offset="0.5108" style="stop-color:#FBC7BA"/>
			<stop  offset="1" style="stop-color:#A07098"/>
		</linearGradient>
		<path id="XMLID_112_" fill="url(#XMLID_107_)" d="M1400,0v791.5C1249.9,525.6,1089.3,266.9,925.8,0H1400z"/>
		<linearGradient id="XMLID_108_" gradientUnits="userSpaceOnUse" x1="237.1009" y1="-486.9997" x2="237.1009" y2="945.0875">
			<stop  offset="0" style="stop-color:#FFFFFF"/>
			<stop  offset="0.5108" style="stop-color:#FBC7BA"/>
			<stop  offset="1" style="stop-color:#A07098"/>
		</linearGradient>
		<path id="XMLID_102_" fill="url(#XMLID_108_)" d="M0,0v791.5C150.1,525.6,310.7,266.9,474.2,0H0z"/>
		<linearGradient id="XMLID_109_" gradientUnits="userSpaceOnUse" x1="700" y1="-281.2781" x2="700" y2="1200.9391">
			<stop  offset="0" style="stop-color:#FFFFFF"/>
			<stop  offset="0.5108" style="stop-color:#FBC7BA"/>
			<stop  offset="1" style="stop-color:#A07098"/>
		</linearGradient>
		<path id="XMLID_111_" fill="url(#XMLID_109_)" d="M1400,791.5v334.4H0V791.5C150.1,525.6,310.7,266.9,474.2,0h451.6
			C1089.3,266.9,1249.9,525.6,1400,791.5z"/>
		<linearGradient id="XMLID_113_" gradientUnits="userSpaceOnUse" x1="700" y1="1470.8962" x2="700" y2="957.8437">
			<stop  offset="0" style="stop-color:#FFFFFF"/>
			<stop  offset="0.5108" style="stop-color:#FBC7BA"/>
			<stop  offset="1" style="stop-color:#A07098"/>
		</linearGradient>
		<rect id="XMLID_18_" y="1125.9" fill="url(#XMLID_113_)" width="1400" height="274.1"/>
		<linearGradient id="XMLID_114_" gradientUnits="userSpaceOnUse" x1="1233.8395" y1="532.099" x2="1233.8395" y2="-65.0462">
			<stop  offset="0" style="stop-color:#FBC7BA"/>
			<stop  offset="0.5376" style="stop-color:#A87B93"/>
			<stop  offset="1" style="stop-color:#724664"/>
		</linearGradient>
		<path id="XMLID_116_" fill-rule="evenodd" clip-rule="evenodd" fill="url(#XMLID_114_)" d="M1271.5,95.7h-8.2h-7.4h-49.8h-9.8
			c-1.4,0-2.8,0-4.1,0.1c-38.2,2-69.5,30.9-75.3,68c-0.6,4-0.9,8-0.9,12.2v175.6c0,5.5,0.6,10.9,1.6,16.1c0.5,2.6,1.2,5.2,2,7.7
			c1.6,5,3.6,9.8,6.1,14.4c12.3,22.6,35.2,38.7,61.9,41.6v17.7c0,2.9,2.4,5.3,5.3,5.3h9.6c2.9,0,5.3-2.4,5.3-5.3v-17.2h48.2v17.2
			c0,2.9,2.4,5.3,5.3,5.3h9.6c2.9,0,5.3-2.4,5.3-5.3v-17.3c42.1-2.3,75.8-37.5,75.8-80.2V176C1351.8,131.8,1315.6,95.7,1271.5,95.7z
			"/>
		<linearGradient id="XMLID_115_" gradientUnits="userSpaceOnUse" x1="767.0305" y1="1371.8864" x2="767.0305" y2="679.2136">
			<stop  offset="0" style="stop-color:#FBC7BA"/>
			<stop  offset="0.5376" style="stop-color:#A87B93"/>
			<stop  offset="1" style="stop-color:#724664"/>
		</linearGradient>
		<path id="XMLID_8_" fill="url(#XMLID_115_)" d="M1203.9,1335.9H330.2c-48.1,0-87-39-87-87v0c0-48.1,39-87,87-87h873.7
			c48.1,0,87,39,87,87v0C1290.9,1296.9,1251.9,1335.9,1203.9,1335.9z"/>
		<linearGradient id="XMLID_117_" gradientUnits="userSpaceOnUse" x1="21.6584" y1="438.9998" x2="21.6584" y2="1263.0087">
			<stop  offset="0" style="stop-color:#FBC7BA"/>
			<stop  offset="0.5376" style="stop-color:#A87B93"/>
			<stop  offset="1" style="stop-color:#724664"/>
		</linearGradient>
		<path id="XMLID_106_" fill="url(#XMLID_117_)" d="M132.6,661.2c-9.3,4.3-21.5,5.6-33.4,4.7c-11-1.6-22.6-15.2-10.7-20.1
			c12.7-6.2,25.9-12.3,32.7-22.3c-5.2-10.9-12-22.5-20.6-34.4c-4.7,12.9-17.3,21.1-34.5,19.6c-11-1.6-9.9-12.2-5-18.4
			c6.5-8.4,15.7-18,15.1-28.3c-7.9-6.4-17.1-12.4-26.7-17.9c-2.6,5.8-7.2,10.8-12.6,15.4c-5.9,5.9-24.1,3.9-25.6-5.1
			c-0.6-9.4,3.8-17.9,4.8-26.9c-25.4-11.1-48.5-18.5-56.1-20.7c-1.7-0.5-2.6-0.8-2.6-0.8c-12.4,6.6-22,14.3-29.2,22.9
			c2.5,9.1,12.9,17,22.1,23.5c5.1,4,5.6,12.7,1.1,13.9c-12.6,3.8-27.1-2.5-37.1-12.1c-3.7,11.5-4.5,23.7-3.2,35.9
			c6.6,4.9,14.3,8.4,23,10c12.9,2.1,33.2,0.5,36.7,10c3.5,9.5-16.1,12.1-26.6,12.4c-8.8,0.3-17.8-0.9-26.3-3.5
			c4.5,12.8,10.6,25.2,17.7,36.4c20.4,6.7,43.6,5.6,64.8,6.5c9.1,1,9.2,11.2,4.9,15c-11.1,8.7-26.5,12.9-42.6,12.6
			c9.3,9.1,18.3,15.3,25.4,17.4c48.4,14.4,61.4-12.7,64.3-21.7c0.7,2.1,1.4,4.3,2.1,6.4c18,56.2,26.9,113.3,30.6,170.1
			c1.9,30.2,2.3,60.5,0.9,90.4c-0.7,16-2.3,32.1-5.1,47.8c-1.3,7.7-3.1,15.2-4.6,22.9c-1.5,7.7-2.1,15.5-3.4,23.3
			c-0.2,1.4,2.2,2.7,3.1,1.3c4.6-7.9,9.1-15.7,11.7-24.4c2.5-8.4,4-17.2,5.3-25.9c2.7-17.7,3.8-35.6,4.1-53.6
			c0.5-30.4-1.7-61.1-4.2-91.7c-2.4-28.8-6.1-57.6-11.8-86.4c-5.3-26.7-12.7-53.2-22.6-79.3c11.9,7.6,41.6,23.7,61.1,11.3
			C129.7,690.7,134.2,677.9,132.6,661.2z"/>
		<linearGradient id="XMLID_118_" gradientUnits="userSpaceOnUse" x1="230.8318" y1="485.0002" x2="230.8318" y2="1416.9996">
			<stop  offset="0" style="stop-color:#FBC7BA"/>
			<stop  offset="0.5376" style="stop-color:#A87B93"/>
			<stop  offset="1" style="stop-color:#724664"/>
		</linearGradient>
		<path id="XMLID_103_" fill="url(#XMLID_118_)" d="M348.4,668.1c8.8,1,17.1-0.2,24.9-3.1c4.7-11.5,7.4-23.6,7.2-35.9
			c-12.3,6.5-28,8.5-39,1.1c-4-2.5-1-10.7,5-13.2c10.6-3.7,22.9-8.4,27.8-16.5c-4.4-10.4-11.4-20.6-21.5-30.6c0,0-1,0-2.7,0
			c-7.9,0.1-32.1,0.5-59.7,4c-1.5,9,0.2,18.6-3,27.5c-4,8.2-22,4.9-26-2.5c-3.9-6-6.9-12.2-7.7-18.6c-10.8,2.6-21.3,5.8-30.7,9.8
			c-3.5,9.8,2.6,21.8,6.4,31.8c3,7.4,1,18.1-10,16.4c-16.9-3.5-26.6-15.1-27.5-29c-11.6,9.1-21.5,18.4-29.5,27.5
			c3.7,11.7,14.6,21.4,25,31.1c10,8.2-5,18.1-16,16.4c-11.7-2.6-23.1-7.3-30.7-14.2c-6.3,15.7-5.7,29.5,2.5,39
			c15.2,17.7,48.2,10.5,61.8,6.6c-16.9,22.5-31.5,46.2-44.1,70.6c-13.6,26.4-25.4,53.3-35.9,80.6c-11.1,29-21.9,58.3-30.1,88
			c-4.8,17.6-8.8,35.4-11.3,53.3c-1.2,8.8-2.3,17.8-2.3,26.7c0,9.2,2,18.1,4.2,27.1c0.4,1.6,3.1,1.1,3.3-0.4
			c0.9-7.9,2.6-15.7,3.3-23.6c0.7-7.8,1.2-15.7,2.1-23.6c1.8-16.1,4.9-32.1,8.7-47.9c7.2-29.5,16-58.9,26.5-87.7
			C149,825,173.8,772.1,207,722.5c1.3-1.9,2.5-3.8,3.8-5.6c0.2,9.6,5,39.7,55.5,39.6c7.4,0,17.8-3.5,29.3-9.6
			c-15.5-4.4-29.1-12.8-37.3-24.5c-3-4.9,0-14.8,9-13.2c20.5,5.2,42.6,12.9,64,12.3c9.9-8.9,19.4-19.2,27.3-30.3
			c-8.9,0-17.9-1.4-26.2-4.2c-10-3.3-28-11.5-22-19.7C316.4,659,335.4,666.4,348.4,668.1z"/>
		<g id="XMLID_48_">
			<g id="XMLID_58_">
				<linearGradient id="XMLID_119_" gradientUnits="userSpaceOnUse" x1="585.433" y1="1038.9705" x2="585.433" y2="751.8733">
					<stop  offset="0" style="stop-color:#FFFFFF"/>
					<stop  offset="0.5108" style="stop-color:#FBC7BA"/>
					<stop  offset="1" style="stop-color:#A07098"/>
				</linearGradient>
				<path id="XMLID_60_" fill="url(#XMLID_119_)" d="M599.5,951.6c-8.9,0-17.4-1.9-25.6-5.6c-29-13.2-46.3-46.9-55.7-72.8
					c-10.9-30.1-17.4-66.9-17.2-98.4c0.2-42.8,9.6-77.8,28-104c18.5-26.3,41.2-36.5,53.1-40.3l2.1,6.8c-11.1,3.5-32.2,13-49.4,37.5
					c-17.5,24.9-26.5,58.5-26.7,99.9c-0.1,30.7,6.1,66.6,16.8,95.9c9,24.7,25.2,56.6,51.9,68.8c25.4,11.6,55.1,2.7,88.3-26.5
					l4.7,5.4C644.7,940.5,621.1,951.6,599.5,951.6z"/>
			</g>
			
				<linearGradient id="XMLID_120_" gradientUnits="userSpaceOnUse" x1="677.203" y1="604.7081" x2="677.203" y2="655.2726" gradientTransform="matrix(0.9962 -8.660000e-002 8.660000e-002 0.9962 -49.134 60.8952)">
				<stop  offset="0" style="stop-color:#FFFFFF"/>
				<stop  offset="1" style="stop-color:#FBC7BA"/>
			</linearGradient>
			<path id="XMLID_56_" fill="url(#XMLID_120_)" d="M590,627.1c0,0,43.7-17.1,102-23.6c51.8-5.8,71.9,15.6,78,30.9
				c1.4,3.4,0.1,7.4-3,9.3c-11.8,7.2-32.9,6.7-43.6,5.8c-3.5-0.3-6.3-3-6.9-6.5c-1-6-4.6-15-16.4-17.9
				c-18.5-4.6-109.1,12.5-109.1,12.5L590,627.1z"/>
			<linearGradient id="XMLID_121_" gradientUnits="userSpaceOnUse" x1="669.5809" y1="613.6537" x2="669.5809" y2="712.064">
				<stop  offset="0" style="stop-color:#FFFFFF"/>
				<stop  offset="0.5108" style="stop-color:#FBC7BA"/>
				<stop  offset="1" style="stop-color:#A07098"/>
			</linearGradient>
			<rect id="XMLID_55_" x="664.6" y="632.3" fill="url(#XMLID_121_)" width="10" height="74.8"/>
			<linearGradient id="XMLID_122_" gradientUnits="userSpaceOnUse" x1="669.5809" y1="617.5947" x2="669.5809" y2="844.6834">
				<stop  offset="0" style="stop-color:#FFFFFF"/>
				<stop  offset="0.5108" style="stop-color:#FBC7BA"/>
				<stop  offset="1" style="stop-color:#A07098"/>
			</linearGradient>
			<path id="XMLID_20_" fill="url(#XMLID_122_)" d="M669.6,693.5L669.6,693.5c-5.9,0-10.7,4.8-10.7,10.7v219.8
				c0,5.9,4.8,10.7,10.7,10.7l0,0c5.9,0,10.7-4.8,10.7-10.7V704.1C680.2,698.2,675.5,693.5,669.6,693.5z"/>
			<g id="XMLID_37_">
				<linearGradient id="XMLID_123_" gradientUnits="userSpaceOnUse" x1="632.7874" y1="676.0917" x2="632.7874" y2="915.5023">
					<stop  offset="0" style="stop-color:#FFFFFF"/>
					<stop  offset="0.5108" style="stop-color:#FBC7BA"/>
					<stop  offset="1" style="stop-color:#A07098"/>
				</linearGradient>
				<path id="XMLID_41_" fill="url(#XMLID_123_)" d="M612.1,915.7H596v-145c0-16.1,10.4-28.7,23.7-28.7h49.9v16.1h-49.9
					c-3.6,0-7.6,5.4-7.6,12.6V915.7z"/>
			</g>
			<g id="XMLID_39_">
				<linearGradient id="XMLID_124_" gradientUnits="userSpaceOnUse" x1="704.3207" y1="676.0917" x2="704.3207" y2="915.5023">
					<stop  offset="0" style="stop-color:#FFFFFF"/>
					<stop  offset="0.5108" style="stop-color:#FBC7BA"/>
					<stop  offset="1" style="stop-color:#A07098"/>
				</linearGradient>
				<path id="XMLID_40_" fill="url(#XMLID_124_)" d="M741.1,915.7H725v-145c0-7.2-4-12.6-7.6-12.6h-49.9V742h49.9
					c13.3,0,23.7,12.6,23.7,28.7V915.7z"/>
			</g>
			<g id="XMLID_38_">
				<linearGradient id="XMLID_125_" gradientUnits="userSpaceOnUse" x1="669.5809" y1="698.5906" x2="669.5809" y2="928.4754">
					<stop  offset="0" style="stop-color:#FFFFFF"/>
					<stop  offset="0.5108" style="stop-color:#FBC7BA"/>
					<stop  offset="1" style="stop-color:#A07098"/>
				</linearGradient>
				<path id="XMLID_34_" fill="url(#XMLID_125_)" d="M669.6,693.5L669.6,693.5c-5.9,0-10.7,4.8-10.7,10.7v64.4h21.3v-64.4
					C680.2,698.2,675.5,693.5,669.6,693.5z"/>
				<linearGradient id="XMLID_126_" gradientUnits="userSpaceOnUse" x1="669.5809" y1="761.35" x2="669.5809" y2="777.8828">
					<stop  offset="0" style="stop-color:#FFFFFF"/>
					<stop  offset="0.5108" style="stop-color:#FBC7BA"/>
					<stop  offset="1" style="stop-color:#A07098"/>
				</linearGradient>
				<rect id="XMLID_35_" x="655.4" y="764.5" fill="url(#XMLID_126_)" width="28.4" height="12.6"/>
			</g>
			<g id="XMLID_47_">
				
					<linearGradient id="XMLID_127_" gradientUnits="userSpaceOnUse" x1="616.2302" y1="712.5387" x2="616.2302" y2="762.152" gradientTransform="matrix(0.7071 0.7071 -0.7071 0.7071 705.7077 -203.8306)">
					<stop  offset="0" style="stop-color:#FFFFFF"/>
					<stop  offset="0.5108" style="stop-color:#FBC7BA"/>
					<stop  offset="1" style="stop-color:#A07098"/>
				</linearGradient>
				<path id="XMLID_45_" fill="url(#XMLID_127_)" d="M631,742.4c-6.5-6.5-18.7,13.8-29.1,24.2c2.5,2.5,2.5,2.5,2.5,2.5s0,0,2.5,2.5
					C617.2,761.1,637.5,748.9,631,742.4z"/>
				
					<linearGradient id="XMLID_128_" gradientUnits="userSpaceOnUse" x1="616.2302" y1="735.5546" x2="616.2302" y2="785.1679" gradientTransform="matrix(0.7071 0.7071 0.7071 -0.7071 -388.2881 890.1652)">
					<stop  offset="0" style="stop-color:#FFFFFF"/>
					<stop  offset="0.5108" style="stop-color:#FBC7BA"/>
					<stop  offset="1" style="stop-color:#A07098"/>
				</linearGradient>
				<path id="XMLID_43_" fill="url(#XMLID_128_)" d="M574.2,799.1c-6.5-6.5,13.8-18.7,24.2-29.1c2.5,2.5,2.5,2.5,2.5,2.5
					s0,0,2.5,2.5C593,785.4,580.8,805.7,574.2,799.1z"/>
				
					<linearGradient id="XMLID_129_" gradientUnits="userSpaceOnUse" x1="-178.2459" y1="-139.306" x2="-178.2459" y2="-89.6927" gradientTransform="matrix(-0.7071 0.7071 -0.7071 -0.7071 413.067 833.3253)">
					<stop  offset="0" style="stop-color:#FFFFFF"/>
					<stop  offset="0.5108" style="stop-color:#FBC7BA"/>
					<stop  offset="1" style="stop-color:#A07098"/>
				</linearGradient>
				<path id="XMLID_44_" fill="url(#XMLID_129_)" d="M631,799.1c6.5-6.5-13.8-18.7-24.2-29.1c-2.5,2.5-2.5,2.5-2.5,2.5s0,0-2.5,2.5
					C612.2,785.4,624.4,805.7,631,799.1z"/>
				
					<linearGradient id="XMLID_130_" gradientUnits="userSpaceOnUse" x1="-178.2458" y1="1587.3993" x2="-178.2458" y2="1637.0126" gradientTransform="matrix(-0.7071 0.7071 0.7071 0.7071 -680.9287 -260.6705)">
					<stop  offset="0" style="stop-color:#FFFFFF"/>
					<stop  offset="0.5108" style="stop-color:#FBC7BA"/>
					<stop  offset="1" style="stop-color:#A07098"/>
				</linearGradient>
				<path id="XMLID_42_" fill="url(#XMLID_130_)" d="M574.2,742.4c6.5-6.5,18.7,13.8,29.1,24.2c-2.5,2.5-2.5,2.5-2.5,2.5
					s0,0-2.5,2.5C588,761.1,567.7,748.9,574.2,742.4z"/>
				
					<linearGradient id="XMLID_131_" gradientUnits="userSpaceOnUse" x1="616.2302" y1="746.2662" x2="616.2302" y2="774.016" gradientTransform="matrix(0.7071 0.7071 -0.7071 0.7071 705.7077 -203.8306)">
					<stop  offset="0" style="stop-color:#FFFFFF"/>
					<stop  offset="0.5108" style="stop-color:#FBC7BA"/>
					<stop  offset="1" style="stop-color:#A07098"/>
				</linearGradient>
				<circle id="XMLID_46_" fill="url(#XMLID_131_)" cx="602.6" cy="770.8" r="10.5"/>
			</g>
			<g id="XMLID_49_">
				
					<linearGradient id="XMLID_132_" gradientUnits="userSpaceOnUse" x1="709.1293" y1="619.6396" x2="709.1293" y2="669.2529" gradientTransform="matrix(0.7071 0.7071 -0.7071 0.7071 705.7077 -203.8306)">
					<stop  offset="0" style="stop-color:#FFFFFF"/>
					<stop  offset="0.5108" style="stop-color:#FBC7BA"/>
					<stop  offset="1" style="stop-color:#A07098"/>
				</linearGradient>
				<path id="XMLID_54_" fill="url(#XMLID_132_)" d="M762.3,742.4c-6.5-6.5-18.7,13.8-29.1,24.2c2.5,2.5,2.5,2.5,2.5,2.5
					s0,0,2.5,2.5C748.6,761.1,768.9,748.9,762.3,742.4z"/>
				
					<linearGradient id="XMLID_133_" gradientUnits="userSpaceOnUse" x1="709.1293" y1="828.4537" x2="709.1293" y2="878.0671" gradientTransform="matrix(0.7071 0.7071 0.7071 -0.7071 -388.2881 890.1652)">
					<stop  offset="0" style="stop-color:#FFFFFF"/>
					<stop  offset="0.5108" style="stop-color:#FBC7BA"/>
					<stop  offset="1" style="stop-color:#A07098"/>
				</linearGradient>
				<path id="XMLID_53_" fill="url(#XMLID_133_)" d="M705.6,799.1c-6.5-6.5,13.8-18.7,24.2-29.1c2.5,2.5,2.5,2.5,2.5,2.5
					s0,0,2.5,2.5C724.3,785.4,712.1,805.7,705.6,799.1z"/>
				
					<linearGradient id="XMLID_134_" gradientUnits="userSpaceOnUse" x1="-271.1451" y1="-232.2052" x2="-271.1451" y2="-182.5918" gradientTransform="matrix(-0.7071 0.7071 -0.7071 -0.7071 413.067 833.3253)">
					<stop  offset="0" style="stop-color:#FFFFFF"/>
					<stop  offset="0.5108" style="stop-color:#FBC7BA"/>
					<stop  offset="1" style="stop-color:#A07098"/>
				</linearGradient>
				<path id="XMLID_52_" fill="url(#XMLID_134_)" d="M762.3,799.1c6.5-6.5-13.8-18.7-24.2-29.1c-2.5,2.5-2.5,2.5-2.5,2.5
					s0,0-2.5,2.5C743.6,785.4,755.8,805.7,762.3,799.1z"/>
				
					<linearGradient id="XMLID_135_" gradientUnits="userSpaceOnUse" x1="-271.145" y1="1680.2985" x2="-271.145" y2="1729.9119" gradientTransform="matrix(-0.7071 0.7071 0.7071 0.7071 -680.9287 -260.6705)">
					<stop  offset="0" style="stop-color:#FFFFFF"/>
					<stop  offset="0.5108" style="stop-color:#FBC7BA"/>
					<stop  offset="1" style="stop-color:#A07098"/>
				</linearGradient>
				<path id="XMLID_51_" fill="url(#XMLID_135_)" d="M705.6,742.4c6.5-6.5,18.7,13.8,29.1,24.2c-2.5,2.5-2.5,2.5-2.5,2.5
					s0,0-2.5,2.5C719.4,761.1,699,748.9,705.6,742.4z"/>
				
					<linearGradient id="XMLID_136_" gradientUnits="userSpaceOnUse" x1="709.1294" y1="653.3669" x2="709.1294" y2="681.1168" gradientTransform="matrix(0.7071 0.7071 -0.7071 0.7071 705.7077 -203.8306)">
					<stop  offset="0" style="stop-color:#FFFFFF"/>
					<stop  offset="0.5108" style="stop-color:#FBC7BA"/>
					<stop  offset="1" style="stop-color:#A07098"/>
				</linearGradient>
				<circle id="XMLID_50_" fill="url(#XMLID_136_)" cx="734" cy="770.8" r="10.5"/>
			</g>
			<linearGradient id="XMLID_137_" gradientUnits="userSpaceOnUse" x1="669.5808" y1="621.3032" x2="669.5808" y2="636.3652">
				<stop  offset="0" style="stop-color:#FFFFFF"/>
				<stop  offset="0.5108" style="stop-color:#FBC7BA"/>
				<stop  offset="1" style="stop-color:#A07098"/>
			</linearGradient>
			<path id="XMLID_61_" fill="url(#XMLID_137_)" d="M709.6,622.2c-1-1-2.5-1.1-3.7-0.3c-4.1,2.8-15.1,8.8-36.4,8.8
				c-21.1,0-32.3-6-36.4-8.8c-1.1-0.8-2.7-0.6-3.6,0.3l0,0c-1.3,1.3-1.1,3.4,0.4,4.4c5,3.4,17.2,9.8,39.6,9.8
				c22.5,0,34.7-6.4,39.6-9.8C710.7,625.5,710.9,623.4,709.6,622.2L709.6,622.2z"/>
			<linearGradient id="XMLID_138_" gradientUnits="userSpaceOnUse" x1="583.1367" y1="627.0801" x2="583.1367" y2="640.9058">
				<stop  offset="0" style="stop-color:#FFFFFF"/>
				<stop  offset="1" style="stop-color:#FBC7BA"/>
			</linearGradient>
			<polygon id="XMLID_57_" fill="url(#XMLID_138_)" points="590,627.1 572.9,632.3 576.1,640.9 593.3,637.1 			"/>
		</g>
		<linearGradient id="XMLID_139_" gradientUnits="userSpaceOnUse" x1="585.155" y1="783.9282" x2="585.155" y2="1092.9489">
			<stop  offset="0" style="stop-color:#FFFFFF"/>
			<stop  offset="1" style="stop-color:#FBC7BA"/>
		</linearGradient>
		<path id="XMLID_104_" fill="url(#XMLID_139_)" d="M803.6,969.8l-62.5,15.8l-158-107L431.5,1070c-33,15.6-64.7,27.6-64.7,27.6
			L538,863.2c19.9-27.2,57.8-33.8,85.8-14.9L803.6,969.8z"/>
		<linearGradient id="XMLID_140_" gradientUnits="userSpaceOnUse" x1="636.7875" y1="774.0964" x2="622.7874" y2="1034.097">
			<stop  offset="0" style="stop-color:#FFFFFF"/>
			<stop  offset="1" style="stop-color:#FBC7BA"/>
		</linearGradient>
		<path id="XMLID_105_" fill="url(#XMLID_140_)" d="M815.2,977.7l-126.5,79.2L580,917.2c0,0-57.3,80.1-78.3,108.6
			c-9.9,13.5-40.6,30.3-70.3,44.2l151.7-191.4l158,107l62.5-15.8L815.2,977.7z"/>
		<linearGradient id="XMLID_141_" gradientUnits="userSpaceOnUse" x1="228.9995" y1="1079.84" x2="1517.3678" y2="1079.84">
			<stop  offset="0" style="stop-color:#FBC7BA"/>
			<stop  offset="0.5376" style="stop-color:#A87B93"/>
			<stop  offset="1" style="stop-color:#724664"/>
		</linearGradient>
		<path id="XMLID_110_" fill="url(#XMLID_141_)" d="M1228.8,896.8c-5.9,31.2-14.5,61.2-25,89.7c-5.8,15.7-12.3,30.9-19.3,45.6
			c-65.7,138.4-178.9,230.9-267.1,230.9c-114.5,0-508.2,0-508.2,0s-129.5-10.4-178.4-168.7c-8.1-26.3-14-56.7-16.8-91.8
			c-1.1-14.1-1.7-29-1.7-44.7c178.8,0,415.8-13.6,616-28c26-1.9,51.3-3.7,75.8-5.6c67.9-5.2,129.5-10.2,180.4-14.5
			c45.2-3.8,81.8-7.1,106.9-9.4C1215.5,898,1228.8,896.8,1228.8,896.8z"/>
		<linearGradient id="XMLID_142_" gradientUnits="userSpaceOnUse" x1="474.3654" y1="802.7712" x2="1030.3655" y2="1394.7704">
			<stop  offset="0" style="stop-color:#FBC7BA"/>
			<stop  offset="0.5376" style="stop-color:#A87B93"/>
			<stop  offset="1" style="stop-color:#724664"/>
		</linearGradient>
		<path id="XMLID_98_" fill="url(#XMLID_142_)" d="M796.7,1002.9c-125.6,72.9-252.8,118-399.7,152.1c-42.1,9.5-83.6,17.1-124.8,23.1
			c57.9,78.4,137.1,84.8,137.1,84.8s393.7,0,508.2,0c88.2,0,201.4-92.5,267.1-230.9c7-14.7,13.4-29.9,19.3-45.6
			C1088.3,993.6,948.3,999.5,796.7,1002.9z"/>
		<linearGradient id="XMLID_143_" gradientUnits="userSpaceOnUse" x1="277.1969" y1="785.4848" x2="673.1903" y2="1255.0514">
			<stop  offset="0" style="stop-color:#FFFFFF"/>
			<stop  offset="0.5108" style="stop-color:#FBC7BA"/>
			<stop  offset="1" style="stop-color:#A07098"/>
		</linearGradient>
		<path id="XMLID_101_" fill="url(#XMLID_143_)" d="M796.7,1002.9c-184.8,4.1-386.9,4.6-582.6-0.4c2.7,35.1,8.6,65.5,16.8,91.8
			c10.7,34.5,25.2,62,41.3,83.9c41.2-6.1,82.8-13.7,124.8-23.1C543.9,1120.8,671.1,1075.7,796.7,1002.9z"/>
		<linearGradient id="XMLID_144_" gradientUnits="userSpaceOnUse" x1="1009.895" y1="1531" x2="1009.895" y2="883.9142">
			<stop  offset="0" style="stop-color:#FBC7BA"/>
			<stop  offset="0.5376" style="stop-color:#A87B93"/>
			<stop  offset="1" style="stop-color:#724664"/>
		</linearGradient>
		<path id="XMLID_93_" fill="url(#XMLID_144_)" d="M1191.4,900.2c-0.1,0.2-0.3,0.5-0.4,0.7c-22,38.7-157,187.6-169,184
			S864,942.5,852,941.3c-4.2-0.4-13.3-2.9-23.6-5.9c26-2.2,51.3-4.5,75.8-6.7c43.2,29.7,118.8,84.8,118.8,84.8s31-48.9,61.5-102.1
			C1129.7,906.8,1166.3,902.9,1191.4,900.2z"/>
		<linearGradient id="XMLID_145_" gradientUnits="userSpaceOnUse" x1="1102.8052" y1="840.4685" x2="1203.0531" y2="840.4685">
			<stop  offset="0" style="stop-color:#FFFFFF"/>
			<stop  offset="1" style="stop-color:#FBC7BA"/>
		</linearGradient>
		<path id="XMLID_10_" fill="url(#XMLID_145_)" d="M1152,773.6c0,0,30.5,18.4,0,58.5c-30.5,40.1-37.5,79.5-37.5,79.5l102-34.5
			c0,0-0.4-57.1,25.1-87.8C1222.1,757.1,1152,773.6,1152,773.6z"/>
		<g id="XMLID_4_">
			<linearGradient id="XMLID_146_" gradientUnits="userSpaceOnUse" x1="849.8577" y1="913.8774" x2="1217.8568" y2="909.8774">
				<stop  offset="0" style="stop-color:#FFFFFF"/>
				<stop  offset="0.5108" style="stop-color:#FBC7BA"/>
				<stop  offset="1" style="stop-color:#A07098"/>
			</linearGradient>
			<path id="XMLID_86_" fill="url(#XMLID_146_)" d="M1208.5,872.4c-23.2,5.5-57.9,13.3-99.2,21c-16,18-33.1,35.9-46.4,55.6
				c44.7-7,85-15,116.8-22C1189,908.8,1198.9,890.7,1208.5,872.4z"/>
			<linearGradient id="XMLID_147_" gradientUnits="userSpaceOnUse" x1="214.1147" y1="944.197" x2="1596.9335" y2="944.197">
				<stop  offset="0" style="stop-color:#FFFFFF"/>
				<stop  offset="0.5108" style="stop-color:#FBC7BA"/>
				<stop  offset="1" style="stop-color:#A07098"/>
			</linearGradient>
			<path id="XMLID_62_" fill="url(#XMLID_147_)" d="M630.5,920.8H202c-12.9,0-23.4,10.5-23.4,23.4c0,12.9,10.5,23.4,23.4,23.4h650.1
				c0,0,36.1-0.5,54.3-1.5c-24.1-15.4-48.9-29.6-72.7-45.3H630.5z"/>
			<linearGradient id="XMLID_148_" gradientUnits="userSpaceOnUse" x1="906.2104" y1="1057.0728" x2="906.2104" y2="940.6088">
				<stop  offset="0" style="stop-color:#FFFFFF"/>
				<stop  offset="0.5108" style="stop-color:#FBC7BA"/>
				<stop  offset="1" style="stop-color:#A07098"/>
			</linearGradient>
			<path id="XMLID_92_" fill="url(#XMLID_148_)" d="M852.1,920.8h-18.5c23.9,15.7,48.6,29.9,72.7,45.3c24.3-1.3,48.5-3.3,72.3-5.8
				c-23.4-12.5-46.4-25.9-68.1-41.3C891,920.2,871.4,920.8,852.1,920.8z"/>
			<linearGradient id="XMLID_149_" gradientUnits="userSpaceOnUse" x1="214.1145" y1="926.8741" x2="1596.9362" y2="926.8741">
				<stop  offset="0" style="stop-color:#FFFFFF"/>
				<stop  offset="0.5108" style="stop-color:#FBC7BA"/>
				<stop  offset="1" style="stop-color:#A07098"/>
			</linearGradient>
			<path id="XMLID_94_" fill="url(#XMLID_149_)" d="M1109.3,893.5c-3.1,0.6-6.1,1.1-9.3,1.7c-56,10.2-122.9,19.9-189.4,23.8
				c21.7,15.3,44.7,28.8,68.1,41.3c29-3.1,57.4-7,84.1-11.2C1076.2,929.4,1093.3,911.5,1109.3,893.5z"/>
			<linearGradient id="XMLID_150_" gradientUnits="userSpaceOnUse" x1="403.1055" y1="895.467" x2="1785.9244" y2="895.467">
				<stop  offset="0" style="stop-color:#FFFFFF"/>
				<stop  offset="0.5108" style="stop-color:#FBC7BA"/>
				<stop  offset="1" style="stop-color:#A07098"/>
			</linearGradient>
			<path id="XMLID_88_" fill="url(#XMLID_150_)" d="M1268.4,881.1c-3.4-12.5-16.2-19.8-28.7-16.4c-0.5,0.1-11.8,3.2-31.2,7.8
				c-9.6,18.2-19.5,36.3-28.9,54.7c42-9.2,69.3-16.5,72.3-17.3C1264.4,906.4,1271.8,893.6,1268.4,881.1z"/>
		</g>
		<g id="XMLID_13_">
			<linearGradient id="XMLID_151_" gradientUnits="userSpaceOnUse" x1="787.8339" y1="928.0791" x2="787.8339" y2="898.0806">
				<stop  offset="0" style="stop-color:#FFFFFF"/>
				<stop  offset="0.5108" style="stop-color:#FBC7BA"/>
				<stop  offset="1" style="stop-color:#A07098"/>
			</linearGradient>
			<path id="XMLID_95_" fill="url(#XMLID_151_)" d="M817.6,920.3c-1.8-1.1-22.1-5.3-23.7-8.7c-1-2.1-0.3-32.7,3.2-57.8
				c-2.9,0.1-5.9,0.1-8.8,0c-0.3,25.2-4.1,55-5.4,57c-2.1,3.2-22.8,4.4-24.7,5.2c-1.9,0.8-1.9,6.8,29.2,9.5
				C818.5,927.3,819.4,921.3,817.6,920.3z"/>
			<linearGradient id="XMLID_152_" gradientUnits="userSpaceOnUse" x1="798.4769" y1="846" x2="798.4769" y2="740.9807">
				<stop  offset="0" style="stop-color:#FBC7BA"/>
				<stop  offset="0.2151" style="stop-color:#F48590"/>
				<stop  offset="1" style="stop-color:#AB0F14"/>
			</linearGradient>
			<path id="XMLID_87_" fill="url(#XMLID_152_)" d="M770.2,759c-5,34.5-1.1,47.8,13,61.1c4.1,3.9,5.3,17.9,5.1,33.7
				c2.9,0.2,5.9,0.1,8.8,0c2.2-15.5,5.4-28.8,10-32c16.4-11.4,22-24.4,21.7-61.9C809.3,759.1,789.8,759,770.2,759z"/>
			<linearGradient id="XMLID_153_" gradientUnits="userSpaceOnUse" x1="799.5182" y1="707.59" x2="799.5182" y2="801.0198">
				<stop  offset="0" style="stop-color:#FFFFFF"/>
				<stop  offset="0.5108" style="stop-color:#FBC7BA"/>
				<stop  offset="1" style="stop-color:#F48590"/>
			</linearGradient>
			<path id="XMLID_99_" fill="url(#XMLID_153_)" d="M827.2,722.1l-24.7-1.8l-24.7-1.8c-3.4,16.2-5.9,29.4-7.6,40.5
				c19.5,0,39,0.1,58.5,0.9C828.7,749.4,828.1,737,827.2,722.1z"/>
			
				<linearGradient id="XMLID_154_" gradientUnits="userSpaceOnUse" x1="824.717" y1="670.2662" x2="824.717" y2="721.9268" gradientTransform="matrix(0.9973 7.280000e-002 -7.280000e-002 0.9973 29.9777 -24.2035)">
				<stop  offset="0" style="stop-color:#FFFFFF"/>
				<stop  offset="0.5108" style="stop-color:#FBC7BA"/>
				<stop  offset="1" style="stop-color:#F48590"/>
			</linearGradient>
			<path id="XMLID_11_" fill="url(#XMLID_154_)" d="M827.2,722.1c-0.3,3.5-11.5,5.6-25.2,4.6c-13.6-1-24.5-4.7-24.2-8.2
				c0.3-3.5,11.5-5.6,25.2-4.6C816.6,714.9,827.5,718.6,827.2,722.1z"/>
		</g>
		<g id="XMLID_5_">
			
				<linearGradient id="XMLID_155_" gradientUnits="userSpaceOnUse" x1="1041.7416" y1="689.952" x2="1153.4008" y2="664.8287" gradientTransform="matrix(0.9777 0.21 -0.21 0.9777 203.0643 -248.7806)">
				<stop  offset="0" style="stop-color:#FBC7BA"/>
				<stop  offset="0.5376" style="stop-color:#A87B93"/>
				<stop  offset="1" style="stop-color:#724664"/>
			</linearGradient>
			<path id="XMLID_6_" fill="url(#XMLID_155_)" d="M1146.4,624c-9.9,15.5-30.7,22.5-30.7,22.5l21.3,17.3L1146.4,624z"/>
			
				<linearGradient id="XMLID_156_" gradientUnits="userSpaceOnUse" x1="1072.208" y1="724.0141" x2="1195.3424" y2="724.0141" gradientTransform="matrix(0.9777 0.21 -0.21 0.9777 203.0643 -248.7806)">
				<stop  offset="0" style="stop-color:#FFFFFF"/>
				<stop  offset="1" style="stop-color:#FBC7BA"/>
			</linearGradient>
			<path id="XMLID_7_" fill="url(#XMLID_156_)" d="M1137,663.8c0,0-1.8,8.2-5.4,25.2c-3.7,17.1-24.3,26.9-24.3,26.9l14.2,13.4
				l-3.9,14.7l5,3.5l-3,8.5l3.9,2l2.4,26c0,0,76.4,25.3,116.4-28.4c23.6-31.7,30.3-53.9,31.2-80.8
				C1275.5,612.4,1155.1,579.2,1137,663.8z"/>
			<linearGradient id="XMLID_157_" gradientUnits="userSpaceOnUse" x1="1234.1802" y1="484.5204" x2="1235.6799" y2="811.5039">
				<stop  offset="0" style="stop-color:#FBC7BA"/>
				<stop  offset="0.5376" style="stop-color:#A87B93"/>
				<stop  offset="1" style="stop-color:#724664"/>
			</linearGradient>
			<path id="XMLID_89_" fill="url(#XMLID_157_)" d="M1259,618.4c0.8,24.1-0.6,48-6,72.6c-10,42-22,94-68,107
				c-6.8,1.4-13.5,2.7-20.2,4c12.1,2.6,25,5.4,36.4,7.8c33.4,7.2,88.7-30.9,102.2-93.7C1313.6,668.9,1291.5,636.2,1259,618.4z"/>
			<linearGradient id="XMLID_158_" gradientUnits="userSpaceOnUse" x1="1190.3389" y1="569.838" x2="1190.3389" y2="846.178">
				<stop  offset="0" style="stop-color:#FBC7BA"/>
				<stop  offset="0.5376" style="stop-color:#A87B93"/>
				<stop  offset="1" style="stop-color:#724664"/>
			</linearGradient>
			<path id="XMLID_90_" fill="url(#XMLID_158_)" d="M1253,691c5.4-24.6,6.8-48.6,6-72.6c-10.7-5.9-22.5-10.1-34.6-12.7
				c-49.1-10.6-84.5,4.7-96.1,58.6l62.8,13.5c0,0-8.1,37.5-15.2,71c-7.2,33.4-54.4,44-54.4,44s20.1,4.3,43.4,9.3
				c6.7-1.3,13.4-2.5,20.2-4C1231,785,1243,733,1253,691z"/>
		</g>
		<linearGradient id="XMLID_159_" gradientUnits="userSpaceOnUse" x1="1346.5581" y1="826.0841" x2="1346.5581" y2="826.0841">
			<stop  offset="0" style="stop-color:#FFFFFF"/>
			<stop  offset="0.5108" style="stop-color:#FBC7BA"/>
			<stop  offset="1" style="stop-color:#F48590"/>
		</linearGradient>
		<path id="XMLID_9_" fill="url(#XMLID_159_)" d="M1346.6,826.1"/>
		<linearGradient id="XMLID_160_" gradientUnits="userSpaceOnUse" x1="716.9752" y1="891.2477" x2="1117.0283" y2="891.2477">
			<stop  offset="0" style="stop-color:#FFFFFF"/>
			<stop  offset="1" style="stop-color:#FBC7BA"/>
		</linearGradient>
		<path id="XMLID_100_" fill="url(#XMLID_160_)" d="M775,855c1,4,5,7,8,10c19,18,46,18,67,30c61,33,113,76,176,107c1,1,6-4,10-8
			c5-5,8-11,14-16c48-38,83-84,110-137c4.8-9.5,8.9-21,7.4-32.3c-8.4-0.8-17.3,1.4-25.7,7.5c-16.2,11.9-31.9,30.5-48.7,55.6
			c-33,49.2-70,98.2-70,98.2s-142-86.8-148-86.8s-17-24.9-25-32.9s-41.3-23.2-48.2-30.4c-8.3,12.2,1.2,24.4,1.2,24.4
			s-11.2-5-14.1-12c-2.9-7-11.5-26.3-16.2-39.6c-4.7-13.4-17.7-12.4-17.7-12.4l10,45.9l-1.3,2.3c0.1,0.2,0.2,0.3,0.3,0.5
			C769,837,772,846,775,855z"/>
		<linearGradient id="XMLID_161_" gradientUnits="userSpaceOnUse" x1="1155.3912" y1="685.647" x2="1155.3912" y2="694.8896">
			<stop  offset="0" style="stop-color:#FBC7BA"/>
			<stop  offset="0.5376" style="stop-color:#A87B93"/>
			<stop  offset="1" style="stop-color:#724664"/>
		</linearGradient>
		<path id="XMLID_14_" fill="url(#XMLID_161_)" d="M1143.3,687.3c0,0,2.3,4.5,10,4.8s15.5-2.4,15.5-2.4s-10.3,5.9-17,5.4
			S1139.5,691,1143.3,687.3z"/>
		<linearGradient id="XMLID_162_" gradientUnits="userSpaceOnUse" x1="1167.1202" y1="748.7408" x2="1080.1246" y2="739.7414">
			<stop  offset="0" style="stop-color:#FFFFFF"/>
			<stop  offset="0.5108" style="stop-color:#FBC7BA"/>
			<stop  offset="1" style="stop-color:#F48590"/>
		</linearGradient>
		<path id="XMLID_17_" fill="url(#XMLID_162_)" d="M1122.5,747.5c0,0,17.3-1,23-3.8c-15.8-1.8-23-3-23-3l-5,3.3L1122.5,747.5z"/>
		<g id="XMLID_21_">
			<linearGradient id="XMLID_163_" gradientUnits="userSpaceOnUse" x1="1235.7166" y1="405.0165" x2="1255.8083" y2="405.0165">
				<stop  offset="0" style="stop-color:#FBC7BA"/>
				<stop  offset="0.5376" style="stop-color:#A87B93"/>
				<stop  offset="1" style="stop-color:#724664"/>
			</linearGradient>
			<path id="XMLID_32_" fill-rule="evenodd" clip-rule="evenodd" fill="url(#XMLID_163_)" d="M1241,387.8h9.6c2.9,0,5.3,2.4,5.3,5.3
				v23.8c0,2.9-2.4,5.3-5.3,5.3h-9.6c-2.9,0-5.3-2.4-5.3-5.3v-23.8C1235.7,390.2,1238.1,387.8,1241,387.8"/>
			<linearGradient id="XMLID_164_" gradientUnits="userSpaceOnUse" x1="1167.4127" y1="405.0165" x2="1187.5045" y2="405.0165">
				<stop  offset="0" style="stop-color:#FBC7BA"/>
				<stop  offset="0.2151" style="stop-color:#F48590"/>
				<stop  offset="1" style="stop-color:#AB0F14"/>
			</linearGradient>
			<path id="XMLID_31_" fill-rule="evenodd" clip-rule="evenodd" fill="url(#XMLID_164_)" d="M1172.7,387.8h9.6
				c2.9,0,5.3,2.4,5.3,5.3v23.8c0,2.9-2.4,5.3-5.3,5.3h-9.6c-2.9,0-5.3-2.4-5.3-5.3v-23.8C1167.4,390.2,1169.8,387.8,1172.7,387.8"
				/>
			<linearGradient id="XMLID_165_" gradientUnits="userSpaceOnUse" x1="1213.6937" y1="58.5805" x2="1213.6937" y2="361.5804">
				<stop  offset="0" style="stop-color:#FFFFFF"/>
				<stop  offset="0.5108" style="stop-color:#FBC7BA"/>
				<stop  offset="1" style="stop-color:#A07098"/>
			</linearGradient>
			<path id="XMLID_30_" fill-rule="evenodd" clip-rule="evenodd" fill="url(#XMLID_165_)" d="M1176.1,63.6h75.3
				c44.2,0,80.3,36.1,80.3,80.3v175.6c0,44.2-36.1,80.3-80.3,80.3h-75.3c-44.2,0-80.3-36.1-80.3-80.3V143.9
				C1095.8,99.7,1131.9,63.6,1176.1,63.6"/>
			<linearGradient id="XMLID_166_" gradientUnits="userSpaceOnUse" x1="1209.6144" y1="34.9998" x2="1209.6144" y2="358.9998">
				<stop  offset="0" style="stop-color:#FFFFFF"/>
				<stop  offset="0.5108" style="stop-color:#FBC7BA"/>
				<stop  offset="1" style="stop-color:#A07098"/>
			</linearGradient>
			<path id="XMLID_29_" fill-rule="evenodd" clip-rule="evenodd" fill="url(#XMLID_166_)" d="M1176.1,63.6h67.1
				c44.2,0,80.3,36.1,80.3,80.3v175.6c0,44.2-36.1,80.3-80.3,80.3h-67.1c-44.2,0-80.3-36.1-80.3-80.3V143.9
				C1095.8,99.7,1131.9,63.6,1176.1,63.6"/>
			<linearGradient id="XMLID_167_" gradientUnits="userSpaceOnUse" x1="1205.906" y1="60.0805" x2="1205.906" y2="399.6255">
				<stop  offset="0" style="stop-color:#FFFFFF"/>
				<stop  offset="0.5108" style="stop-color:#FBC7BA"/>
				<stop  offset="1" style="stop-color:#A07098"/>
			</linearGradient>
			<path id="XMLID_28_" fill-rule="evenodd" clip-rule="evenodd" fill="url(#XMLID_167_)" d="M1176.1,63.6h59.7
				c44.2,0,80.3,36.1,80.3,80.3v175.6c0,44.2-36.1,80.3-80.3,80.3h-59.7c-44.2,0-80.3-36.1-80.3-80.3V143.9
				C1095.8,99.7,1131.9,63.6,1176.1,63.6"/>
			<linearGradient id="XMLID_168_" gradientUnits="userSpaceOnUse" x1="1210.8269" y1="43.5815" x2="1210.8269" y2="594.0524">
				<stop  offset="0" style="stop-color:#FFFFFF"/>
				<stop  offset="0.5108" style="stop-color:#FBC7BA"/>
				<stop  offset="1" style="stop-color:#A07098"/>
			</linearGradient>
			<path id="XMLID_27_" fill-rule="evenodd" clip-rule="evenodd" fill="url(#XMLID_168_)" d="M1185.9,63.6h49.8
				c44.2,0,80.3,36.1,80.3,80.3v175.6c0,44.2-36.1,80.3-80.3,80.3h-49.8c-44.2,0-80.3-36.1-80.3-80.3V143.9
				C1105.6,99.7,1141.7,63.6,1185.9,63.6"/>
			<linearGradient id="XMLID_169_" gradientUnits="userSpaceOnUse" x1="1180.408" y1="310.0775" x2="1246.9795" y2="310.0775">
				<stop  offset="0" style="stop-color:#FBC7BA"/>
				<stop  offset="0.2151" style="stop-color:#F48590"/>
				<stop  offset="1" style="stop-color:#AB0F14"/>
			</linearGradient>
			<path id="XMLID_26_" fill-rule="evenodd" clip-rule="evenodd" fill="url(#XMLID_169_)" d="M1204.1,235.4h19.2
				c13,0,23.7,10.6,23.7,23.7V361c0,13-10.6,23.7-23.7,23.7h-19.2c-13,0-23.7-10.6-23.7-23.7V259.1
				C1180.4,246.1,1191.1,235.4,1204.1,235.4"/>
			<linearGradient id="XMLID_170_" gradientUnits="userSpaceOnUse" x1="1208.3092" y1="402.0635" x2="1208.3092" y2="173.7594">
				<stop  offset="0" style="stop-color:#FBC7BA"/>
				<stop  offset="0.2151" style="stop-color:#F48590"/>
				<stop  offset="1" style="stop-color:#AB0F14"/>
			</linearGradient>
			<path id="XMLID_25_" fill-rule="evenodd" clip-rule="evenodd" fill="url(#XMLID_170_)" d="M1204.1,235.4h8.5
				c13,0,23.7,8.9,23.7,19.8v109.6c0,10.9-10.6,19.8-23.7,19.8h-8.5c-13,0-23.7-8.9-23.7-19.8V255.3
				C1180.4,244.4,1191.1,235.4,1204.1,235.4"/>
			<path id="XMLID_24_" fill-rule="evenodd" clip-rule="evenodd" fill="#D1D3D4" d="M1213.7,326.9c10.9,0,19.8,8.8,19.8,19.8
				c0,10.9-8.8,19.8-19.8,19.8c-10.9,0-19.8-8.8-19.8-19.8C1193.9,335.8,1202.8,326.9,1213.7,326.9"/>
			<path id="XMLID_23_" fill-rule="evenodd" clip-rule="evenodd" fill="#F9F8F8" d="M1213.7,326.9c3.1,0,6,0.7,8.6,2
				c5.3,3.5,8.8,9.6,8.8,16.4c0,10.9-8.8,19.8-19.8,19.8c-3.1,0-6-0.7-8.6-2c-5.3-3.5-8.8-9.6-8.8-16.4
				C1193.9,335.8,1202.8,326.9,1213.7,326.9"/>
			<path id="XMLID_22_" fill-rule="evenodd" clip-rule="evenodd" fill="#EF423D" d="M1202.1,334.7c1,0,1.9,0.8,1.9,1.9
				c0,1-0.8,1.9-1.9,1.9c-1,0-1.9-0.8-1.9-1.9C1200.3,335.5,1201.1,334.7,1202.1,334.7"/>
		</g>
		<g id="XMLID_69_">
			<linearGradient id="XMLID_171_" gradientUnits="userSpaceOnUse" x1="694.4209" y1="684.8177" x2="694.4209" y2="-197.3998">
				<stop  offset="0" style="stop-color:#FBC7BA"/>
				<stop  offset="0.5376" style="stop-color:#A87B93"/>
				<stop  offset="1" style="stop-color:#724664"/>
			</linearGradient>
			<rect id="XMLID_59_" x="491.8" y="107" fill="url(#XMLID_171_)" width="405.1" height="479.4"/>
			<linearGradient id="XMLID_172_" gradientUnits="userSpaceOnUse" x1="694.425" y1="525.8016" x2="694.425" y2="157.0089">
				<stop  offset="0" style="stop-color:#FFFFFF"/>
				<stop  offset="0.5108" style="stop-color:#FBC7BA"/>
				<stop  offset="1" style="stop-color:#F48590"/>
			</linearGradient>
			<rect id="XMLID_97_" x="514.2" y="134.4" fill="url(#XMLID_172_)" width="360.4" height="424.6"/>
			<polygon id="XMLID_91_" opacity="0.46" fill="#F1F2F2" points="874.6,134.4 874.6,211 580.6,559 514.2,559 514.2,468.6 
				796.6,134.4 			"/>
			<linearGradient id="XMLID_173_" gradientUnits="userSpaceOnUse" x1="586.131" y1="561.3949" x2="586.131" y2="470.7255">
				<stop  offset="0" style="stop-color:#FBC7BA"/>
				<stop  offset="0.2151" style="stop-color:#F48590"/>
				<stop  offset="1" style="stop-color:#AB0F14"/>
			</linearGradient>
			<polygon id="XMLID_66_" fill="url(#XMLID_173_)" points="586.1,496.4 546.2,496.4 557.8,559 586.1,559 614.5,559 626,496.4 			
				"/>
			<linearGradient id="XMLID_174_" gradientUnits="userSpaceOnUse" x1="583.7448" y1="379.3949" x2="583.7448" y2="507.8669">
				<stop  offset="0" style="stop-color:#FFFFFF"/>
				<stop  offset="0.5108" style="stop-color:#FBC7BA"/>
				<stop  offset="1" style="stop-color:#A07098"/>
			</linearGradient>
			<path id="XMLID_76_" fill="url(#XMLID_174_)" d="M615.5,477.8c-0.6-15.4-2.6-38-9-57.8c1,19.5,0.7,38.6,0.1,52.8l-3.2-23.2
				c0.9-4.5,1.9-9.1,3.1-13.6c-1.4,2.3-2.7,5-3.9,8l-3.1-22.3l-2.4,38.2c-2.8,9.6-5,19.4-6.4,26.5c0.1-14.3-0.9-34.1-5.8-53.2
				c2-8.8,4.4-16.7,7.2-22.1c-3.7,4-7,8.5-9.8,13.3c-1.7-5.2-3.7-10.2-6.2-15c1.9,5.8,3.1,12.2,4,18.9c-3.5,6.7-6.3,13.8-8.5,20.8
				c-1.4-9.6-3.4-19.7-6.5-29.1c1.1,21.6,0.6,42.7-0.1,57.2c-2.5-6.4-4.8-13.9-5.9-21.5c-3-20.7,0-44.7,0-44.7s-6.1,19.7-5.6,44.4
				c-3.1-6.9-6.6-13.5-10.4-18.5c5.4,15.6,9,30.9,11.3,41.9c-5.1-3.3-12-5.3-21.3-4.1c12.5,1.7,24.8,21.7,24.8,21.7h3.9h2h3.7h6.7h0
				h2c0,0,1.6-22.4,5.3-45.2c0.1,24-3.3,45.2-3.3,45.2h10.7h1.7h4.3h4h6.3h4.7h5.7h4.3c0,0,4-28.7,14.3-58.7
				C626.5,448,619.9,464.9,615.5,477.8z"/>
			<linearGradient id="XMLID_175_" gradientUnits="userSpaceOnUse" x1="690.5062" y1="338.9401" x2="690.5062" y2="522.814">
				<stop  offset="0" style="stop-color:#FFFFFF"/>
				<stop  offset="0.5108" style="stop-color:#FBC7BA"/>
				<stop  offset="1" style="stop-color:#A07098"/>
			</linearGradient>
			<path id="XMLID_64_" fill="url(#XMLID_175_)" d="M685.7,504.4l-4.5-21c0,0-18.1-8.5-13.8-36.5s17.3-25.5,18.3-12.5
				s-4.5,23.5,0,25c4.5-20.5-0.5-68,7-75s22-1,21.5,38.5s-6.9,73.5-6.9,73.5v10L685.7,504.4z"/>
			<linearGradient id="XMLID_176_" gradientUnits="userSpaceOnUse" x1="696.8071" y1="561.3949" x2="696.8071" y2="470.7255">
				<stop  offset="0" style="stop-color:#FBC7BA"/>
				<stop  offset="0.2151" style="stop-color:#F48590"/>
				<stop  offset="1" style="stop-color:#AB0F14"/>
			</linearGradient>
			<polygon id="XMLID_65_" fill="url(#XMLID_176_)" points="696.8,496.4 656.9,496.4 668.4,559 696.8,559 725.2,559 736.7,496.4 			
				"/>
			<linearGradient id="XMLID_177_" gradientUnits="userSpaceOnUse" x1="800.6612" y1="388.6253" x2="800.6612" y2="512.6786">
				<stop  offset="0" style="stop-color:#FFFFFF"/>
				<stop  offset="0.5108" style="stop-color:#FBC7BA"/>
				<stop  offset="1" style="stop-color:#A07098"/>
			</linearGradient>
			<path id="XMLID_63_" fill="url(#XMLID_177_)" d="M788.2,506.4c0,0-50.1-19.5-51.6-37c-1.4-17.5,46.6,27,45.1,27s-29.5-29-31-39
				s22.5,11.5,22.5,11.5s-12.5-40-7.5-47.5s24.5,45,25,57.5c-5.5-43,10.6-45.5,10.8-37c10.7-39.5,30.2-40.5,20.7,2.2
				s-9.5,42.8-9.5,42.8s14-45.5,23.5-48s-6.5,47.5-6.5,47.5s26.5-40.5,34-30s-33.5,47-33.5,47L788.2,506.4z"/>
			<linearGradient id="XMLID_178_" gradientUnits="userSpaceOnUse" x1="801.5617" y1="561.3949" x2="801.5617" y2="470.7255">
				<stop  offset="0" style="stop-color:#FBC7BA"/>
				<stop  offset="0.2151" style="stop-color:#F48590"/>
				<stop  offset="1" style="stop-color:#AB0F14"/>
			</linearGradient>
			<polygon id="XMLID_68_" fill="url(#XMLID_178_)" points="801.6,496.4 761.7,496.4 773.2,559 801.6,559 829.9,559 841.4,496.4 			
				"/>
		</g>
		<g id="XMLID_12_">
			<g id="XMLID_71_">
				<linearGradient id="XMLID_179_" gradientUnits="userSpaceOnUse" x1="177.0643" y1="545.4592" x2="177.0643" y2="1054.6445">
					<stop  offset="0" style="stop-color:#FBC7BA"/>
					<stop  offset="0.2151" style="stop-color:#F48590"/>
					<stop  offset="1" style="stop-color:#AB0F14"/>
				</linearGradient>
				<path id="XMLID_73_" fill="url(#XMLID_179_)" d="M272.3,545.6c-47.8,50.6-84.3,110.3-111.5,174.2c-13.6,32-25.4,64.8-35.9,98.1
					c-11.1,35.3-21.9,70.9-30.1,107c-4.8,21.4-8.8,43-11.3,64.9c-1.2,10.7-2.3,21.6-2.3,32.4c0,11.2,2,22.1,4.2,33
					c0.4,2,3.1,1.3,3.3-0.4c0.9-9.6,2.6-19.1,3.3-28.7c0.7-9.5,1.2-19.1,2.1-28.6c1.8-19.5,4.9-39,8.7-58.3
					c7.2-35.9,16-71.6,26.5-106.6c19.6-65.8,44.4-130.2,77.6-190.5c18.7-33.9,40.5-66.4,65.7-95.8
					C273.1,545.7,272.6,545.2,272.3,545.6L272.3,545.6z"/>
			</g>
			<g id="XMLID_70_">
				<linearGradient id="XMLID_180_" gradientUnits="userSpaceOnUse" x1="243.1827" y1="410.5069" x2="243.1827" y2="651.9884">
					<stop  offset="0" style="stop-color:#FBC7BA"/>
					<stop  offset="0.2151" style="stop-color:#F48590"/>
					<stop  offset="1" style="stop-color:#AB0F14"/>
				</linearGradient>
				<path id="XMLID_80_" fill="url(#XMLID_180_)" d="M290.3,461.2c-1.5,10.9,0.2,22.6-3,33.5c-4,10-22,6-26-3
					c-3.9-7.3-6.9-14.9-7.7-22.6c-10.8,3.1-21.3,7-30.7,11.9c-3.5,12,2.6,26.5,6.4,38.7c3,9,1,22-10,20
					c-16.9-4.2-26.6-18.4-27.5-35.3c-11.6,11.1-21.5,22.4-29.5,33.4c3.7,14.2,14.6,26,25,37.8c10,10-5,22-16,20
					c-11.7-3.2-23.1-8.9-30.7-17.3c-6.3,19.1-5.7,35.9,2.5,47.5c18.6,26.4,64.1,7.3,67.6,5.8C244.2,564,292.4,504.9,350,456.3
					C342.1,456.4,317.9,457,290.3,461.2z"/>
				<linearGradient id="XMLID_181_" gradientUnits="userSpaceOnUse" x1="295.5774" y1="399.6284" x2="295.5774" y2="698.3973">
					<stop  offset="0" style="stop-color:#FBC7BA"/>
					<stop  offset="0.2151" style="stop-color:#F48590"/>
					<stop  offset="1" style="stop-color:#AB0F14"/>
				</linearGradient>
				<path id="XMLID_83_" fill="url(#XMLID_181_)" d="M348.4,575.7c8.8,1.3,17.1-0.2,24.9-3.7c4.7-14,7.4-28.7,7.2-43.6
					c-12.3,7.9-28,10.3-39,1.4c-4-3-1-13,5-16c10.6-4.5,22.9-10.2,27.8-20.1c-4.4-12.6-11.4-25.1-21.5-37.3c0,0-1,0-2.7,0
					C292.4,504.9,244.2,564,210.7,631.6c0.1-0.1,0.2-0.1,0.2-0.1s-4.6,51.8,55.4,51.7c7.4,0,17.8-4.2,29.3-11.7
					c-15.5-5.3-29.1-15.6-37.3-29.8c-3-6,0-18,9-16c20.5,6.4,42.6,15.7,64,15c9.9-10.8,19.4-23.3,27.3-36.9
					c-8.9,0-17.9-1.7-26.2-5.1c-10-4-28-14-22-24S335.4,573.7,348.4,575.7z"/>
			</g>
		</g>
		<g id="XMLID_72_">
			<g id="XMLID_78_">
				
					<linearGradient id="XMLID_182_" gradientUnits="userSpaceOnUse" x1="283.5186" y1="436.8205" x2="283.5186" y2="946.0122" gradientTransform="matrix(-0.9588 -0.284 -0.284 0.9588 528.585 131.7449)">
					<stop  offset="0" style="stop-color:#FBC7BA"/>
					<stop  offset="0.2151" style="stop-color:#F48590"/>
					<stop  offset="1" style="stop-color:#AB0F14"/>
				</linearGradient>
				<path id="XMLID_79_" fill="url(#XMLID_182_)" d="M41.4,443.1c31.5,62.1,49.5,129.7,57.4,198.7c4,34.6,6,69.4,6.6,104.2
					c0.6,37,0.9,74.2-1.5,111.1c-1.4,21.9-3.8,43.7-7.6,65.4c-1.9,10.6-4,21.4-7,31.7C86,965,81,974.9,75.8,984.7
					c-1,1.8-3.4,0.4-3.1-1.4c1.8-9.5,2.9-19.1,5-28.5c2-9.4,4.3-18.7,6.1-28.1c3.8-19.2,6.4-38.8,8.2-58.4
					c3.3-36.4,4.9-73.2,4.9-109.8C96.8,690,91.3,621.2,76.5,554c-8.3-37.8-20-75.2-35.8-110.5C40.5,443,41.2,442.7,41.4,443.1
					L41.4,443.1z"/>
			</g>
			<g id="XMLID_74_">
				
					<linearGradient id="XMLID_183_" gradientUnits="userSpaceOnUse" x1="349.6463" y1="301.8689" x2="349.6463" y2="543.349" gradientTransform="matrix(-0.9588 -0.284 -0.284 0.9588 528.585 131.7449)">
					<stop  offset="0" style="stop-color:#FBC7BA"/>
					<stop  offset="0.2151" style="stop-color:#F48590"/>
					<stop  offset="1" style="stop-color:#AB0F14"/>
				</linearGradient>
				<path id="XMLID_77_" fill="url(#XMLID_183_)" d="M48,357.1c-1.7,10.9-6.6,21.6-6.6,32.9c1,10.7,19.4,12,25.8,4.5
					c5.8-5.9,10.8-12.3,13.8-19.5c9.5,6.1,18.5,12.8,26.1,20.1c0,12.5-10,24.7-17.2,35.3c-5.4,7.8-7.2,20.8,3.9,22
					c17.4,0.7,30.7-10.1,36.4-26c8,13.9,14.3,27.5,18.8,40.5c-7.5,12.6-21.4,20.8-34.7,29.2c-12.4,6.7-1.5,22.5,9.7,23.7
					c12.1,0.3,24.6-2,34.4-7.9c0.6,20.2-4.7,36-15.9,44.8c-25.4,20-63.6-11.2-66.4-13.7C63,468.8,33.6,398.4-7.8,335.5
					C-0.3,337.8,22.8,345.2,48,357.1z"/>
				
					<linearGradient id="XMLID_184_" gradientUnits="userSpaceOnUse" x1="402.0406" y1="290.9894" x2="402.0406" y2="589.7619" gradientTransform="matrix(-0.9588 -0.284 -0.284 0.9588 528.585 131.7449)">
					<stop  offset="0" style="stop-color:#FBC7BA"/>
					<stop  offset="0.2151" style="stop-color:#F48590"/>
					<stop  offset="1" style="stop-color:#AB0F14"/>
				</linearGradient>
				<path id="XMLID_75_" fill="url(#XMLID_184_)" d="M-40.1,450.4c-8.8-1.3-16.4-5.1-22.8-10.6c-0.6-14.8,1-29.6,5.5-43.9
					c9.6,11.1,24,17.8,37.1,12.4c4.7-1.7,4.7-12.2-0.3-16.8c-8.9-7.4-19.1-16.3-21-27.2c7.8-10.8,18.1-20.8,31.2-29.6
					c0,0,0.9,0.3,2.6,0.8C33.6,398.4,63,468.8,75.9,543.1c-0.1-0.1-0.2-0.2-0.2-0.2s-10.3,51-67.8,33.9c-7.1-2.1-15.8-9.1-24.8-19.6
					c16.4-0.7,32.4-6.7,44.3-18c4.6-4.9,5.1-17.3-4.1-17.9c-21.5,0.3-45.3,3-65.6-3.8c-6.4-13.2-12-27.8-15.7-43.1
					c8.5,2.6,17.7,3.5,26.6,2.5c10.7-1,30.8-5.5,27.9-16.8C-6.3,448.9-27.1,452.2-40.1,450.4z"/>
			</g>
		</g>
		<g id="XMLID_85_">
			
				<line id="XMLID_84_" fill="none" stroke="#CE4C49" stroke-width="4" stroke-miterlimit="10" x1="908.6" y1="85.9" x2="908.6" y2="422.2"/>
			<linearGradient id="XMLID_185_" gradientUnits="userSpaceOnUse" x1="897.6799" y1="422.2036" x2="919.4802" y2="422.2036">
				<stop  offset="0" style="stop-color:#FBC7BA"/>
				<stop  offset="0.5376" style="stop-color:#A87B93"/>
				<stop  offset="1" style="stop-color:#724664"/>
			</linearGradient>
			<circle id="XMLID_82_" fill="url(#XMLID_185_)" cx="908.6" cy="422.2" r="10.9"/>
		</g>
		<linearGradient id="XMLID_186_" gradientUnits="userSpaceOnUse" x1="694.0908" y1="123" x2="694.0908" y2="20.2966">
			<stop  offset="0" style="stop-color:#FBC7BA"/>
			<stop  offset="0.5376" style="stop-color:#A87B93"/>
			<stop  offset="1" style="stop-color:#724664"/>
		</linearGradient>
		<rect id="XMLID_81_" x="463.1" y="73.1" fill="url(#XMLID_186_)" width="462" height="25.5"/>
		<linearGradient id="XMLID_187_" gradientUnits="userSpaceOnUse" x1="799.6533" y1="804.0001" x2="799.6533" y2="696.9813">
			<stop  offset="0" style="stop-color:#FBC7BA"/>
			<stop  offset="0.2151" style="stop-color:#F48590"/>
			<stop  offset="1" style="stop-color:#AB0F14"/>
		</linearGradient>
		<ellipse id="XMLID_15_" fill="url(#XMLID_187_)" cx="799.7" cy="758.7" rx="29.1" ry="5.7"/>
		<linearGradient id="XMLID_188_" gradientUnits="userSpaceOnUse" x1="647.0186" y1="923.3405" x2="998.0516" y2="923.3405">
			<stop  offset="0" style="stop-color:#FFFFFF"/>
			<stop  offset="1" style="stop-color:#FBC7BA"/>
		</linearGradient>
		<path id="XMLID_96_" fill="url(#XMLID_188_)" d="M1193.3,822.3c-8.4-9.7-24.2-6.5-27.9,5.8c-1.4,4.5-3.3,8.9-5.3,12.9
			c-22.4,44-99.2,126.5-125.3,152.8c-5,5-12.7,6.3-19,3C957.2,966.3,907.6,926.2,850,895c-21-12-48-12-67-30c-3-3-7-6-8-10
			c-3-9-6-18-11-26c-0.1-0.2-0.2-0.3-0.3-0.5l-4.1,7.4c-2.9,5.2-2.7,11.5,0.4,16.5l2.4,3.9c1.6,2.6,2.5,5.6,2.5,8.6v4.3
			c0,5.5,2.7,10.6,7.3,13.6l0,0c0.3,0.2,0.5,0.4,0.8,0.6l10.1,7.6c1.6,1.2,3.5,2.1,5.4,2.7c11.5,3.2,53.1,14.7,63.4,15.6
			c12,1,158,117.6,170,120.6s147-122,169-154.5c2.4-3.5,4.5-6.9,6.3-10.2C1206.3,849.6,1202.8,833.4,1193.3,822.3z"/>
		<g id="XMLID_16_">
			<linearGradient id="XMLID_189_" gradientUnits="userSpaceOnUse" x1="33" y1="1015.3918" x2="221.7321" y2="1015.3918">
				<stop  offset="0" style="stop-color:#FFFFFF"/>
				<stop  offset="0.5108" style="stop-color:#FBC7BA"/>
				<stop  offset="1" style="stop-color:#A07098"/>
			</linearGradient>
			<rect id="XMLID_67_" x="51" y="822.1" fill="url(#XMLID_189_)" width="108" height="386.5"/>
			<linearGradient id="XMLID_190_" gradientUnits="userSpaceOnUse" x1="6.7497" y1="1015.3918" x2="154.8625" y2="1015.3918">
				<stop  offset="0" style="stop-color:#FFFFFF"/>
				<stop  offset="0.5108" style="stop-color:#FBC7BA"/>
				<stop  offset="1" style="stop-color:#A07098"/>
			</linearGradient>
			<rect id="XMLID_19_" x="105" y="822.1" fill="url(#XMLID_190_)" width="54" height="386.5"/>
		</g>
	</g>
</g>
</svg>
