<?xml version="1.0" encoding="utf-8"?>
<!-- Generator: Adobe Illustrator 18.0.0, SVG Export Plug-In . SVG Version: 6.00 Build 0)  -->
<!DOCTYPE svg PUBLIC "-//W3C//DTD SVG 1.1//EN" "http://www.w3.org/Graphics/SVG/1.1/DTD/svg11.dtd">
<svg version="1.1" id="Layer_1" xmlns="http://www.w3.org/2000/svg" xmlns:xlink="http://www.w3.org/1999/xlink" x="0px" y="0px"
	 width="1400px" height="980px" viewBox="0 0 1400 980" enable-background="new 0 0 1400 980" xml:space="preserve">
<rect fill="#FFFFFF" width="1400" height="980"/>
<g>
	<g>
		<g>
			<path fill="#1F1E1F" d="M275,474.5h-7v-99.2l-34.4-19.4l-6.3,18.9l-47,22.1c-13.3,6.3-21.9,19.8-21.9,34.5v43.2h-7v-43.2
				c0-17.4,10.2-33.4,25.9-40.8l44.3-20.9l8-24.1l45.4,25.6V474.5z"/>
		</g>
		<g>
			<path fill="#1F1E1F" d="M391.6,474.5h-7v-43.2c0-14.7-8.6-28.2-21.9-34.5l-47-22.1l-6.3-18.9l-24.3,13.7l-3.4-6.1l31.7-17.9
				l8,24.1l44.3,20.9c15.7,7.4,25.9,23.4,25.9,40.8V474.5z"/>
		</g>
		<g>
			<path fill="#1F1E1F" d="M272.5,346.8c-6,0-12.1-1.6-17.4-4.7c-13.4-7.8-29.4-20.2-29.4-35.8v-45.2h7v45.2
				c0,5.5,3.4,16.7,25.9,29.7c8.6,5,19.3,5,27.9,0c22.6-13,25.9-24.2,25.9-29.7V259h7v47.3c0,15.5-16,28-29.4,35.8
				C284.6,345.2,278.5,346.8,272.5,346.8z"/>
		</g>
		<g>
			<path fill="#1F1E1F" d="M320.2,263.4c-30.1,0-52.6-11-66.6-20.7c-16.5-11.4-24.9-23.3-25.3-23.8l5.7-4l-2.9,2l2.9-2
				c0.3,0.5,32.6,45.2,93.7,41.3l0.4,7C325.4,263.3,322.8,263.4,320.2,263.4z"/>
		</g>
		<g>
			<path fill="#1F1E1F" d="M334.9,258.9c-7-22.1-20-37.4-38.7-45.3c-15.6-6.6-33.4-6.4-48.9,0.7c-15.4,7.1-26.7,19.8-31.7,35.8
				c-0.2,0.7-0.4,1.3-0.6,2l-6.7-1.9c0.2-0.7,0.4-1.5,0.7-2.2c5.6-17.7,18.5-32.3,35.5-40.1c17.2-7.9,37.1-8.2,54.5-0.8
				c20.7,8.8,35,25.5,42.7,49.7L334.9,258.9z"/>
		</g>
		<g>
			<path fill="#1F1E1F" d="M216.1,269.2l-0.2-7c8.8-0.3,17.1-7.6,22.4-13.6c6-6.8,9.8-13.7,9.8-13.7l6.1,3.4
				C253.5,239.4,237.3,268.5,216.1,269.2z"/>
		</g>
		<g>
			<rect x="240.6" y="343.3" fill="#1F1E1F" width="7" height="14.4"/>
		</g>
		<g>
			<rect x="298" y="343.3" fill="#1F1E1F" width="7" height="14.4"/>
		</g>
		<g>
			<path fill="#1F1E1F" d="M297.2,430.7c-6,0-10.9-4.9-10.9-10.9s4.9-10.9,10.9-10.9s10.9,4.9,10.9,10.9
				C308.1,425.9,303.2,430.7,297.2,430.7z M297.2,416c-2.1,0-3.9,1.7-3.9,3.9c0,2.1,1.7,3.9,3.9,3.9c2.1,0,3.9-1.7,3.9-3.9
				C301.1,417.8,299.4,416,297.2,416z"/>
		</g>
		<g>
			<path fill="#1F1E1F" d="M297.2,473.4c-6,0-10.9-4.9-10.9-10.9s4.9-10.9,10.9-10.9s10.9,4.9,10.9,10.9
				C308.1,468.5,303.2,473.4,297.2,473.4z M297.2,458.7c-2.1,0-3.9,1.7-3.9,3.9c0,2.1,1.7,3.9,3.9,3.9c2.1,0,3.9-1.7,3.9-3.9
				C301.1,460.4,299.4,458.7,297.2,458.7z"/>
		</g>
		<g>
			
				<rect x="299.4" y="363.1" transform="matrix(0.4958 0.8684 -0.8684 0.4958 483.741 -70.9221)" fill="#1F1E1F" width="7" height="36"/>
		</g>
		<g>
			
				<rect x="222.9" y="377.6" transform="matrix(0.8685 0.4957 -0.4957 0.8685 220.6397 -69.3038)" fill="#1F1E1F" width="36" height="7"/>
		</g>
		<g>
			<path fill="#1F1E1F" d="M325.9,306.7l-4.1-5.7l5.4-3.9c2.3-1.7,4.9-4.5,5-7.3l0-0.6c0.1-2.7,0.5-9.7-0.7-11.1
				c-1.3-0.7-4.6,0.3-6,1.6l-4.6-5.3c2.9-2.5,9.5-5,14.1-2.3c4.9,2.8,4.5,10.6,4.1,17.5l0,0.6c-0.2,4.5-3.2,9.2-8,12.6L325.9,306.7z
				"/>
		</g>
		<g>
			<path fill="#1F1E1F" d="M219,306.7l-5.4-3.9c-4.7-3.4-7.7-8.1-8-12.6l0-0.6c-0.4-6.9-0.8-14.7,4.1-17.5
				c4.7-2.7,11.2-0.2,14.1,2.3l-4.6,5.3c-1.5-1.2-4.7-2.3-6-1.6c-1.2,1.4-0.8,8.4-0.7,11.1l0,0.6c0.1,2.8,2.7,5.6,5,7.3l5.4,3.9
				L219,306.7z"/>
		</g>
	</g>
	<g>
		<path fill="#1F1E1F" d="M312.8,247.9c-11.9-22.3-40.1-23.9-40.4-23.9l0.3-7c1.3,0.1,32.6,1.8,46.3,27.6L312.8,247.9z"/>
	</g>
</g>
<g>
	<g>
		<g>
			<path fill="#1F1E1F" d="M453.7,474.5h-7v-43.2c0-17.4,10.2-33.4,25.9-40.8l44.3-20.9l8-24.1l45.4,25.6v18.9h-7v-14.8l-34.4-19.4
				l-6.3,18.9l-47,22.1c-13.3,6.3-21.9,19.8-21.9,34.5V474.5z"/>
		</g>
		<g>
			<path fill="#1F1E1F" d="M687,474.5h-7v-43.2c0-14.7-8.6-28.2-21.9-34.5l-47-22.1l-6.3-18.9l-24.3,13.7l-3.4-6.1l31.7-17.9l8,24.1
				l44.3,20.9C676.8,398,687,414,687,431.4V474.5z"/>
		</g>
		<g>
			<path fill="#1F1E1F" d="M567.9,346.8c-6,0-12.1-1.6-17.4-4.7c-13.4-7.8-29.4-20.2-29.4-35.8v-54.1h7v54.1
				c0,5.5,3.4,16.7,25.9,29.7c8.6,5,19.3,5,27.9,0c22.6-13,25.9-24.2,25.9-29.7V259h7v47.3c0,15.5-16,28-29.4,35.8
				C579.9,345.2,573.9,346.8,567.9,346.8z"/>
		</g>
		<g>
			<rect x="535.9" y="343.3" fill="#1F1E1F" width="7" height="14.4"/>
		</g>
		<g>
			<rect x="593.4" y="343.3" fill="#1F1E1F" width="7" height="14.4"/>
		</g>
		<g>
			
				<rect x="594.8" y="363.1" transform="matrix(0.4958 0.8684 -0.8684 0.4958 632.6439 -327.3962)" fill="#1F1E1F" width="7" height="36"/>
		</g>
		<g>
			
				<rect x="518.3" y="377.6" transform="matrix(0.8685 0.4957 -0.4957 0.8685 259.4854 -215.7129)" fill="#1F1E1F" width="36" height="7"/>
		</g>
		<g>
			<path fill="#1F1E1F" d="M621.3,306.7l-4.1-5.7l5.4-3.9c2.3-1.7,4.9-4.5,5-7.3l0-0.6c0.1-2.7,0.5-9.7-0.7-11.1
				c-1.3-0.7-4.6,0.3-6,1.6l-4.6-5.3c2.9-2.5,9.5-5,14.1-2.3c4.9,2.8,4.5,10.6,4.1,17.5l0,0.6c-0.2,4.5-3.2,9.2-8,12.6L621.3,306.7z
				"/>
		</g>
		<g>
			<path fill="#1F1E1F" d="M514.3,306.7l-5.4-3.9c-4.7-3.4-7.7-8.1-8-12.6l0-0.6c-0.4-6.9-0.8-14.7,4.1-17.5
				c4.7-2.7,11.2-0.2,14.1,2.3l-4.6,5.3c-1.5-1.2-4.7-2.3-6-1.6c-1.2,1.4-0.8,8.4-0.7,11.1l0,0.6c0.1,2.8,2.7,5.6,5,7.3l5.4,3.9
				L514.3,306.7z"/>
		</g>
		<g>
			<path fill="#1F1E1F" d="M622.2,245.3h-7c0-17.5-12.8-18.4-13.4-18.4l-1.8-0.1l-1-1.6c-0.3-0.6-8.8-13.7-24.3-8.8
				c-21.2,6.7-45.9,2.4-56.2,0c0.8,4.7,2.8,11.8,8.1,15.9l-4.3,5.6c-11.1-8.5-11.3-25.3-11.3-26v-4.7l4.5,1.3
				c0.3,0.1,32,9.2,57.1,1.3c15.5-4.9,26.8,4.1,31.4,10.5C609.1,221.2,622.2,225.7,622.2,245.3z"/>
		</g>
	</g>
	<g>
		<path fill="#1F1E1F" d="M566.8,430.6l-21-36.1h43.1L566.8,430.6z M558,401.5l9,15.4l9.5-15.4H558z"/>
	</g>
	<g>
		<polygon fill="#1F1E1F" points="583.7,480.1 548.8,480.1 558.2,414.4 565.2,415.4 556.9,473.1 575.7,473.1 570.6,434.5 
			577.5,433.6 		"/>
	</g>
	<g>
		<polygon fill="#1F1E1F" points="540.5,470.4 530.6,426.2 518.1,432.4 507.1,377.3 514,375.9 523.2,422.1 535.5,416 547.4,468.9 		
			"/>
	</g>
	<g>
		<polygon fill="#1F1E1F" points="592.8,470.4 585.9,468.9 597.8,416 610.1,422.1 619.3,375.9 626.2,377.3 615.2,432.4 602.6,426.2 
					"/>
	</g>
	<g>
		<path fill="#1F1E1F" d="M551.5,255.6c-0.5-0.1-11.4-3.5-21.6-12.9l4.7-5.2c9.1,8.3,18.8,11.3,18.9,11.3L551.5,255.6z"/>
	</g>
	<g>
		<path fill="#1F1E1F" d="M577,255.6c-0.5-0.1-11.4-3.5-21.6-12.9l4.7-5.2c9.1,8.3,18.8,11.3,18.9,11.3L577,255.6z"/>
	</g>
	<g>
		<path fill="#1F1E1F" d="M602.5,255.6c-0.5-0.1-11.4-3.5-21.6-12.9l4.7-5.2c9.1,8.3,18.8,11.3,18.9,11.3L602.5,255.6z"/>
	</g>
</g>
<g>
	<g>
		<path fill="#1F1E1F" d="M735,474.8c-0.1-1.6-3.3-39.2,1.1-55.8c4.5-16.8,46.7-53.4,51.5-57.5l4.6,5.3c-12.6,10.8-46,41.5-49.3,54
			c-4.1,15.5-0.9,53.1-0.9,53.4L735,474.8z"/>
	</g>
	<g>
		<path fill="#1F1E1F" d="M948.7,474.8l-7-0.6c0-0.4,3.2-38-0.9-53.4c-3.3-12.5-36.7-43.2-49.3-54l4.6-5.3
			c4.8,4.1,47.1,40.7,51.5,57.5C952,435.7,948.8,473.2,948.7,474.8z"/>
	</g>
	<g>
		<polygon fill="#1F1E1F" points="830.5,395.8 795.4,360.2 800.4,355.3 829.1,384.3 837.7,369.5 807.6,353.6 810.9,347.4 
			847.4,366.8 		"/>
	</g>
	<g>
		<polygon fill="#1F1E1F" points="854.5,395.8 837.7,366.8 874.2,347.4 877.4,353.6 847.4,369.5 856,384.3 884.7,355.3 889.7,360.2 
					"/>
	</g>
	<g>
		<path fill="#1F1E1F" d="M842.5,427.7c-4.6,0-8.4-3.8-8.4-8.4c0-4.6,3.8-8.4,8.4-8.4s8.4,3.8,8.4,8.4
			C851,424,847.2,427.7,842.5,427.7z M842.5,417.9c-0.8,0-1.4,0.6-1.4,1.4c0,0.8,0.6,1.4,1.4,1.4s1.4-0.6,1.4-1.4
			C844,418.5,843.3,417.9,842.5,417.9z"/>
	</g>
	<g>
		<path fill="#1F1E1F" d="M842.5,466.2c-4.6,0-8.4-3.8-8.4-8.4c0-4.6,3.8-8.4,8.4-8.4s8.4,3.8,8.4,8.4
			C851,462.5,847.2,466.2,842.5,466.2z M842.5,456.4c-0.8,0-1.4,0.6-1.4,1.4c0,0.8,0.6,1.4,1.4,1.4s1.4-0.6,1.4-1.4
			C844,457,843.3,456.4,842.5,456.4z"/>
	</g>
	<g>
		<path fill="#1F1E1F" d="M842.6,345.1c-5.7,0-11.4-1.5-16.5-4.4c-12.6-7.3-27.7-19.1-27.7-33.7v-50.8h7V307
			c0,11.9,15.2,22.4,24.2,27.7c8,4.6,17.9,4.6,25.9,0c9-5.2,24.2-15.8,24.2-27.7v-44.4h7V307c0,14.6-15.1,26.4-27.7,33.7
			C854,343.6,848.3,345.1,842.6,345.1z"/>
	</g>
	<g>
		<path fill="#1F1E1F" d="M892.8,307.4l-4.1-5.7l5.1-3.7c2.2-1.5,4.5-4.1,4.6-6.7l0-0.6c0.1-2.7,0.5-8.9-0.6-10.2
			c-1.1-0.5-4,0.3-5.4,1.5l-4.6-5.3c2.8-2.4,9-4.8,13.5-2.2c4.7,2.7,4.3,10.1,4,16.6l0,0.6c-0.2,4.3-3,8.8-7.6,12L892.8,307.4z"/>
	</g>
	<g>
		<path fill="#1F1E1F" d="M792.3,307.4l-5.1-3.7c-4.5-3.2-7.3-7.7-7.6-12l0-0.6c-0.3-6.5-0.7-13.9,4-16.6c4.5-2.6,10.7-0.2,13.5,2.2
			l-4.6,5.3c-1.4-1.2-4.3-2-5.4-1.5c-1,1.4-0.7,7.6-0.6,10.2l0,0.6c0.1,2.6,2.5,5.1,4.6,6.7l5.1,3.7L792.3,307.4z"/>
	</g>
	<g>
		<rect x="815.2" y="343" fill="#1F1E1F" width="7" height="13.1"/>
	</g>
	<g>
		<rect x="862.6" y="343" fill="#1F1E1F" width="7" height="13.1"/>
	</g>
	<g>
		<path fill="#1F1E1F" d="M872.3,266.4H837c-20.4,0-30.9-20-31.3-20.8l6.2-3.2l-3.1,1.6l3.1-1.6c0.1,0.2,9,17,25.1,17h35.3V266.4z"
			/>
	</g>
	<g>
		<path fill="#1F1E1F" d="M886.8,339.5c-0.6,0-1.2,0-1.8,0c-0.6,0-1.1,0-1.7,0v-7c0.6,0,1.1,0,1.7,0c6.5,0,13.2,0.1,18.5-5.1
			c7.1-7.1,10.8-23.1,10.8-47.7c0-25.1-9.5-46.1-26.6-59.2c-16.4-12.5-38.5-16.6-58.9-11c-18.7,5.2-27.7,19.4-27.8,19.5l-1.1,1.7
			l-2-0.1c-8-0.3-14,3.5-18.2,11.7c-5.6,10.8-8.4,23.4-8.4,37.4c0,24.6,3.6,40.6,10.8,47.7c5.3,5.2,12,5.2,18.5,5.1
			c0.6,0,1.2,0,1.7,0v7c-0.6,0-1.1,0-1.7,0c-7.2,0-16.1,0.1-23.4-7.2c-8.6-8.6-12.8-25.8-12.8-52.7c0-15.1,3.1-28.8,9.2-40.6
			c5.1-9.9,12.9-15.2,22.8-15.5c3.2-4.4,13.2-16,30.7-20.9c22.5-6.2,46.9-1.7,65,12.2c19,14.4,29.4,37.4,29.4,64.8
			c0,26.9-4.2,44.1-12.8,52.7C901.7,339,893.6,339.5,886.8,339.5z"/>
	</g>
	<g>
		<path fill="#1F1E1F" d="M872.3,247.9h-23.2c-16.4,0-24.3-13.2-24.7-13.7l6-3.6l-3,1.8l3-1.8c0.3,0.4,6.3,10.3,18.6,10.3h23.2
			V247.9z"/>
	</g>
</g>
<g>
	<g>
		<g>
			<path fill="#1F1E1F" d="M275,782h-7v-99.2l-34.4-19.4l-6.3,18.9l-47,22.1c-13.3,6.3-21.9,19.8-21.9,34.5V782h-7v-43.2
				c0-17.4,10.2-33.4,25.9-40.8l44.3-20.9l8-24.1l45.4,25.6V782z"/>
		</g>
		<g>
			<path fill="#1F1E1F" d="M391.6,782h-7v-43.2c0-14.7-8.6-28.2-21.9-34.5l-47-22.1l-6.3-18.9L285.1,677l-3.4-6.1l31.7-17.9l8,24.1
				l44.3,20.9c15.7,7.4,25.9,23.4,25.9,40.8V782z"/>
		</g>
		<g>
			<rect x="240.6" y="650.8" fill="#1F1E1F" width="7" height="14.4"/>
		</g>
		<g>
			<rect x="298" y="650.8" fill="#1F1E1F" width="7" height="14.4"/>
		</g>
		<g>
			
				<rect x="299.4" y="670.6" transform="matrix(0.4958 0.8684 -0.8684 0.4958 750.73 84.0856)" fill="#1F1E1F" width="7" height="36"/>
		</g>
		<g>
			
				<rect x="222.9" y="685.1" transform="matrix(0.8685 0.4957 -0.4957 0.8685 373.0512 -28.8655)" fill="#1F1E1F" width="36" height="7"/>
		</g>
		<g>
			<path fill="#1F1E1F" d="M325.9,614.2l-4.1-5.7l5.4-3.9c2.3-1.7,4.9-4.5,5-7.3l0-0.6c0.1-2.7,0.5-9.7-0.7-11.1
				c-1.3-0.7-4.6,0.3-6,1.6l-4.6-5.3c2.9-2.5,9.5-5,14.1-2.3c4.9,2.8,4.5,10.6,4.1,17.5l0,0.6c-0.2,4.5-3.2,9.2-8,12.6L325.9,614.2z
				"/>
		</g>
		<g>
			<path fill="#1F1E1F" d="M219,614.2l-5.4-3.9c-4.7-3.4-7.7-8.1-8-12.6l0-0.6c-0.4-6.9-0.8-14.7,4.1-17.5
				c4.7-2.7,11.2-0.2,14.1,2.3l-4.6,5.3c-1.5-1.2-4.7-2.3-6-1.6c-1.2,1.4-0.8,8.4-0.7,11.1l0,0.6c0.1,2.8,2.7,5.6,5,7.3l5.4,3.9
				L219,614.2z"/>
		</g>
	</g>
	<g>
		<path fill="#1F1E1F" d="M272.5,654.3c-6.1,0-12.1-1.6-17.4-4.7c-13.4-7.8-29.4-20.2-29.4-35.8v-50.3c0-6.6,1.4-13.1,4.1-18.7
			c5.4-11.3,17-24.7,41.7-24.7c22.8,0,34.6,10.3,40.5,19c4.8,7.1,7.4,15.6,7.4,24.6v50.2c0,15.5-16,28-29.4,35.8
			C284.6,652.6,278.6,654.3,272.5,654.3z M271.5,527.1c-21.1,0-30.9,11.3-35.4,20.7c-2.3,4.7-3.5,10.2-3.5,15.7v50.3
			c0,12.8,16.3,24.1,25.9,29.7c4.2,2.4,9,3.7,13.9,3.7s9.7-1.3,13.9-3.7c9.7-5.6,25.9-16.9,25.9-29.7v-50.2c0-7.6-2.1-14.7-6.2-20.6
			C299,532.4,287.3,527.1,271.5,527.1z"/>
	</g>
	<g>
		<path fill="#1F1E1F" d="M225,779.7h-7c0-59.4-21.6-85.4-21.8-85.7l5.3-4.6C202.5,690.5,225,717.4,225,779.7z"/>
	</g>
	<g>
		<path fill="#1F1E1F" d="M327.9,779.7h-7c0-62.3,22.6-89.1,23.5-90.2l5.3,4.6C349.6,694.2,327.9,720.3,327.9,779.7z"/>
	</g>
</g>
<g>
	<g>
		<g>
			<path fill="#1F1E1F" d="M669.7,783.6l-7-0.6c0-0.4,3.2-38-0.9-53.4c-3.1-11.6-32.2-39-46.4-51.5c-6,8.1-23.6,27.6-51.7,27.6
				c-28.3,0-47-19.8-53.3-27.7c-14.2,12.4-43.4,39.9-46.5,51.6c-4.1,15.5-0.9,53.1-0.9,53.4l-7,0.6c-0.1-1.6-3.3-39.2,1.1-55.8
				c2-7.5,11.1-19.1,27.8-35.6c12-11.9,23.7-21.9,23.8-22l3-2.6l2.2,3.3c0.2,0.3,19.1,27.7,49.9,27.7c30.8,0,47.9-27.3,48.1-27.6
				l2.1-3.5l3.1,2.7c0.1,0.1,11.8,10.1,23.8,22c16.7,16.5,25.8,28.1,27.8,35.6C673.1,744.4,669.9,782,669.7,783.6z"/>
		</g>
		<g>
			<path fill="#1F1E1F" d="M563.6,653.8c-5.7,0-11.4-1.5-16.5-4.4c-12.6-7.3-27.7-19.1-27.7-33.7v-50.8h7v50.8
				c0,11.9,15.2,22.4,24.2,27.7c8,4.6,17.9,4.6,25.9,0c9-5.2,24.2-15.8,24.2-27.7v-44.4h7v44.4c0,14.6-15.1,26.4-27.7,33.7
				C575,652.3,569.3,653.8,563.6,653.8z"/>
		</g>
		<g>
			<path fill="#1F1E1F" d="M613.8,616.2l-4.1-5.7l5.1-3.7c2.2-1.5,4.5-4.1,4.6-6.7l0-0.6c0.1-2.7,0.5-8.9-0.6-10.2
				c-1.1-0.5-4,0.3-5.4,1.5l-4.6-5.3c2.8-2.4,9-4.8,13.5-2.2c4.7,2.7,4.3,10.1,4,16.6l0,0.6c-0.2,4.3-3,8.8-7.6,12L613.8,616.2z"/>
		</g>
		<g>
			<path fill="#1F1E1F" d="M513.3,616.2l-5.1-3.7c-4.5-3.2-7.3-7.7-7.6-12l0-0.6c-0.3-6.5-0.7-13.9,4-16.6
				c4.5-2.6,10.7-0.2,13.5,2.2l-4.6,5.3c-1.4-1.2-4.3-2-5.4-1.5c-1,1.4-0.7,7.6-0.6,10.2l0,0.6c0.1,2.6,2.5,5.1,4.6,6.7l5.1,3.7
				L513.3,616.2z"/>
		</g>
		<g>
			<path fill="#1F1E1F" d="M602.7,676c-7.6-3.8-16.9-7.9-17-7.9l-2.1-0.9v-15.4h7v10.9c3.2,1.4,9.7,4.4,15.2,7.1L602.7,676z"/>
		</g>
		<g>
			<path fill="#1F1E1F" d="M522.6,676l-3.1-6.3c5.6-2.7,12-5.7,15.2-7.1v-10.9h7v15.4l-2.1,0.9C539.5,668.1,530.2,672.2,522.6,676z"
				/>
		</g>
		<g>
			<path fill="#1F1E1F" d="M593.3,575.1H558c-20.4,0-30.9-20-31.3-20.8l6.2-3.2c0.1,0.2,9,17,25.1,17h35.3V575.1z"/>
		</g>
	</g>
	<g>
		<path fill="#1F1E1F" d="M644.6,685.8l-7-0.3c0.3-6.9-2.3-13.1-5.8-21.7c-1.7-4.1-3.6-8.7-5.4-14.1c-5.8-16.7-1.3-36.1,3.4-49.4
			c5.5-15.6,5-32.1-1.6-46.4c-13.5-29.5-46.5-44.6-78.6-35.8c-18.7,5.2-27.7,19.4-27.8,19.5l-1.1,1.7l-2-0.1
			c-8.1-0.3-14,3.5-18.2,11.7c-0.3,0.6-0.6,1.1-0.9,1.7c-7,14.5-7.7,32-2.1,47.8c4.7,13.3,9.2,32.5,3.4,49.2
			c-1.9,5.4-3.8,10-5.4,14.1c-3.5,8.6-6,14.8-5.8,21.7l-7,0.3c-0.3-8.4,2.6-15.5,6.3-24.6c1.6-4,3.5-8.5,5.3-13.8
			c5.1-14.8,0.9-32.4-3.4-44.6c-6.3-17.6-5.4-37,2.3-53.2c0.3-0.6,0.6-1.3,0.9-1.9c5.1-9.9,12.9-15.2,22.8-15.5
			c3.2-4.4,13.2-16,30.7-20.9c35.4-9.7,71.9,6.9,86.8,39.6c7.3,16,8,34.4,1.8,51.7c-4.4,12.2-8.5,30-3.4,44.8
			c1.8,5.2,3.6,9.8,5.3,13.8C642,670.3,644.9,677.4,644.6,685.8z"/>
	</g>
	<g>
		<path fill="#1F1E1F" d="M563.8,725.4c-38.3,0-56-24.8-56.8-25.9l5.7-4c0.7,0.9,16.5,22.9,51,22.9c34.5,0,48.3-22.5,48.5-22.7
			l6,3.6C617.6,700.4,602.2,725.4,563.8,725.4z"/>
	</g>
</g>
<g>
	<g>
		<g>
			<g>
				<path fill="#1F1E1F" d="M736.7,780.7h-7v-43.2c0-17.4,10.2-33.4,25.9-40.8l44.3-20.9l8-24.1l43.6,24.6l-3.4,6.1L811.9,662
					l-6.3,18.9l-47,22.1c-13.3,6.3-21.9,19.8-21.9,34.5V780.7z"/>
			</g>
			<g>
				<path fill="#1F1E1F" d="M970,780.7h-7v-43.2c0-14.7-8.6-28.2-21.9-34.5l-47-22.1l-6.3-18.9l-24.3,13.7l-3.4-6.1l31.7-17.9
					l8,24.1l44.3,20.9c15.7,7.4,25.9,23.4,25.9,40.8V780.7z"/>
			</g>
			<g>
				<path fill="#1F1E1F" d="M850.9,652.9c-6,0-12.1-1.6-17.4-4.7C820,640.5,804,628,804,612.5v-47h7v47c0,5.5,3.4,16.7,25.9,29.7
					c8.6,5,19.3,5,27.9,0c22.6-13,25.9-24.2,25.9-29.7v-47.3h7v47.3c0,15.5-16,28-29.4,35.8C862.9,651.4,856.9,652.9,850.9,652.9z"
					/>
			</g>
			<g>
				<rect x="818.9" y="649.5" fill="#1F1E1F" width="7" height="14.4"/>
			</g>
			<g>
				<rect x="876.4" y="649.5" fill="#1F1E1F" width="7" height="14.4"/>
			</g>
			<g>
				<path fill="#1F1E1F" d="M904.3,612.9l-4.1-5.7l5.4-3.9c2.3-1.7,4.9-4.5,5-7.3l0-0.6c0.1-2.7,0.5-9.7-0.7-11.1
					c-1.3-0.7-4.6,0.3-6,1.6l-4.6-5.3c2.9-2.5,9.5-5,14.1-2.3c4.9,2.8,4.5,10.6,4.1,17.5l0,0.6c-0.2,4.5-3.2,9.2-8,12.6L904.3,612.9
					z"/>
			</g>
			<g>
				<path fill="#1F1E1F" d="M797.4,612.9l-5.4-3.9c-4.7-3.4-7.7-8.1-8-12.6l0-0.6c-0.4-6.9-0.8-14.7,4.1-17.5
					c4.7-2.7,11.2-0.2,14.1,2.3l-4.6,5.3c-1.5-1.2-4.7-2.3-6-1.6c-1.2,1.4-0.8,8.4-0.7,11.1l0,0.6c0.1,2.8,2.7,5.6,5,7.3l5.4,3.9
					L797.4,612.9z"/>
			</g>
		</g>
		<g>
			<polygon fill="#1F1E1F" points="823.6,776.7 813.2,740.1 800.6,736.1 790.1,683.4 797,682 806.7,730.7 818.9,734.5 830.3,774.8 
							"/>
		</g>
		<g>
			<polygon fill="#1F1E1F" points="875.7,776.7 869,774.8 880.4,734.5 892.6,730.7 902.3,682 909.2,683.4 898.7,736.1 886.1,740.1 
							"/>
		</g>
	</g>
	<g>
		<g>
			<polygon fill="#1F1E1F" points="813,726.1 813,672.1 837.1,687 833.4,692.9 820,684.7 820,713.5 833.4,705.2 837.1,711.2 			"/>
		</g>
		<g>
			<polygon fill="#1F1E1F" points="886.7,726.1 862.6,711.2 866.3,705.2 879.7,713.5 879.7,684.7 866.3,692.9 862.6,687 
				886.7,672.1 			"/>
		</g>
		<g>
			<path fill="#1F1E1F" d="M861.7,714.1h-23v-30.3h23V714.1z M845.7,707.1h9v-16.3h-9V707.1z"/>
		</g>
	</g>
	<g>
		<rect x="846.4" y="722.5" fill="#1F1E1F" width="7" height="53.2"/>
	</g>
	<g>
		<path fill="#1F1E1F" d="M875.7,587.2l-3-8c-8.8-23.5-46.3-22.8-46.7-22.8l-0.2-7c0.4,0,10.7-0.2,22.3,2.9
			c12.4,3.3,21.6,9.2,27.2,17.1c1.8-6,3.3-13.6,1.5-18.1l6.5-2.6c1.9,4.8,1.8,11.5-0.5,19.9c-1.6,6-3.6,10.7-3.7,10.9L875.7,587.2z"
			/>
	</g>
	<g>
		<path fill="#1F1E1F" d="M901.9,579.3l-1-9.6c-2.3-22.1-26.7-32.5-26.9-32.6l2.7-6.5c1,0.4,20.6,8.8,28.3,27.2
			c1.4-7.8,0.6-19.4-10.9-32.2c-6.9-7.7-28-15.4-47.2-14.3c-8.7,0.5-20.5,3.1-27.1,12.4l-1.5,2l-2.4-0.7c-3.2-1-11.4,0.5-15.1,4
			c-8.9,8.7-8.4,20.5-5.3,27.7c0.1-0.2,0.3-0.4,0.4-0.6c3.4-4.6,7.9-7,13.1-7v7c-7.2,0-9.7,8.3-9.8,8.7l-1.7,5.8l-4.2-4.4
			c-8.2-8.6-11.2-28.8,2.6-42.2c4.7-4.6,13.5-6.8,19.5-6.2c6.7-8.1,17.4-12.8,31.1-13.6c19.8-1.2,43.6,6.3,52.9,16.6
			c12.3,13.6,13.8,26.5,13,34.9c-0.9,9.2-4.8,15.2-5,15.4L901.9,579.3z"/>
	</g>
</g>
<g>
	<g>
		<g>
			<path fill="#1F1E1F" d="M1133,470.4h-7v-98.8l-34.3-19.8l-6.3,18.8l-47,22.1c-13.3,6.3-21.9,19.8-21.9,34.5v43.2h-7v-43.2
				c0-17.4,10.2-33.4,25.9-40.8l44.3-20.9l8-24.1l45.2,26.2V470.4z"/>
		</g>
		<g>
			<path fill="#1F1E1F" d="M1249.8,470.4h-7v-43.2c0-14.7-8.6-28.2-21.9-34.5l-47-22.1l-6.3-18.9l-24.3,13.7l-3.4-6.1l31.7-17.9
				l8,24.1l44.3,20.9c15.7,7.4,25.9,23.4,25.9,40.8V470.4z"/>
		</g>
		<g>
			<rect x="1098.7" y="339.1" fill="#1F1E1F" width="7" height="14.4"/>
		</g>
		<g>
			<rect x="1156.2" y="339.1" fill="#1F1E1F" width="7" height="14.4"/>
		</g>
		<g>
			<polygon fill="#1F1E1F" points="1144.1,415.7 1139,410.9 1159.7,389.4 1143.2,389.4 1174.6,365.3 1178.9,370.8 1163.8,382.4 
				1176.2,382.4 			"/>
		</g>
		<g>
			<polygon fill="#1F1E1F" points="1116.1,415.7 1084,382.4 1096.4,382.4 1081.3,370.8 1085.6,365.3 1117,389.4 1100.4,389.4 
				1121.1,410.9 			"/>
		</g>
		<g>
			<path fill="#1F1E1F" d="M1184.1,302.6l-4.1-5.7l5.4-3.9c2.3-1.7,4.9-4.5,5-7.3l0-0.6c0.1-2.7,0.5-9.7-0.7-11.1
				c-1.3-0.7-4.6,0.3-6,1.6l-4.6-5.3c2.9-2.5,9.5-5,14.1-2.3c4.9,2.8,4.5,10.6,4.1,17.5l0,0.6c-0.2,4.5-3.2,9.2-8,12.6L1184.1,302.6
				z"/>
		</g>
		<g>
			<path fill="#1F1E1F" d="M1077.2,302.6l-5.4-3.9c-4.7-3.4-7.7-8.1-8-12.6l0-0.6c-0.4-6.9-0.8-14.7,4.1-17.5
				c4.7-2.7,11.2-0.2,14.1,2.3l-4.6,5.3c-1.5-1.2-4.7-2.3-6-1.6c-1.2,1.4-0.8,8.4-0.7,11.1l0,0.6c0.1,2.8,2.7,5.6,5,7.3l5.4,3.9
				L1077.2,302.6z"/>
		</g>
	</g>
	<g>
		<path fill="#1F1E1F" d="M1130.7,342.6c-6,0-12-1.6-17.4-4.7c-13.4-7.8-29.4-20.2-29.4-35.8v-37.7h7v37.7c0,5.5,3.4,16.7,25.9,29.7
			c8.6,5,19.3,5,27.8,0c22.6-13,25.9-24.2,25.9-29.7v-39.9h7v39.9c0,15.5-16,28-29.4,35.8C1142.7,341.1,1136.7,342.6,1130.7,342.6z"
			/>
	</g>
	<g>
		<path fill="#1F1E1F" d="M1114.7,261.9c-19.6,0-27.8-8.2-28.2-8.6l5-4.9c0,0,6.7,6.4,23.1,6.4c21.4,0,34.4-13.7,34.6-13.9l5.2,4.7
			C1153.8,246.4,1139.3,261.9,1114.7,261.9z"/>
	</g>
	<g>
		<path fill="#1F1E1F" d="M1176.7,259.1c-32.6,0-40.8-36.7-40.8-37.1l6.8-1.5l-3.4,0.7l3.4-0.7c0,0.1,1.8,8.2,7,16.2
			c6.7,10.2,15.8,15.4,27,15.4V259.1z"/>
	</g>
	<g>
		<path fill="#1F1E1F" d="M1189.5,259.1l-7-0.8l0.5-4.2c1.4-11.9-2.1-23.5-9.7-32.7c-7.6-9.2-18.4-14.8-30.3-15.7
			c-4-0.3-6.7-0.5-11.3-0.5c-4.4,0-11,0.2-15.3,0.5c-11.9,0.9-22.7,6.5-30.3,15.7c-7.6,9.2-11,20.8-9.7,32.7l0.5,4.2l-7,0.8
			l-0.5-4.2c-1.6-13.8,2.4-27.2,11.2-37.9c8.8-10.7,21.3-17.2,35.2-18.3c4.5-0.3,11.4-0.5,15.9-0.5c4.8,0,7.7,0.2,11.9,0.5
			c13.9,1.1,26.4,7.5,35.2,18.3c8.8,10.7,12.8,24.2,11.2,37.9L1189.5,259.1z"/>
	</g>
	<g>
		<path fill="#1F1E1F" d="M1108.2,250.2c-0.6,0-1.2-0.1-1.8-0.2l1.3-6.9c1.5,0.3,3.2-0.7,4.5-1.6c1.9-1.4,2.4-4.1,1.2-6.1
			c-4.3-6.7-4.3-14.6-4.3-14.9h7h-3.5l3.5,0c0,0.1,0.1,6.2,3.2,11.1c3.3,5.2,2,12-3,15.6C1113.5,249.2,1110.8,250.2,1108.2,250.2z"
			/>
	</g>
	<g>
		<path fill="#1F1E1F" d="M1130.1,239.2c-6-6.5-7.8-17.6-7.9-18.1l6.9-1.1l-3.5,0.6l3.5-0.6c0,0.1,1.6,9.5,6.1,14.4L1130.1,239.2z"
			/>
	</g>
</g>
<g>
	<g>
		<g>
			<g>
				<path fill="#1F1E1F" d="M1227.3,776.5l-7-0.5c0-0.5,3.2-48-0.9-63.5c-3.1-11.6-32.9-33.2-46.7-42.3l-51.3,45.8l-53.1-45.8
					c-13.8,9.1-43.7,30.7-46.8,42.3c-4.1,15.5-0.9,63-0.9,63.5l-7,0.5c-0.1-2-3.3-49.1,1.1-65.8c4.5-17.1,47.1-44.7,51.9-47.8
					l2.2-1.4l52.5,45.2l50.7-45.2l2.2,1.4c4.8,3.1,47.4,30.7,51.9,47.8C1230.6,727.3,1227.4,774.5,1227.3,776.5z"/>
			</g>
			<g>
				<path fill="#1F1E1F" d="M1121.2,646.8c-5.7,0-11.4-1.5-16.5-4.4c-12.6-7.3-27.7-19.1-27.7-33.7v-50.8h7v50.8
					c0,11.9,15.2,22.4,24.2,27.7c8,4.6,17.9,4.6,25.9,0c9-5.2,24.2-15.8,24.2-27.7v-44.4h7v44.4c0,14.6-15.1,26.4-27.7,33.7
					C1132.5,645.3,1126.9,646.8,1121.2,646.8z"/>
			</g>
			<g>
				<path fill="#1F1E1F" d="M1171.4,609.2l-4.1-5.7l5.1-3.7c2.2-1.5,4.5-4.1,4.6-6.7l0-0.6c0.1-2.7,0.5-8.8-0.6-10.2
					c-1.1-0.5-4,0.3-5.4,1.5l-4.6-5.3c2.8-2.4,9-4.8,13.5-2.2c4.7,2.7,4.3,10.1,4,16.6l0,0.6c-0.2,4.3-3,8.8-7.6,12L1171.4,609.2z"
					/>
			</g>
			<g>
				<path fill="#1F1E1F" d="M1070.8,609.2l-5.1-3.7c-4.5-3.2-7.3-7.7-7.6-12l0-0.6c-0.3-6.5-0.7-13.9,4-16.6
					c4.5-2.6,10.7-0.2,13.5,2.2l-4.6,5.3c-1.4-1.2-4.3-2-5.4-1.5c-1,1.4-0.7,7.6-0.6,10.2l0,0.6c0.1,2.6,2.5,5.1,4.6,6.7l5.1,3.7
					L1070.8,609.2z"/>
			</g>
			<g>
				<path fill="#1F1E1F" d="M1160.3,668.9c-7.6-3.8-16.9-7.9-17-7.9l-2.1-0.9v-15.4h7v10.9c3.2,1.4,9.7,4.4,15.2,7.1L1160.3,668.9z"
					/>
			</g>
			<g>
				<path fill="#1F1E1F" d="M1080.1,668.9l-3.1-6.3c5.6-2.7,12-5.7,15.2-7.1v-10.9h7v15.4l-2.1,0.9
					C1097.1,661.1,1087.8,665.2,1080.1,668.9z"/>
			</g>
			<g>
				<path fill="#1F1E1F" d="M1150.9,568.1h-35.3c-20.4,0-30.9-20-31.3-20.8l6.2-3.2c0.1,0.2,9,17,25.1,17h35.3V568.1z"/>
			</g>
		</g>
	</g>
	<g>
		<path fill="#1F1E1F" d="M1165,630.7v-7c5.9,0,11.4-5.8,14.9-10.7c6.6-9.3,10.5-20.7,11.1-33.1c0.7-12.2-1.3-24.3-5.2-32.9
			c-13.5-29.5-46.5-44.6-78.6-35.8c-18.6,5.1-27.7,19.4-27.8,19.5l-1.1,1.7l-2-0.1c-8-0.3-14,3.5-18.2,11.7
			c-0.3,0.6-0.6,1.1-0.9,1.7c-6.9,14.4-8.3,31.4-3.8,47.7c4.4,16,16.9,24.5,24.2,24.5v7c-15.6,0-27.7-17.7-31-29.6
			c-4.9-18-3.4-36.6,4.3-52.6c0.3-0.6,0.6-1.3,0.9-1.9c5.1-9.9,12.9-15.2,22.8-15.5c3.2-4.4,13.2-16,30.7-20.9
			c35.4-9.7,71.9,6.9,86.8,39.6c4.4,9.7,6.6,22.9,5.8,36.2c-0.7,13.7-5,26.4-12.4,36.8C1179.1,626.1,1172.2,630.7,1165,630.7z"/>
	</g>
	<g>
		<path fill="#1F1E1F" d="M1182.6,540.6l-1.7-2.6c-6.8-10.4-16.4-18.6-27.8-23.6l-2.8-1.2l0.8-2.9c3-10.5,12.7-17.9,23.7-17.9
			c13.6,0,24.6,11,24.6,24.6c0,9.5-5.5,18.2-14.1,22.3L1182.6,540.6z M1158.9,509.5c10.4,5.2,19.2,12.7,26,22
			c4.7-3.3,7.5-8.7,7.5-14.5c0-9.7-7.9-17.6-17.6-17.6C1168,499.4,1161.8,503.4,1158.9,509.5z"/>
	</g>
	<g>
		<rect x="1117.8" y="711.3" fill="#1F1E1F" width="7" height="64.9"/>
	</g>
	<g>
		<path fill="#1F1E1F" d="M1142.4,739.2c-5.8,0-10.5-4.7-10.5-10.5s4.7-10.5,10.5-10.5s10.5,4.7,10.5,10.5
			S1148.2,739.2,1142.4,739.2z M1142.4,725.3c-1.9,0-3.5,1.6-3.5,3.5s1.6,3.5,3.5,3.5c1.9,0,3.5-1.6,3.5-3.5
			S1144.3,725.3,1142.4,725.3z"/>
	</g>
	<g>
		<path fill="#1F1E1F" d="M1142.4,776.6c-5.8,0-10.5-4.7-10.5-10.5s4.7-10.5,10.5-10.5s10.5,4.7,10.5,10.5
			S1148.2,776.6,1142.4,776.6z M1142.4,762.6c-1.9,0-3.5,1.6-3.5,3.5s1.6,3.5,3.5,3.5c1.9,0,3.5-1.6,3.5-3.5
			S1144.3,762.6,1142.4,762.6z"/>
	</g>
</g>
</svg>
