<?xml version="1.0" encoding="utf-8"?>
<!-- Generator: Adobe Illustrator 21.0.0, SVG Export Plug-In . SVG Version: 6.00 Build 0)  -->
<svg version="1.1" id="Layer_1" xmlns="http://www.w3.org/2000/svg" xmlns:xlink="http://www.w3.org/1999/xlink" x="0px" y="0px"
	 width="2000px" height="2000px" viewBox="0 0 2000 2000" style="enable-background:new 0 0 2000 2000;" xml:space="preserve">
<style type="text/css">
	.st0{fill:#FEECD4;}
	.st1{fill:#FF9098;}
	.st2{fill:#FECA90;}
	.st3{fill:url(#SVGID_1_);}
	.st4{fill:#3D2243;}
	.st5{fill:#331D38;}
	.st6{fill:#FC9397;}
	.st7{fill:url(#SVGID_2_);}
	.st8{fill:#FCEDE6;}
	.st9{fill:url(#SVGID_3_);}
	.st10{fill:url(#SVGID_4_);}
	.st11{fill:url(#SVGID_5_);}
	.st12{fill:#BB395B;}
	.st13{fill:url(#SVGID_6_);}
	.st14{fill:url(#SVGID_7_);}
	.st15{fill:#3B2E3F;}
	.st16{fill:url(#SVGID_8_);}
	.st17{fill:url(#SVGID_9_);}
	.st18{fill:url(#SVGID_10_);}
	.st19{fill:url(#SVGID_11_);}
	.st20{fill:url(#SVGID_12_);}
	.st21{fill:url(#SVGID_13_);}
	.st22{fill:url(#SVGID_14_);}
	.st23{fill:url(#SVGID_15_);}
	.st24{fill:#560A3B;}
	.st25{fill:#9776B2;}
	.st26{fill:url(#SVGID_16_);}
	.st27{fill:#916DAA;}
</style>
<g>
	<rect class="st0" width="2000" height="2000"/>
	<path class="st1" d="M1634.6,1791.9H370.4c-38.7,0-70.3-31.6-70.3-70.3v0c0-38.7,31.6-70.3,70.3-70.3h1264.2
		c38.7,0,70.3,31.6,70.3,70.3v0C1704.9,1760.3,1673.3,1791.9,1634.6,1791.9z"/>
	<path class="st2" d="M1770.4,677.6c15.9-88.2,34.6-179.6,23.1-269.5c-5.2-40.5-16-80.5-37.3-115.7c-21.2-34.9-52.1-63.6-88.9-81.4
		c-77.1-37.5-166.9-32.8-248-12.3c-93.7,23.7-182.7,65.7-279.7,75.7c-96.4,10-193-4.1-287.4-22.7c-97.2-19.1-193.7-42.8-292.3-53.8
		c-86.4-9.6-182.4-8.6-254.3,47.1c-63.8,49.4-90.9,130-96.4,208c-6.6,93.6,21,185.1,37.7,276.2c9,48.8,13.5,97.7,11.1,147.3
		c-2.3,49.9-10,99.3-18,148.6c-14.5,89.7-29.3,179.6-17,270.4c10.1,73.9,37.6,149,91.8,202.1c29.7,29.1,66.5,50,106.4,61.4
		c43.1,12.3,88.8,13.8,133.2,9.6c95.9-9.2,186.2-44.9,281.1-59.4c0.2,0,0.4-0.1,0.6-0.1c32.2-4.9,65.2-1.2,95.7,10.3
		c73.6,27.5,149.9,46.6,228,57.1c94.5,12.6,190.1,11.9,284.5-1.5c82.8-11.7,171.7-31.3,239.8-82.7c34.4-26,62.1-58.9,79.2-98.7
		c17.5-40.7,24.8-84.7,25.4-128.8c1.4-98.2-31.9-191.9-42.6-288.7C1734.7,875.7,1752.6,776.1,1770.4,677.6z"/>
	<g>
		<g>
			<linearGradient id="SVGID_1_" gradientUnits="userSpaceOnUse" x1="1269.469" y1="1536.6294" x2="1313.3398" y2="1264.9679">
				<stop  offset="0" style="stop-color:#D85B71"/>
				<stop  offset="1" style="stop-color:#BB395B"/>
			</linearGradient>
			<path class="st3" d="M1266.3,952.3c0,0,7,256.2,6.7,297.5c-0.4,52,3.4,328.7-1.9,354.2c-2.9,14.4-13.2,45.2-21.5,69.4
				c-7.2,20.8-22.5,37.8-42.3,47.3c-22.1,10.6-46.4,23.9-35.7,26.3c10.7,2.5,45.2,2.3,72.4,1.8c20.6-0.4,39-13.1,46.8-32.2
				c10.4-25.7,27.4-60.9,48.1-80.1c34-31.5,4.5-38-10.6-65.9c-27.6-51,38.3-187.7,36.8-332.2s8.5-279.1,8.5-279.1L1266.3,952.3z"/>
			<path class="st4" d="M1266.3,1694.2c-8,11.8-22.1,10.5-32.9,7c-7.2,8.1-16.1,14.8-26,19.6c-22.1,10.6-46.4,23.9-35.7,26.3
				c10.7,2.5,45.2,2.3,72.4,1.8c20.6-0.4,39-13.1,46.8-32.2c10.4-25.7,27.4-60.9,48.1-80.1c31.6-29.3,8.4-37-7.2-60.2
				C1319.2,1620.5,1278.8,1675.9,1266.3,1694.2z"/>
			<path class="st4" d="M1354.5,1613.9l-20.1,131.8c0,0,4.3,1.4-11.6,0.4l3.4-112.6L1354.5,1613.9z"/>
			<path class="st5" d="M1347.9,351.8l-39.2,54.9l-1.8,38.6v30.5l-3.5,30.5l9.5,5.3c0,0,8.2,6,26.3,0s29,3.5,40,4.8
				c11,1.2,58.8,8.9,75.5-0.6c16.6-9.5,0-77.2,0-77.2l-40.4-68l-40.4-27L1347.9,351.8z"/>
			<path class="st6" d="M1449.1,1251.5h-55.7l5.6-183l50.1-39.7c0,0,43.3,22.5,41,26.4c-2.3,3.9,7.2,91.7,7.2,91.7L1449.1,1251.5z"
				/>
			<polygon class="st6" points="1253.6,1251.5 1292.3,1251.5 1317.8,849.5 1260.2,849.5 1227.2,1050.5 			"/>
			<linearGradient id="SVGID_2_" gradientUnits="userSpaceOnUse" x1="959.9225" y1="625.4341" x2="1098.0874" y2="625.4341">
				<stop  offset="0" style="stop-color:#D85B71"/>
				<stop  offset="1" style="stop-color:#BB395B"/>
			</linearGradient>
			<path class="st7" d="M1344.8,519c0,0-40.4-2.5-54.1,22.2s-87.7,146.6-97.5,153.2c-9.8,6.6-130.8-32.2-153-37.7
				c-23.3-5.8-34.8-19.8-35.2-14.6c-0.4,5.8,1.8,9.4,8,14.8c7.5,6.5,0.5,13.3-24.6,15.5c-25.1,2.2-42.3,4.2-39.1,11.4
				c3.5,7.9,28.5,10.9,54.6,4.3c26.1-6.5,33.5-10.5,51.3-4.7c17.7,5.8,119,48.3,148.5,48.6c29.5,0.3,81.7-87.3,81.7-87.3l62.4-53.1
				L1344.8,519z"/>
			<path class="st8" d="M1290.7,541.2c-13.7,24.6-89.7,140.7-99.5,147.3c-7.6,5.1-81.2-17.6-124.7-30.4c-0.1,7-7.2,41-9.6,48.5
				c31.6,12,119.9,30.8,145.7,31c29.5,0.3,82.8-93,82.8-93l62.4-53.1l-3.1-72.5C1344.8,519,1304.4,516.5,1290.7,541.2z"/>
			<linearGradient id="SVGID_3_" gradientUnits="userSpaceOnUse" x1="1402.2463" y1="1380.8219" x2="1376.3445" y2="556.4855">
				<stop  offset="0" style="stop-color:#D85B71"/>
				<stop  offset="1" style="stop-color:#BB395B"/>
			</linearGradient>
			<path class="st9" d="M1370.1,472.7c0,0,1.4,28.3-3.5,39.7c-5,11.3-33.2,0.7-46.7,12.8c-13.5,12-15.5,34.8-29.9,61.1
				c-14.8,27.1-20.2,53.2-3.4,75.9c16.8,22.7,26.5,86.1,20.5,112.6c-5.7,24.9-35.7,52.9-40.5,148.3c-4.8,95.4,60.3,307,69.7,333.4
				c9.4,26.4,114.1,306.3,121.7,372.4c0,0-1,13.8-2.8,30.6c-3.4,31.9-21,60.6-47.8,78.2c-15.2,9.9-28.4,19.6-25.2,21.3
				c4.3,2.1,38.8,0.2,65.2-1.6c18.1-1.3,33.5-13.6,38.7-31c7.1-23.7,18.9-56.7,34.2-76.9c26.2-34.7,2.8-54.5-22-68.7
				c-24.8-14.2-28.7-69.1-33.5-158.9c-4.7-87.6-64.3-130.1-52-200c12.3-69.9,51.9-270.6,43.2-345.7c-6.4-55.3-37.3-74.9-26.9-107
				s53.2-208,48.4-236.3c0,0-46.7-7.3-59-19.6c-6.1-6.1-3.8-65.2-3.8-65.2L1370.1,472.7z"/>
			<linearGradient id="SVGID_4_" gradientUnits="userSpaceOnUse" x1="1382.29" y1="555.3084" x2="1357.5228" y2="708.631">
				<stop  offset="0" style="stop-color:#FC9397"/>
				<stop  offset="1" style="stop-color:#F96E86"/>
			</linearGradient>
			<path class="st10" d="M1294.6,804.1c53,14.8,104.7,12.2,140.4,6.9c-6.5-14.6-10.8-26.9-5.9-42c10.4-32.1,53.2-208,48.4-236.3
				c0,0-37-6-53.8-15.8c-39,11.9-61.2-0.5-61.2-0.5l-0.1,0c-9.7,4.5-31.2-1.3-42.5,8.8c-13.5,12-15.5,34.8-29.9,61.1
				c-14.8,27.1-20.2,53.2-3.4,75.9c16.8,22.7,26.5,86.1,20.5,112.6C1305.1,783.3,1300.3,792.2,1294.6,804.1z"/>
			<linearGradient id="SVGID_5_" gradientUnits="userSpaceOnUse" x1="1252.1093" y1="1084.4719" x2="1439.1437" y2="966.9048">
				<stop  offset="0" style="stop-color:#750D42"/>
				<stop  offset="1" style="stop-color:#560A3B"/>
			</linearGradient>
			<path class="st11" d="M1412.1,1254.8c-1.4-10.5-1.4-21.4,0.7-33.1c12.3-69.9,51.9-270.6,43.2-345.7
				c-5.7-49.2-30.8-70.1-28.9-96.8c-41.9,8.6-85.7,6.2-121.6,0.8c-8.2,23.8-34.5,54.3-39,143c-0.4,8.9-0.3,18.7,0.4,29.3l-0.6,0
				c0,0,7,256.2,6.7,297.5c0,0.3,0,0.6,0,1C1328,1257.8,1380.2,1256.7,1412.1,1254.8z"/>
			<path class="st8" d="M1362.4,516.3c0,0-47.9,44.1-51.6,112s17.8,121.7-1.9,169.6c-19.7,47.9-66.6,212.8-55.3,453.6H1179
				c-0.9-26.7-4.6-86,6.6-170.7c18.4-140.3,92.6-287.6,92.6-351.8c0-36.9-11.9-71.1-11.9-71.1l3.7-78.6l52.9-58.3L1362.4,516.3z"/>
			<path class="st8" d="M1423.7,516.9c0,0,20.6,14.8,11.2,43.2c-9.4,28.3-78.4,190.6-66,308.9c12.3,118.2,74.5,180.6,84.1,254.3
				c9.6,73.7-3.8,128.2-3.8,128.2h92.6c0,0,3.1-96.6-27.4-186.8c-35.8-105.8-72-243.7-63.3-285.5c22.3-106.7,50-180.2,50-180.2
				l-20.7-66.5L1423.7,516.9z"/>
			<path class="st4" d="M1510.9,1588.7c-7.7,38.5-29,103.4-43.9,117.8c-11.7,11.4-25,8-32.1,4.8c-7.5,10.2-16.8,19.2-27.7,26.3
				c-15.2,9.9-28.4,19.6-25.2,21.3c4.3,2.1,38.8,0.2,65.2-1.6c18.1-1.3,33.5-13.6,38.7-31c7.1-23.7,18.9-56.7,34.2-76.9
				C1541.9,1620.7,1529.8,1602.2,1510.9,1588.7z"/>
			<polygon class="st4" points="1531.8,1621 1531.8,1753 1517.1,1753 1509.1,1647.6 			"/>
			<path class="st12" d="M1494.3,676.3c8.8,18.7,15.6,35,14.9,38.9c-1.9,10.4-31.6,26.1-69,78.4c-33.4,46.8-75.6,122.8-41.2,136
				c24.2,9.3,29.8-62.3,29.8-62.3c2.8-31.2,126.9-100.8,133.2-137.9c1.8-10.6-7.2-40.6-19-73.5
				C1527.6,665.1,1510.2,671.6,1494.3,676.3z"/>
			<path class="st8" d="M1497.9,548c-12.8-22.5-33.1-16.1-33.1-16.1l-22.6,55.4l17.7,20.3c0,0,51.2,97.2,49.3,107.6
				c-1.9,10.4-31.6,26.1-69,78.4c-6.3,8.8-19.7,17.6-26.1,27.8c4.4,8,28.8,29.6,38.3,36.4c32.3-35,108.3-100.1,113.4-130.3
				C1570.1,702.4,1510.2,569.7,1497.9,548z"/>
			<linearGradient id="SVGID_6_" gradientUnits="userSpaceOnUse" x1="1396.4801" y1="927.539" x2="1414.6195" y2="897.1862">
				<stop  offset="0" style="stop-color:#FCEDE6"/>
				<stop  offset="1" style="stop-color:#FEECD4"/>
			</linearGradient>
			<path class="st13" d="M1368.9,868.9c6.1,58.8,24.6,103.8,42.8,143.2l28.1-116.5c-26.1-1.5-58.6-46.1-58.6-46.1
				s-5.5,6.5-12.7,15.1C1368.6,866,1368.7,867.5,1368.9,868.9z"/>
			<linearGradient id="SVGID_7_" gradientUnits="userSpaceOnUse" x1="1324.9299" y1="448.7087" x2="1390.9115" y2="393.3751">
				<stop  offset="0" style="stop-color:#D85B71"/>
				<stop  offset="1" style="stop-color:#BB395B"/>
			</linearGradient>
			<path class="st14" d="M1348.2,342.4c0,0-33.3,13.5-27.6,68s29,97.8,77.2,65.2s40.4-104.8,26.9-118.3S1383.6,325.4,1348.2,342.4z"
				/>
			<path class="st4" d="M1484.5,467.1c-1.5-14.2-10.3-25.5-19.4-35.8c-5.3-5.9-10.1-11.7-14.4-17.7c-0.1-0.5-0.2-0.9-0.3-1.4
				c-5.8-26.4-6.6-50.4-29.1-68.8c-19.3-15.8-44.8-19.1-68.2-11.3c-36.1,14.5-58.3,49.4-58.8,88c-0.1,9.8,1.8,18.5,4,28
				c0.5,2.1,0.9,4.1,1.2,6.1c-0.6,3.4-1.6,6.7-3.3,10.1c-2.9,5.9-6.6,11.5-8.1,18c-1.6,7.3,0.2,15.4,6.1,19.4
				c3.7,5.2,10.6,8.2,18.6,9.8c1.8,0.4,3.1-0.8,3.4-2.2c0.4-1.4-0.1-2.9-1.9-3.3c-9-2.1-6.3-14.4-2.9-25.6c2.9-2.8,6-5.6,8.3-8.8
				c4.1-5.7,4.8-12.2,3.9-19.1c-1.3-9.6-4.7-18.5-4.3-28.3c0.3-7.6,2.1-14.8,5.2-21.5c10.7-11.8,25.5-20.8,31.6-36
				c3.3,14.9,10.7,28.6,21.7,39.2c10.8,10.5,26,16.7,36.3,27.6c4.2,9.2,7.1,19,11.3,28.1c7.9,17.4,25.3,34.2,16.7,54.6
				c-0.4,0.9-0.2,1.7,0.2,2.2c0.3,0.6,0.9,1.1,1.8,1.2c18.3,2.5,34.8-11.9,37.1-30c0.1-0.5,0.1-0.9,0.1-1.3
				C1484.1,481.7,1485.2,474.4,1484.5,467.1z M1299.1,464.8c0.4-0.7,0.7-1.5,1-2.2c-0.1,4-0.9,8.1-2.9,12.6
				c-1.4,3.3-3.3,6.4-4.4,9.9c-1.3,4.2-1.6,7.8-1,10.9C1286.7,487.6,1295.5,472.4,1299.1,464.8z M1318.8,443.7
				c1.2,5.4,2.7,10.9,2.3,16.5c-0.5,6.1-3.9,10.5-7.9,14.6c1.4-4.4,2.5-8.2,2.6-10.6c0.6-14.7-6-29.7-1.6-44.3
				c1.1-3.6,2.7-6.9,4.7-9.9C1315.9,420.8,1316.1,432.1,1318.8,443.7z M1479.3,457.5c2.6,7,3.2,14.3,1.9,21.4
				c-2.7-20.2-19.2-37.1-27.4-55.9C1463.1,433.8,1474.1,443.8,1479.3,457.5z M1388.4,411.1c-12.1-8.8-21.2-20.7-26.4-34.4
				c12.2,17.6,34,27.2,46.1,45.8c0.9,1.4,1.7,2.8,2.5,4.2C1403.8,421.1,1395.8,416.5,1388.4,411.1z"/>
			<g>
				<circle class="st15" cx="1302.8" cy="584.6" r="15.3"/>
				<g>
					<path class="st15" d="M1452.5,588.2c0.7-22.7,1.6-51.5-13.4-70.1c-4.6-5.8-10.6-9.8-17.1-12.5l-4.3,7.4
						c5.5,2.2,10.4,5.5,14.3,10c14.1,16.6,12.7,43.8,12.1,64.7c-4.2,0.5-8.2,2.1-11.6,4.8c-4.8,3.8-7.9,9.3-8.6,15.4l-9.6,81
						c-0.7,6.1,1,12.1,4.8,17c3.8,4.8,9.3,7.9,15.4,8.6c0.9,0.1,1.8,0.2,2.7,0.2c11.5,0,21.5-8.6,22.8-20.3l9.6-81
						C1470.9,601.6,1463.4,591,1452.5,588.2z M1461.1,612.1l-9.6,81c-0.9,8-8.2,13.7-16.1,12.7c-3.9-0.5-7.3-2.4-9.7-5.4
						c-2.4-3-3.5-6.8-3-10.7l9.6-81c0.5-3.9,2.4-7.3,5.4-9.7c2.6-2,5.7-3.1,9-3.1c0.6,0,1.2,0,1.7,0.1
						C1456.3,596.9,1462,604.2,1461.1,612.1z"/>
					<path class="st15" d="M1364.5,505.7c-31,11.8-50.4,42.9-64.9,72.4c-2.4,4.9,4.9,9.2,7.3,4.3c13.5-27.6,31.4-59,62-69.4
						L1364.5,505.7z"/>
				</g>
			</g>
			<path class="st6" d="M1424.8,502.1c-2-9.3-10.4-5-17.1-2.9c-8,2.5-16.1,5-24.5,5c-4.9,0-12.9-4.1-17.3-3.4
				c-8.1,1.1-5,15.9-5.2,21.4c0,0.1,0,0.2,0.1,0.4c0,0.2,0.1,0.5,0.1,0.7c0,0.1,0,0.1,0.1,0.2c0.3,0.7,0.8,1.3,1.9,1.5
				c18.3,3.4,36.5,6.7,54.8,10.1c0.9,0.2,2.1,0.1,2.8-0.7C1426.9,526,1426.9,512,1424.8,502.1z"/>
		</g>
		<g>
			<path class="st5" d="M637.6,472.4c-1.5-21.8-21.3-35.8-41.7-31.7c-21.1-2.5-44.3,9.2-44.4,33.1c-0.1,24.3,25.2,41.9,47.9,40.4
				C620.8,512.9,639.1,494.4,637.6,472.4z"/>
			<linearGradient id="SVGID_8_" gradientUnits="userSpaceOnUse" x1="877.9992" y1="647.0325" x2="740.7151" y2="647.0325">
				<stop  offset="0" style="stop-color:#D85B71"/>
				<stop  offset="1" style="stop-color:#BB395B"/>
			</linearGradient>
			<path class="st16" d="M680.6,535.4c0,0,40.6-3,52.4,29.2c11.8,32.2,35.9,134.2,47.7,143.8c11.8,9.7,92.9-62.1,113.5-77
				s27.9-40.1,47.5-47s33.3-8.4,30.4-3c-2.9,5.4-24,20.3-26.5,29.7s-18.1,21.3-35.8,31.7c-17.6,10.4-66.6,110.9-142,115.8
				c0,0-40.7-5.4-54.4-90.1C697.5,570.6,680.6,535.4,680.6,535.4z"/>
			<linearGradient id="SVGID_9_" gradientUnits="userSpaceOnUse" x1="744.8522" y1="610.63" x2="688.2594" y2="645.3213">
				<stop  offset="0" style="stop-color:#916DAA"/>
				<stop  offset="1" style="stop-color:#694A8E"/>
			</linearGradient>
			<path class="st17" d="M732.9,564.6c-9.7-26.7-39.2-29.2-49.1-29.3c-0.1,2.2-0.2,4.6-0.4,7.1c5.5,14.5,18,52.6,29.9,126.1
				c3.6,22.1-3.1,51.7,2.9,64.3c12.9-3.1,57.3-24.7,70.5-36.4C774.6,665,742.8,591.5,732.9,564.6z"/>
			<linearGradient id="SVGID_10_" gradientUnits="userSpaceOnUse" x1="646.0031" y1="1370.8768" x2="883.5432" y2="1370.8768">
				<stop  offset="0" style="stop-color:#D85B71"/>
				<stop  offset="1" style="stop-color:#BB395B"/>
			</linearGradient>
			<path class="st18" d="M703.6,1625c-4.2-51.5-50.3-198.6-48.8-347.7s-8.8-288-8.8-288l110.7-7.3c0,0-7.3,264.4-6.9,307
				c0,0-8.2,330.3,6.9,374.8c15.1,44.4,55.3,51.8,83.9,55s59.2,27.5,32.8,37c-26.5,9.5-153.7-0.4-175.9-5.9
				c-20.6-5.1-37.6-14.6-17-58c2.5-5.3,5.5-10.4,8.7-15.4C694.7,1667.9,705.4,1647.8,703.6,1625z"/>
			<linearGradient id="SVGID_11_" gradientUnits="userSpaceOnUse" x1="767.0757" y1="1586.2126" x2="699.2313" y2="1201.3955">
				<stop  offset="0" style="stop-color:#916DAA"/>
				<stop  offset="1" style="stop-color:#694A8E"/>
			</linearGradient>
			<path class="st19" d="M654.8,1277.3c-1.5,149.1,17.2,266.8,21.4,318.4c0.1,0.8,2.3,32.8,2.3,33.6c12.9,2,67.8,1.7,86.3-2.3
				c-7.4-99.3-4.8-340.9-4.8-340.9c-0.3-42.6-3.3-304.2-3.3-304.2L646,989.3C646,989.3,656.2,1128.2,654.8,1277.3z"/>
			<linearGradient id="SVGID_12_" gradientUnits="userSpaceOnUse" x1="573.5292" y1="1367.8447" x2="660.2017" y2="449.3715">
				<stop  offset="0" style="stop-color:#D85B71"/>
				<stop  offset="1" style="stop-color:#BB395B"/>
			</linearGradient>
			<path class="st20" d="M472,1639.4c37.7-33.2,22.9-123.5,52.3-211.5c43.2-129.5,92-113.2,81.3-167.9
				c-14.1-71.9-53.5-279.2-44.6-356.8c6.6-57,38.5-77.2,27.8-110.4c-10.7-33.1-54.9-214.7-50-243.9c0,0,48.2-7.6,60.9-20.2
				c6.3-6.3,3.9-67.3,3.9-67.3l46.1,25.6c0,0-1.5,29.2,3.7,40.9c5.1,11.7,34.2,0.7,48.2,13.2c14,12.4,16,35.9,30.8,63.1
				c15.2,28,20.8,54.9,3.5,78.3s-27.4,88.9-21.1,116.2c5.9,25.7-1.6,53.1,3.4,151.6c5,98.4-27.8,325.9-37.5,353.2
				c0,0-157.3,302.1-160.5,334.9s38.9,55.9,63.5,65.6c34.9,13.8,54,32.5,31.7,43.1s-116.1-10.5-152-23.2S418.1,1686.8,472,1639.4z"
				/>
			<linearGradient id="SVGID_13_" gradientUnits="userSpaceOnUse" x1="688.2603" y1="455.3597" x2="597.1052" y2="379.3373">
				<stop  offset="0" style="stop-color:#D85B71"/>
				<stop  offset="1" style="stop-color:#BB395B"/>
			</linearGradient>
			<path class="st21" d="M672.3,352.5c0,0,34.4,13.9,28.5,70.2c-5.8,56.3-30,100.9-79.7,67.3c-49.7-33.6-41.7-108.2-27.8-122.1
				C607.3,354,635.8,335,672.3,352.5z"/>
			<path class="st8" d="M586.1,536.7c0,0,77.2,57.3,95.9-2l17.7,20.1l-2.8,45.9l-16.4,31.8h-37.6l-34-24.2L586.1,536.7z"/>
			<linearGradient id="SVGID_14_" gradientUnits="userSpaceOnUse" x1="574.8488" y1="1531.9078" x2="630.0458" y2="1010.57">
				<stop  offset="0" style="stop-color:#916DAA"/>
				<stop  offset="1" style="stop-color:#694A8E"/>
			</linearGradient>
			<path class="st22" d="M582.3,837.1c-7.6,16.7-17.8,36.4-21.3,66.1c-8.9,77.5,11,276.2,25.1,348.1c10.7,54.7-26.9,47.6-70.2,177.1
				c-21.7,65.1-30,116.9-42.5,160.5c11.8,3,69.4,25.9,81.5,28.8c33.8-82.3,134.5-306.8,134.5-306.8c9.7-27.3,33.5-262.2,28.6-360.7
				c-3.2-63.9-1.2-97.9-1-120.9C680.8,836.3,630.3,837.8,582.3,837.1z"/>
			<linearGradient id="SVGID_15_" gradientUnits="userSpaceOnUse" x1="654.3317" y1="750.7258" x2="654.3317" y2="1027.4913">
				<stop  offset="0" style="stop-color:#916DAA"/>
				<stop  offset="1" style="stop-color:#825F9E"/>
			</linearGradient>
			<path class="st23" d="M775.4,931c-3.5-54.6-31.8-107.1-39.6-143s0-105.4,0-105.4c17.3-23.4,11.7-50.3-3.5-78.3
				c-14.9-27.2-16.9-50.7-30.8-63.1c-5.1-4.5-12.2-5.9-19.5-6.5c5.4,28.8,11.3,76.3-8.9,79.1c-23.3,3.3-69.6-54.2-87.1-77.1
				c-18.9,7.8-47.3,12.2-47.3,12.2c-3,18,12.6,93.6,27.5,156.9c0,0.2,12.9,73.2-9.9,136c-22.8,62.9-40.5,211.2-40.5,211.2
				s12.9,5.2,37.6,9.9c0,0.2,0,0.4,0.1,0.6c9.1,1.5,18.3,2.7,27.5,3.6c12.6,1.5,26.9,2.6,42.9,3c1.6,0,3.1,0,4.6-0.1
				c33.3,0.7,64.9-1.1,90.5-3.5c0,0,0,0,0,0c3.9-0.3,7.6-0.7,11.1-1.1c2.7-0.3,5.3-0.6,7.8-0.8c0-0.1,0-0.1,0-0.2
				c14.3-2,54.5-8.9,54.5-8.9S778.9,985.5,775.4,931z"/>
			<path class="st24" d="M615.3,1747.1c21.4-10.2,4.6-27.9-27.8-41.5c-6.9,1.2-15,2.1-24.7,2.5c-49.4,2.1-87.8-37.4-103.6-56.8
				c-39.3,39.7-28.8,60.9,4,72.5C499.2,1736.5,593.1,1757.6,615.3,1747.1z"/>
			<path class="st24" d="M840.6,1718.8c-0.4,0-0.8-0.1-1.3-0.1c-9.9,6.5-24.7,11.8-46,9.7c-35.7-3.6-87.2-28.1-110.9-40.2
				c-0.7,1.3-1.3,2.6-1.9,3.9c-20.6,43.4-3.6,52.9,17,58c22.2,5.5,149.5,15.4,175.9,5.9C899.9,1746.3,869.2,1722,840.6,1718.8z"/>
			<path class="st25" d="M568.4,921c0,0,35.5,17.7,77.6,10.1l-4.4,39.6c-2.5,22.1-22.5,38.1-44.5,35.2c-0.4,0-0.7-0.1-1.1-0.1
				c-22.1-3.1-37.2-23.8-33.7-45.8L568.4,921z"/>
			<path class="st25" d="M683.5,931.6c0,0,39.2,6,77-14.2l7.9,39c4.4,21.8-9.7,43.2-31.6,47.2c-0.4,0.1-0.7,0.1-1.1,0.2
				c-21.9,3.9-42.7-11.2-46.2-33.2L683.5,931.6z"/>
			<path class="st8" d="M651.6,868.4l-131.7-38c-1.5-0.4-2.3-1.9-1.9-3.4l55.6-192.8c0.4-1.5,1.9-2.3,3.4-1.9l131.7,38
				c1.5,0.4,2.3,1.9,1.9,3.4L655,866.6C654.6,868,653.1,868.9,651.6,868.4z"/>
			<linearGradient id="SVGID_16_" gradientUnits="userSpaceOnUse" x1="574.283" y1="774.6802" x2="561.2355" y2="669.6194">
				<stop  offset="0" style="stop-color:#D85B71"/>
				<stop  offset="1" style="stop-color:#BB395B"/>
			</linearGradient>
			<path class="st26" d="M538.8,548.9c0,0-12.4-0.1-30.3,32.9c-27.5,50.6-69.6,160.5-48.4,179.7c21.2,19.2,162.9,8.1,185.9,27.3
				c23,19.2,39.2,17.2,42.2,0c3-17.2,2-53.5-15.1-46.4c-17.2,7.1-22.5,11.4-39.9,9.1s-110.6-14.3-123.4-28.5
				c-9.1-10.1,51.5-106.2,51.5-106.2L538.8,548.9z"/>
			<path class="st27" d="M534.1,710.1c12.6-31,34.5-75.8,34.5-75.8l-29.8-85.4c0,0-12.4-0.1-30.3,32.9
				c-14.9,27.5-34.2,72.5-45.3,110.9C475.4,697.5,513.4,708.9,534.1,710.1z"/>
			<path class="st4" d="M712.9,450.9c5.1-13.9,6-28.3,2.5-42.7c-5.7-24.1-20.3-50-44-59.6c-0.1,0-0.1-0.1-0.1-0.1
				c-29-12.6-63.1,0.3-82.3,24.2c-8.4,8.1-15.7,17.2-19.7,28.5c-5.2,14.8-2.6,32.4,10.2,42.4c0.2,0.1,0.3,0.2,0.5,0.2
				c4.8,8,10.6,16,13.1,24.3c1.4,7.1,1.7,13.9-3.7,18.7c-2.3,2.1,0.4,5.1,2.9,4.4c1.2,0.5,2.7,0.3,3.5-1.1c4.8-8,4.9-16.6,2.1-25.1
				c-2.1-9.8-3.6-17.6,2.4-26.9c2.2-3.4,4.9-6.2,7.9-8.6c4-2.5,8.6-4.2,13.2-5.5c9-2.4,18-3.9,26.6-7.6
				c11.3-4.8,21.6-13.6,25.4-25.1c3.8,12.8,15.1,21.4,23.7,32.4c2.7,3.4,4.4,6.7,5.4,9.8c-1.1,8.2-5.7,16.7-7.1,24.6
				c-0.9,5.1-0.7,10.1,1.4,14.8c2.1,4.6,5.3,8.6,7.1,13.3c-0.1,0.6-0.2,1.3-0.4,1.9c-0.2,0.5-0.2,0.9-0.1,1.3
				c-0.9,2.6,3.3,4.6,5.2,2c2.7-3.8,3.1-7,2.2-11.5c-1.5-7.1-4.7-6.8-2.9-16.6C708.7,459,711.4,454.8,712.9,450.9z M573,397.1
				c2.3-5,5.3-9.6,8.7-13.8c-7.5,13.3-11.9,29.2-8.8,44.2c0.7,3.7,2.3,7.3,4.2,11C567,427.4,566.8,410.7,573,397.1z M634.6,418.8
				c-5.1,1.3-10.7,2.5-16.1,4.1c1.1-0.6,2.2-1.1,3.3-1.6c18.8-9,41.7-14.8,50.6-34.7c0,0.1,0,0.3,0.1,0.4
				C669.4,404.5,651,414.5,634.6,418.8z M699.7,450.1c1.3-3.9,2.8-7.9,3.8-12c1,7.3-1.2,14.6-3.3,23.5c-1.4,6.2,2.1,13.2,3.4,19.4
				c-1.4-2.5-3-5-4.4-7.6C695.4,465.7,697,457.8,699.7,450.1z"/>
		</g>
	</g>
</g>
</svg>
