<?xml version="1.0" encoding="utf-8"?>
<!-- Generator: Adobe Illustrator 16.0.0, SVG Export Plug-In . SVG Version: 6.00 Build 0)  -->
<!DOCTYPE svg PUBLIC "-//W3C//DTD SVG 1.1//EN" "http://www.w3.org/Graphics/SVG/1.1/DTD/svg11.dtd">
<svg version="1.1" xmlns="http://www.w3.org/2000/svg" xmlns:xlink="http://www.w3.org/1999/xlink" x="0px" y="0px" width="1400px"
	 height="980px" viewBox="0 0 1400 980" enable-background="new 0 0 1400 980" xml:space="preserve">
<g id="BACKGROUND">
	<rect x="-13" y="-11" fill="#FFFFFF" width="1426" height="1002"/>
</g>
<g id="OBJECTS">
	<g>
		<defs>
			<path id="SVGID_1_" d="M1058.763,799.896c-24.968,3.772-45.179,3.772-59.512,2.827c18.669-47.862,14.963-102.069-13-119.76
				c-22.513-14.244-48.345-12.32-74.407-5.555c27.866-35.614,44.191-100.231,40.436-108.938
				c-5.349-12.404,20.615-139.299,19.66-172.692c33.394-8.587,45.798-111.63,38.876-109.722c-6.923,1.908-18.84-4.771-31.241-9.542
				c-12.405-4.77-15.268-3.816-27.295,0c-6.299,1.999-12.643,0.868-18.904,0.691c0.477-0.219,0.929-0.447,1.355-0.691
				c13.357-7.633,16.219-58.2,16.219-58.2s16.22-101.851-64.64-153.372c-80.861-51.521-163.867,64.402-172.453,99.465
				c-8.587,35.063-38.642,48.182-38.642,48.182c-161.243-10.495-317.716,238.525-356.834,480.868
				c-30.906,191.47,69.812,231.651,172.749,233.972c-0.027,0.059-0.056,0.12-0.056,0.12s0.631-0.029,1.73-0.082
				c26.796,0.498,53.694-1.521,78.415-4.071c1.794-0.186,3.571-0.411,5.335-0.667c62.604-3.984,149.132-10.443,222.888-19.392
				c22.727,14.083,88.695,14.865,176.315,20.059C1104.561,931.029,1106.469,792.686,1058.763,799.896z M739.141,331.854
				c21.942-17.174,43.887,29.577,64.877,33.394c20.991,3.816,47.706-26.715,47.706-26.715c10.495,7.633,31.485,0,31.485,0
				c-0.655-41.256,17.567-51.497,33.381-56.332c-11.462,9.501,12.415,100.221,12.415,100.221s-50.567,162.196-76.327,189.866
				c-35.302-16.221-77.282-125.942-92.548-172.693S717.195,349.028,739.141,331.854z M707.094,704.639
				c-21.219-29.497,5.33-81.977,5.33-84.646c0-2.268,75.486,63.751,135.311,77.969c-5.814,1.673-11.499,3.094-17.001,4.083
				C802.241,707.173,747.549,706.257,707.094,704.639z"/>
		</defs>
		<clipPath id="SVGID_2_">
			<use xlink:href="#SVGID_1_"  overflow="visible"/>
		</clipPath>
		<path clip-path="url(#SVGID_2_)" fill="#84B7BF" d="M1058.763,799.896c-24.968,3.772-45.179,3.772-59.512,2.827
			c18.669-47.862,14.963-102.069-13-119.76c-22.513-14.244-48.345-12.32-74.407-5.555c27.866-35.614,44.191-100.231,40.436-108.938
			c-5.349-12.404,20.615-139.299,19.66-172.692c33.394-8.587,45.798-111.63,38.876-109.722c-6.923,1.908-18.84-4.771-31.241-9.542
			c-12.405-4.77-15.268-3.816-27.295,0c-6.299,1.999-12.643,0.868-18.904,0.691c0.477-0.219,0.929-0.447,1.355-0.691
			c13.357-7.633,16.219-58.2,16.219-58.2s16.22-101.851-64.64-153.372c-80.861-51.521-163.867,64.402-172.453,99.465
			c-8.587,35.063-38.642,48.182-38.642,48.182c-161.243-10.495-317.716,238.525-356.834,480.868
			c-30.906,191.47,69.812,231.651,172.749,233.972c-0.027,0.059-0.056,0.12-0.056,0.12s0.631-0.029,1.73-0.082
			c26.796,0.498,53.694-1.521,78.415-4.071c1.794-0.186,3.571-0.411,5.335-0.667c62.604-3.984,149.132-10.443,222.888-19.392
			c22.727,14.083,88.695,14.865,176.315,20.059C1104.561,931.029,1106.469,792.686,1058.763,799.896z M739.141,331.854
			c21.942-17.174,43.887,29.577,64.877,33.394c20.991,3.816,47.706-26.715,47.706-26.715c10.495,7.633,31.485,0,31.485,0
			c-0.655-41.256,17.567-51.497,33.381-56.332c-11.462,9.501,12.415,100.221,12.415,100.221s-50.567,162.196-76.327,189.866
			c-35.302-16.221-77.282-125.942-92.548-172.693S717.195,349.028,739.141,331.854z M707.094,704.639
			c-21.219-29.497,5.33-81.977,5.33-84.646c0-2.268,75.486,63.751,135.311,77.969c-5.814,1.673-11.499,3.094-17.001,4.083
			C802.241,707.173,747.549,706.257,707.094,704.639z"/>
		<path clip-path="url(#SVGID_2_)" fill="#7BAEBA" d="M744.033,132.037c-18.827,32.682-27.101,74.16-58.32,95.324
			c-16.743,11.35-37.421,14.726-56.709,20.812c-24.045,7.587-46.418,19.627-68.333,32.098
			c-18.687,10.635-37.318,21.747-53.158,36.287c-18.188,16.695-32.154,37.406-45.411,58.233
			c-58.27,91.536-106.978,191.397-123.537,298.636c-5.824,37.715-7.552,76.683,1.689,113.709
			c9.241,37.024,30.438,72.123,62.785,92.372c32.227,20.172,71.896,23.953,109.913,24.417
			c107.214,1.307,214.864-19.465,321.18-5.555c28.689,3.754,57.154,10.025,86.079,10.669c31.419,0.698,62.811-5.317,92.377-15.964
			c16.849-6.067,34.214-14.561,43.098-30.107c8.885-15.548,4.454-39.552-12.506-45.302c-13.521-4.583-27.604,3.632-41.414,7.256
			c-13.81,3.623-33.57-2.436-32.48-16.671c0.396-5.188,3.66-9.631,6.5-13.99c9.129-14.011,15.007-30.729,13.333-47.366
			c-1.673-16.64-11.917-32.902-27.527-38.901c-17.629-6.773-37.633,0.202-56.224-3.121c-3.606-0.645-7.273-1.747-10.012-4.183
			c-10.251-9.114-0.259-25.306,8.039-36.229c43.51-57.277,30.938-137.866,47.347-207.898c11.749-50.145,38.861-95.599,51.248-145.59
			c0.877-3.544,1.66-7.385,0.252-10.753c-1.77-4.231-6.408-6.401-10.733-7.929c-21.268-7.517-44.731-8.693-66.644-3.341
			c-1.975,29.818,12.811,58.707,11.762,88.572c-0.657,18.755-7.519,36.67-14.435,54.116c-18.306,46.178-37.609,91.96-57.894,137.304
			c-3.839,8.58-10.506,18.713-19.739,16.951c-5.086-0.971-8.676-5.405-11.726-9.589c-52.305-71.71-82.497-156.759-111.999-240.472
			c-0.793-2.251-1.597-4.667-1.005-6.979c0.582-2.274,2.404-4.002,4.258-5.442c16.831-13.069,43.491-11.018,58.126,4.472
			c7.362,7.793,12.853,18.969,23.347,21.17c12.116,2.541,22.274-8.358,31.917-16.126c9.641-7.768,27.183-11.166,31.853,0.301
			c-3.947-14.645,0.124-31.193,10.415-42.335c10.708-11.592,26.674-16.816,38.662-27.08c30.117-25.785,26.295-72.984,16.637-111.438
			c-8.124-32.351-22.907-68.637-54.913-78.03c-22.959-6.739-59.431-10.2-79.85,1.583
			C777.086,89.308,757.407,108.822,744.033,132.037z"/>
		<path clip-path="url(#SVGID_2_)" fill="#6397AA" d="M736.57,173.753c-7.108,16.796-11.724,34.808-21.463,50.229
			c-30.38,48.112-96.546,54.534-147.039,80.768c-59.442,30.884-97.798,90.799-127.659,150.761
			c-30.054,60.35-54.405,123.54-72.624,188.452c-15.131,53.913-25.301,114.589,1.797,163.59
			c32.425,58.635,107.372,79.683,174.355,78.061c66.985-1.621,133.228-20.068,200.114-16.108
			c44.5,2.635,87.793,15.124,131.941,21.305c44.146,6.182,91.452,5.445,130.303-16.414c9.029-5.08,18.512-13.591,16.705-23.792
			c-2.337-13.205-20.449-15.756-33.462-12.525c-13.014,3.231-27.863,8.715-38.831,1.001c-14.21-9.997-8.779-32.17-0.512-47.454
			c8.268-15.282,17.932-34.299,8.173-48.676c-16.656-24.536-66.464-1.875-79.8-28.361c-2.991-5.941-2.954-12.944-2.114-19.544
			c4.161-32.729,25.672-60.363,37.049-91.337c10.305-28.055,12.119-58.37,15.751-88.038c8.43-68.87,27.22-136.462,55.541-199.803
			c-11.95-8.58-25.606-14.777-39.933-18.123c2.683,100.597-24.167,201.805-76.363,287.843c-3.373,5.56-7.176,11.352-13.099,14.039
			c-14.814,6.719-29.392-9.387-37.573-23.447c-39.609-68.069-74.03-139.156-102.865-212.442c-3.413-8.673-6.805-17.736-6.104-27.03
			c1.361-18.067,18.855-32.042,36.893-33.759c18.037-1.717,35.774,6.524,49.896,17.879c4.041,3.25,8.166,6.908,13.289,7.715
			c14.116,2.225,27.242-17.855,39.688-10.836c-3.129-16.403,8.607-32.009,21.754-42.305c13.146-10.295,28.688-18.138,38.634-31.553
			c7.447-10.046,11.087-22.413,13.306-34.72c5.485-30.426,2.533-63.595-14.713-89.255c-17.999-26.78-59.396-44.81-91.053-33.707
			C781.045,98.62,750.551,140.725,736.57,173.753z"/>
		<path clip-path="url(#SVGID_2_)" fill="#477791" d="M774.124,143.671c-15.394,21.394-20.169,48.56-32.4,71.905
			c-18.32,34.964-52.125,59.131-86.931,77.75c-34.805,18.619-71.98,33.161-104.341,55.763
			c-46.806,32.692-81.15,80.788-105.703,132.332c-24.552,51.544-40.026,106.85-55.383,161.838
			c-9.243,33.094-18.571,67.427-13.312,101.381c2.44,15.755,7.992,30.928,15.325,45.083c9.258,17.871,21.676,34.519,38.26,45.922
			c22.466,15.45,50.645,20.08,77.896,21c69.151,2.333,137.655-16.537,206.827-14.899c43.544,1.032,86.594,10.204,128.128,23.322
			c30.216,9.543,66.719,20.077,90.659-0.681c-0.696-12.202-18.604-13.619-27.049-22.454c-19.915-20.836,24.816-58.985,5.916-80.747
			c-7.542-8.685-20.829-8.233-32.331-8.198c-11.504,0.036-25.462-2.851-29.128-13.754c-2.081-6.188,0.042-12.918,2.154-19.098
			c17.215-50.341,34.43-100.683,51.646-151.024c-13.08,6.564-19.557,21.161-26.553,34.016c-6.995,12.854-17.707,26.24-32.339,26.525
			c-8.175,0.16-15.812-3.946-22.517-8.627c-37.104-25.904-56.306-70.447-68.483-114.029
			c-12.178-43.583-19.434-89.208-40.686-129.159c-9.895-18.604-23.168-39.075-16.395-59.028
			c5.928-17.464,24.828-26.42,42.028-33.077c4.791-1.854,9.778-3.708,14.907-3.395c8.219,0.503,14.983,6.358,21.066,11.906
			c7.382,6.733,15.046,13.633,24.485,16.903c9.44,3.271,21.211,1.979,27.557-5.737c4.458-5.42,5.46-12.798,8.064-19.315
			c6.709-16.789,23.428-26.878,36.953-38.877c15.709-13.938,28.169-32.199,32.399-52.77c4.23-20.571-0.59-43.459-15.023-58.715
			C855.738,99.705,802.708,103.948,774.124,143.671z"/>
		<path clip-path="url(#SVGID_2_)" fill="#3F6C89" d="M754.453,214.492c-25.615,46.73-69.187,80.723-113.473,110.367
			c-44.286,29.644-91.056,56.78-127.999,95.188c-57.208,59.474-85.74,140.578-106.016,220.57
			c-7.284,28.74-13.76,58.174-11.954,87.768c1.807,29.593,12.888,59.769,35.55,78.885c27.409,23.118,66.509,26.364,102.153,22.461
			c58.095-6.36,116.908-28.65,173.391-13.646c15.755,4.186,30.618,11.163,46.108,16.243c23.907,7.844,49.307,11.11,74.419,9.573
			c14.181-0.869,31.098-5.64,34.763-19.366c1.988-7.438-0.742-15.216-1.466-22.882c-0.724-7.665,1.929-17.059,9.38-19
			c-10.725-4.929-21.447-9.855-32.173-14.784c-3.727-1.713-7.591-3.528-10.183-6.708c-5.78-7.09-3.068-17.557-0.079-26.202
			c8.814-25.493,17.63-50.986,26.445-76.48c-40.873,1.112-78.535-26.157-100.04-60.936c-21.503-34.775-29.458-76.116-34.532-116.688
			c-3.486-27.855-6.168-56.966-20.916-80.852c-5.064-8.2-11.488-15.652-15.155-24.565c-7.948-19.317-1.457-41.598,8.339-60.046
			c7.57-14.258,17.399-27.787,30.941-36.573c13.543-8.786,31.301-12.178,46.144-5.831c8.291,3.545,15.166,9.802,23.341,13.608
			c8.173,3.806,19.064,4.497,25.169-2.139c4.554-4.952,5.008-12.299,7.472-18.56c3.975-10.101,13.055-17.083,20.812-24.675
			c27.09-26.509,47.243-94.733-2.729-111.383C794.568,111.979,770.693,184.866,754.453,214.492z"/>
		<path clip-path="url(#SVGID_2_)" fill="#2E5368" d="M562.982,432.148c-37.148,29.227-78.037,56.887-100.421,98.517
			c-6.736,12.526-11.575,25.979-15.885,39.531c-10.834,34.063-18.489,69.138-22.833,104.618
			c-3.903,31.893-4.352,66.923,14.488,92.95c24.351,33.643,72.226,40.156,113.352,34.387c41.128-5.769,81.346-20.784,122.831-18.864
			c28.628,1.325,56.219,10.688,83.112,20.589c10.758,3.961,21.953,8.091,33.36,6.951c11.406-1.14,23.009-9.338,23.888-20.768
			c1.349-17.545-21.207-28.769-22.991-46.274c-2.007-19.684,22.81-33.725,22.686-53.51c-0.07-11.399-8.707-21.079-18.396-27.087
			c-9.689-6.007-20.768-9.497-30.456-15.504c-21.506-13.336-33.681-37.242-44.812-59.968c-14.452-29.503-29.205-60.18-30.023-93.021
			c-0.557-22.358,5.197-46.099-4.498-66.253c-3.399-7.065-8.505-13.15-12.674-19.791c-6.027-9.6-10.004-20.46-11.788-31.646
			c-1.66-10.41,2.32-24.187-1.686-33.172C625.915,369.691,597.262,405.178,562.982,432.148z"/>
		<path clip-path="url(#SVGID_2_)" fill="#154851" d="M588.895,462.999c-23.893,20.662-50.809,37.482-76.181,56.299
			c-8.875,6.582-17.681,13.527-24.276,22.394c-7.776,10.453-12.083,23.036-15.783,35.528
			c-10.311,34.798-16.844,70.714-19.45,106.914c-0.735,10.215-1.131,20.688,1.826,30.495c3.325,11.023,10.78,20.529,19.91,27.548
			c22.595,17.373,53.474,19.375,81.79,16.123c28.315-3.251,56.249-11.021,84.746-10.507c29.433,0.529,57.998,9.877,87.292,12.787
			c6.473,0.644,13.521,0.831,18.888-2.846c11.224-7.684,7.49-25.488,14.386-37.212c3.157-5.37,8.666-9.639,9.644-15.79
			c1.228-7.709-5.133-14.343-11.019-19.469c-22.354-19.463-45.921-37.798-65.282-60.24c-19.36-22.443-34.527-49.846-36.321-79.432
			c-1.287-21.21,4.308-42.182,6.034-63.361c1.042-12.78-0.662-88.496-19.328-88.385c-7.88,0.047-20.257,29.49-24.536,35.181
			C611.82,441.543,600.724,452.768,588.895,462.999z"/>
		<path clip-path="url(#SVGID_2_)" fill="#0D363A" d="M520.894,560.677c-8.283,12.97-12.904,27.916-16.612,42.854
			c-6.559,26.417-10.555,53.47-11.916,80.654c-0.285,5.699-0.411,11.639,1.939,16.838c2.28,5.042,6.69,8.854,11.506,11.577
			c23.072,13.051,51.558,2.97,77.673-1.577c31.446-5.472,64.375-2.161,94.102,9.461c16.573,6.48,37.412,14.799,50.186,2.41
			c10.23-9.922,7.324-27.78-1.568-38.916c-8.893-11.137-22.07-17.777-33.662-26.068c-28.498-20.388-48.31-52.529-53.717-87.15
			c-2.653-16.982-1.972-34.287-1.285-51.461c0.421-10.521,7.34-58.086-3.469-57.986c-7.172,0.067-27.642,28.616-34.537,34.014
			C572.594,516.417,540.394,531.426,520.894,560.677z"/>
		<path clip-path="url(#SVGID_2_)" d="M553.25,582.966c-12.536,18.95-17.003,41.983-20.438,64.443
			c-2.12,13.858-2.016,31.608,10.659,37.601c6.767,3.2,14.696,1.548,22.073,0.276c24.567-4.237,49.986-3.467,74.252,2.248
			c18.117,4.269,35.938,11.301,54.549,11.034c3.516-5.062,1.115-12.397-3.391-16.603c-4.505-4.204-10.56-6.212-16.176-8.751
			c-29.129-13.175-48.438-42.743-55.952-73.817c-7.106-29.384-2.407-57.25-1.369-86.677c-10.952,10.285-19.489,24.219-30.838,34.973
			C574.851,558.846,562.279,569.316,553.25,582.966z"/>
		<g clip-path="url(#SVGID_2_)">
			<path d="M594.426,587.977c6.588,0,7.377,14.446,8.073,27.192c0.455,8.339,0.885,16.215,2.798,20.696
				c4.61,10.797,12.826,19.454,21.213,27.062c-9.757-4.69-20.687-7.213-31.606-7.213c-4.074,0-8.144,0.35-12.098,1.04l-0.727,0.128
				c-3.128,0.55-6.364,1.118-9.428,1.118c-4.261,0-7.132-1.107-9.036-3.486c-2.11-2.637-2.56-6.702-1.336-12.081
				c2.95-12.963,17.667-48.4,28.893-53.613C592.377,588.261,593.472,587.977,594.426,587.977 M594.426,586.977
				c-1.081,0-2.298,0.297-3.675,0.937c-11.914,5.532-26.645,41.984-29.447,54.299c-0.997,4.382-1.277,9.419,1.531,12.928
				c2.376,2.969,5.941,3.861,9.816,3.861c3.4,0,7.04-0.687,10.327-1.261c3.937-0.688,7.933-1.025,11.926-1.025
				c14.001,0,28.01,4.151,39.649,11.951c-11.105-9.604-22.571-19.69-28.336-33.193C601.287,623.925,606.464,586.977,594.426,586.977
				L594.426,586.977z"/>
		</g>
		<path clip-path="url(#SVGID_2_)" fill="none" stroke="#000000" stroke-miterlimit="10" d="M585.822,609.005
			c-1.368,11.569-5.398,22.813-11.688,32.619c5.8,2.145,12.134,2.83,18.258,1.977c-2.307-10.456-4.615-20.911-6.923-31.366"/>
		<path clip-path="url(#SVGID_2_)" fill="#477791" d="M791.669,178.022c-12.671,29.28-30.388,56.369-52.135,79.712
			c9.276-4.73,20.604-2.848,30.263,1.046c9.656,3.895,18.541,9.657,28.473,12.792c1.979,0.625,4.217,1.122,6.058,0.163
			c1.788-0.932,2.668-2.956,3.413-4.829c5.245-13.176,10.703-26.838,20.991-36.599c3.312-3.141,7.053-5.803,10.347-8.961
			c11.19-10.734,16.45-27.301,13.496-42.525c-2.536-13.087-15.047-33.665-30.199-34.616
			C805.237,143.13,797.195,165.247,791.669,178.022z"/>
		<path clip-path="url(#SVGID_2_)" fill="#3F6C89" d="M769.092,243.89c5.191-2.738,11.561-3.135,17.052-1.066
			c2.443,0.921,4.888,2.331,7.479,2.002c2.595-0.329,4.622-2.319,6.44-4.2c9.409-9.733,18.817-19.466,28.226-29.199
			c15.052-15.57,10.09-50.029-14.927-33.419C794.682,190.41,782.923,225.801,769.092,243.89z"/>
		<path clip-path="url(#SVGID_2_)" fill="#2E5368" d="M812.957,199.291c-7.887,7.786-14.295,17.064-18.785,27.196
			c12.142-1.348,21.826-13.926,20.025-26.008"/>
		<g clip-path="url(#SVGID_2_)">
			<path fill="#D5593F" d="M348.445,606.105c0.051,0.029,0.142,0.08,0.253,0.15C348.618,606.206,348.527,606.155,348.445,606.105z"
				/>
			<path fill="#D5593F" d="M891.688,624.48c-13.812,29.465-82.883,11.968-130.765,28.542c-47.892,16.574,0,197.978,0,197.978
				h-276.26c-21.179-18,18.123-204.95-34.069-209.948c-48.944-4.685-95.956-31.337-101.643-34.655
				c9.644,5.201,23.314,0.053,37.399-9.299c29.384-19.52,60.561-57.341,60.561-57.341c19.337,11.971,140.407,23.939,140.407,23.939
				c13.559,1.67,29.071,2.319,45.442,2.228c56.189-0.283,122.446-9.087,154.3-13.863c11.89-1.771,18.982-2.984,18.982-2.984
				C813.409,608.119,891.688,624.48,891.688,624.48z"/>
			<path fill="#C6422C" d="M632.76,565.924c-13.255,9.723-28.788,20.217-39.584,24.75c-22.605,9.501-67.218-0.496-100.61-3.531
				c-33.392-3.036-101.329,14.875-101.329,14.875s-1.872-1.833-4.888-4.918c8.682-5.769,17.526-13.134,25.671-20.653
				c19.418-17.92,34.89-36.689,34.89-36.689c19.337,11.97,140.407,23.94,140.407,23.94c5.271,0.647,10.826,1.144,16.625,1.497
				C613.06,565.762,622.753,565.983,632.76,565.924z"/>
			<path fill="#AF3222" d="M603.942,565.194c-23.637,5.92-79.604,9.057-109.353,5.698c-27.654-3.128-65.792,2.609-82.569,5.554
				c19.418-17.92,34.89-36.689,34.89-36.689c19.337,11.97,140.407,23.94,140.407,23.94
				C592.589,564.345,598.144,564.841,603.942,565.194z"/>
			<path fill="#C6422C" d="M891.688,624.48c-13.812,29.465-82.883,12.091-130.765,28.666c-2.823,0.981-5.322,2.41-7.509,4.475
				C718.517,690.396,760.924,851,760.924,851h-77.63c-4.634-27-3.107-61.149-4.563-102.969
				c-2.044-58.688,25.317-117.378,67.815-116.366s86.009-8.095,68.018-21.239c-12.709-9.279-22.717-40.712-27.502-58.369
				c11.89-1.771,18.982-2.979,18.982-2.979C813.409,608.121,891.688,624.48,891.688,624.48z"/>
			<path fill="#CEAD8D" d="M655.021,575.213c0,9.663-28.545,49.268-28.545,49.268s-25.893-18.346-35.556-33.149
				c-2.976-4.532-4.413-8.742-3.117-11.98c5.525-13.812,0-50.644,0-53.406c0,0,30.964-11.728,48.347-13.762
				c6.981-0.81,11.768-0.06,11.505,3.633c-0.07,0.982-0.091,2.105-0.05,3.339c0.182,8.086,2.317,21.118,4.25,32.826
				C653.514,562.027,655.021,571.084,655.021,575.213z"/>
			<path fill="#C69263" d="M651.854,551.98c-11.515,13.062-31.915,31.348-60.934,39.351c-2.976-4.532-4.413-8.742-3.117-11.98
				c5.525-13.812,0-50.644,0-53.406c0,0,30.964-11.728,48.347-13.762c3.946,2.064,7.862,4.392,11.455,6.972
				C647.787,527.24,649.922,540.272,651.854,551.98z"/>
			<path fill="#E0BF9B" d="M561.094,454.116c0,0-14.734,76.432,56.173,99.454c0,0,80.115-17.495,61.698-99.454
				c-18.417-81.957-46.405-87.482-58.195-82.878C608.979,375.842,560.741,418.712,561.094,454.116z"/>
			<path fill="#D1A579" d="M545.163,458.321c0,0,75.91,15.492,100.195-34.09c24.285-49.582-36.427-23.273-36.427-23.273
				L545.163,458.321z"/>
			<path d="M638.95,426.593c0,0-33.947,28.11-71.148,23.162c0,0-8.636,35.37,3.598,68.167c0,0-90.478-120.74,3.04-162.362
				c0,0,49.669-18.686,72.605,6.948c0,0,17.397-8.609,34.671,7.566c17.273,16.176,26.132,117.442-11.585,147.848
				c0,0,14.479-51.442,4.36-63.136S640.299,438.365,638.95,426.593z"/>
			<g>
				<path d="M605.995,521.938c0,0,0.239-0.458,0.754-1.205c0.517-0.742,1.316-1.771,2.433-2.873c0.566-0.54,1.188-1.13,1.921-1.664
					c0.721-0.549,1.517-1.099,2.411-1.556c0.881-0.477,1.85-0.893,2.878-1.191c1.029-0.305,2.121-0.466,3.22-0.538
					c1.101,0.008,2.214,0.072,3.263,0.353c1.063,0.222,2.036,0.668,2.947,1.111c0.447,0.237,0.871,0.498,1.282,0.756
					c0.401,0.271,0.766,0.571,1.133,0.844c0.702,0.581,1.347,1.153,1.86,1.75c0.262,0.291,0.513,0.571,0.751,0.837
					c0.223,0.279,0.418,0.556,0.609,0.808c0.387,0.501,0.696,0.955,0.924,1.348c0.471,0.774,0.721,1.222,0.721,1.222
					s-0.387-0.349-1.028-0.969c-0.309-0.321-0.721-0.675-1.181-1.083c-0.449-0.422-0.989-0.854-1.575-1.317
					c-0.284-0.243-0.598-0.471-0.934-0.688c-0.335-0.216-0.646-0.49-1.017-0.691c-0.364-0.209-0.726-0.444-1.113-0.646
					c-0.399-0.176-0.782-0.403-1.195-0.58c-0.827-0.346-1.703-0.63-2.607-0.814c-0.899-0.224-1.842-0.245-2.774-0.239
					c-0.935,0.043-1.873,0.154-2.777,0.4c-0.898,0.255-1.793,0.521-2.617,0.909c-0.829,0.372-1.622,0.774-2.349,1.21
					c-0.73,0.43-1.399,0.885-2.019,1.308C607.482,520.489,605.995,521.938,605.995,521.938z"/>
			</g>
			<path fill="#E0BF9B" d="M886.163,624.48c-39.463,8.349-137.897-103.849-171.158-146.61c-7.104-9.137-11.231-15.107-11.181-16.048
				c0.921-16.24,26.713-11.393,26.713-11.393c13.812,21.188,155.626,97.616,166.676,107.744
				c4.796,4.391,12.354,15.543,15.481,27.583C916.772,601.48,913.281,618.743,886.163,624.48z"/>
			<path fill="#E0BF9B" d="M662.986,355.559c0,0,0.324,17.521,10.453,24.888c10.13,7.367,11.051,73.425,30.389,81.375
				c19.339,7.949,26.705-11.389,26.705-11.389S698.464,360.39,662.986,355.559z"/>
			<path fill="#E0BF9B" d="M547.278,461.822c0,0-0.546,0.465-1.619,1.396c-8.095,7.053-46.293,40.85-108.888,104.961
				c-70.901,72.633-120.625,29.588-120.625,29.588c-5.201-5.597-8.267-11.789-9.643-18.153
				c-5.201-24.072,13.731-50.654,32.663-56.675c23.941-7.609,166.675-82.64,180.487-84.481
				c10.564-1.407,21.127,13.002,25.509,19.863C546.519,460.426,547.278,461.822,547.278,461.822z"/>
			<path fill="#E0BF9B" d="M547.28,461.821c0,0,17.174-10.747,12.544-52.172c-4.631-41.425,14.295-51.805,14.615-54.09
				c0.319-2.285-49.661,3.427-54.785,82.902C519.654,438.461,523.701,463.625,547.28,461.821z"/>
			<path fill="#E0BF9B" d="M565.071,486.293c0,0-20.562-25.297-19.887-5.735c0.674,19.563,12.6,38.732,27.549,39.604
				C572.733,520.162,572.937,494.551,565.071,486.293z"/>
			<path fill="#E0BF9B" d="M672.611,491.016c0,0,20.561-25.297,19.887-5.734c-0.675,19.562-12.601,38.73-27.549,39.603
				C664.949,524.884,664.745,499.272,672.611,491.016z"/>
			<path fill="#D1A579" d="M545.659,463.219c-8.095,7.053-46.293,40.85-108.888,104.961
				c-70.901,72.633-120.625,29.588-120.625,29.588c-5.201-5.597-8.267-11.789-9.643-18.153
				c114.179,6.86,238.659-121.293,238.659-121.293S545.355,460.112,545.659,463.219z"/>
			<path fill="#D1A579" d="M886.163,624.48c-39.463,8.349-137.897-103.849-171.158-146.61c0,0,116.365,106.336,197.689,107.885
				C916.772,601.48,913.281,618.743,886.163,624.48z"/>
			<path fill="#AF3222" d="M760.924,851h-50.553c-0.071-48,3.47-176.46,43.044-193.5C718.517,690.275,760.924,851,760.924,851z"/>
		</g>
		<g clip-path="url(#SVGID_2_)">
			<path fill="#8A9695" d="M372.911,919.66c0,0,12.892,10.13,4.604,24.864c0,0,159.311-51.569,232.98-5.524v-25.785
				C610.495,913.215,552.48,834.021,372.911,919.66z"/>
			<path d="M610.495,939c0,0,127.08-38.678,252.318,30.388c0,0-3.685-14.733,11.972-17.496c0,0-125.239-104.979-264.29-38.677V939z"
				/>
			<path fill="#C2D3D2" d="M619.708,841.385l-9.218,71.832c-29.081-32.572-116.183-21.432-176.429-8.803
				c-35.142,7.376-61.147,15.249-61.147,15.249l41.437-54.338c19.944-20.47,45.494-31.115,71.751-35.911
				C550.769,817.626,619.708,841.385,619.708,841.385z"/>
			<path fill="#8A9695" d="M610.495,913.215l9.208-71.828c0,0,144.577-41.439,245.871,36.836l9.21,73.669
				C874.784,951.892,760.596,867.172,610.495,913.215z"/>
			<path fill="none" stroke="#586664" stroke-miterlimit="10" d="M376.502,923.577c0,0,172.601-55.792,233.992-6.064"/>
			<path fill="none" stroke="#586664" stroke-miterlimit="10" d="M380.183,932.802c0,0,142.521-57.184,230.312-9.225"/>
			<path fill="none" stroke="#586664" stroke-miterlimit="10" d="M380.183,939.613c0,0,155.414-56.596,230.312-6.812"/>
			<path fill="none" stroke="#484F4E" stroke-miterlimit="10" d="M610.495,939c0,0,130.441-51.998,252.156,24.034"/>
			<path fill="none" stroke="#484F4E" stroke-miterlimit="10" d="M610.495,927.949c0,0,148.892-48.549,254.476,29.366"/>
			<path fill="#DAE8E7" d="M521.91,860.347c0,12.143-103.858,12.254-87.85,44.067c-35.142,7.376-61.147,15.249-61.147,15.249
				l41.437-54.338c19.944-20.47,45.494-31.115,71.751-35.911c-10.361,5.212-19.053,11.384-16.807,16.767
				C474.353,858.323,521.91,848.204,521.91,860.347z"/>
		</g>
		<g clip-path="url(#SVGID_2_)">
			<path fill="#8A9695" d="M898.744,859.298l112.961-65.382c0,0-7.981-5.218,0-15.04c0,0-101.058,5.255-120.02,43.371
				C872.723,860.36,898.744,859.298,898.744,859.298z"/>
			<path fill="#ABB7B7" d="M620.029,835.355c0,0,11.05,12.893,5.525,23.942l140.893,42.359c0,0,102.523-51.568,132.297-42.359
				v-8.288C898.744,851.01,809.728,798.521,620.029,835.355z"/>
			<path fill="#ABB7B7" d="M1011.705,778.871c-44.501,1.933-89.004,45.604-105.881,64.041c-4.544,4.958-7.083,8.095-7.083,8.095
				l-116.64-40.363c3.604-33.382,23.011-39.522,33.129-40.413c3.704-0.324,6.162,0.051,6.162,0.051L1011.705,778.871z"/>
			<path fill="#C2D3D2" d="M898.71,850.978c-14.915-10.878-32.876-12.184-50.665-8.713c-40.808,7.943-80.675,40.971-80.675,40.971
				l-147.339-47.882c11.95-10.625,40.171-17.1,65.104-20.915c24.254-3.692,45.402-4.866,45.402-4.866
				C853.812,809.572,897.374,849.723,898.71,850.978z"/>
			<path fill="#DAE8E7" d="M848.045,842.265c-40.808,7.943-80.675,40.971-80.675,40.971l-147.339-47.882
				c11.95-10.625,40.171-17.1,65.104-20.915c-1.812,5.282-1.376,10.544,6.769,11.505c17.201,2.023,67.795-10.119,77.914,1.012
				c10.118,11.131-22.849,15.178-8.895,24.285c13.953,9.106,52.404-22.262,86.809-9.107
				C847.833,842.174,847.944,842.214,848.045,842.265z"/>
			<path fill="none" stroke="#484F4E" stroke-miterlimit="10" d="M624.1,841.604l143.883,45.934c0,0,77.966-60.163,123.703-36.527"
				/>
			<path fill="none" stroke="#484F4E" stroke-miterlimit="10" d="M627.029,851.01l142.181,45.123c0,0,67.529-59.55,129.534-39.905"
				/>
			<path fill="none" stroke="#484F4E" stroke-miterlimit="10" d="M1008.865,783.622c0,0-54.255,9.987-110.121,67.388"/>
			<path fill="none" stroke="#484F4E" stroke-miterlimit="10" d="M1008.865,790.408c0,0-92.931,40.343-110.121,68.89"/>
			<path fill="#919B9B" d="M905.824,842.912c-4.544,4.958-7.083,8.095-7.083,8.095l-116.64-40.363
				c3.604-33.382,23.011-39.522,33.129-40.413c-3.127,9.016-3.217,19.741,9.088,26.368
				C843.32,806.829,884.291,820.348,905.824,842.912z"/>
		</g>
		<g clip-path="url(#SVGID_2_)">
			<path fill="#D8D7D6" d="M887.145,196.571c-0.102,1.518-0.931,2.884-1.821,4.119c-1.417,1.993-3.056,3.835-4.908,5.414
				c-1.234-0.325-2.418-0.8-3.542-1.427c-1.162-0.647-2.387-1.488-3.703-1.265c-0.972,0.151-1.75,0.86-2.519,1.477
				c-4.149,3.339-9.685,4.503-14.926,3.714c-0.333-0.041-0.667-0.091-1.001-0.172c-4.787-0.931-9.238-3.501-12.042-7.519
				c-2.651,4.857-7.073,8.682-12.184,10.757c-1.771,0.728-3.622,1.234-5.523,1.498c-2.358,0.334-4.797,0.304-7.175-0.081
				c-2.136-0.354-4.22-0.992-6.162-1.902c-2.874-1.346-4.918-7.296-7.842-6.73c-1.761,0.345-3.076,1.741-4.554,2.753
				c-3.42,2.378-8.145,2.722-11.87,0.87c-3.732-1.852-6.324-5.818-6.496-9.977c-4.734,0.05-10.007-0.091-13.386-3.4
				c-3.329-3.248-3.674-8.581-2.449-13.063c0.891-3.268,2.54-6.415,5.11-8.61c3.116-2.651,8.055-1.721,9.725-4.381
				c1.649-2.642,1.344-6.709,2.438-10.119c0.253-0.77,0.567-1.508,1.002-2.186c3.339-5.251,7.245-6.547,11.211-5.778
				c6.093,1.174,12.336,7.184,16.878,11.11c0.496,0.425,1.043,0.86,1.69,0.972c0.04,0.01,0.081,0.01,0.111,0.01
				c1.973,0.253,2.995-2.307,4.098-4.027c1.569-2.438,4.696-3.764,7.529-3.177c2.843,0.587,5.19,3.026,5.665,5.889
				c1.62-4.483,4.129-8.904,7.468-12.264c3.461,1.022,6.699,2.955,9.319,5.455c4.909,4.685,7.843,11.121,9.462,17.718
				c5.119-2.975,12.729,0.81,13.448,6.688c3.723-1.296,7.952,0.516,10.624,3.42c2.671,2.894,4.108,6.688,5.484,10.382
				C886.76,193.971,887.235,195.256,887.145,196.571z"/>
			<path fill="#FFFFFF" d="M887.145,196.571c-0.102,1.518-0.931,2.884-1.821,4.119c-1.417,1.993-3.056,3.835-4.908,5.414
				c-1.234-0.325-2.418-0.8-3.542-1.427c-1.162-0.647-2.387-1.488-3.703-1.265c-0.972,0.151-1.75,0.86-2.519,1.477
				c-4.149,3.339-9.685,4.503-14.926,3.714c-0.333-0.111-0.667-0.172-1.001-0.172c-4.787-0.931-9.238-3.501-12.042-7.519
				c-2.651,4.857-7.073,8.682-12.184,10.757c-2.65-1.326-4.978-3.238-6.698-5.697c-1.506,2.742-3.57,5.161-6,7.114
				c-2.136-0.354-4.22-0.992-6.162-1.902c-2.874-1.346-4.918-7.296-7.842-6.73c-1.761,0.345-3.076,1.741-4.554,2.753
				c-3.42,2.378-8.145,2.722-11.87,0.87c-3.732-1.852-6.324-5.818-6.496-9.977c-4.734,0.05-10.007-0.091-13.386-3.4
				c-3.329-3.248-3.674-8.581-2.449-13.063c0.891-3.268,2.54-6.415,5.11-8.61c3.116-2.651,8.055-1.721,9.725-4.381
				c1.649-2.642,1.344-6.709,2.438-10.119c3.765,2.397,7.326,5.717,10.199,8.206c0.497,0.425,1.043,0.86,1.689,0.972
				c2.056,0.364,3.098-2.266,4.221-4.018c1.558-2.438,4.685-3.764,7.528-3.177c2.833,0.587,5.19,3.025,5.665,5.889
				c0.456-1.265,0.982-2.52,1.59-3.744c3.177-6.617,8.379-12.446,15.432-14.015c3.096-0.698,6.293-0.475,9.328,0.435
				c3.461,1.022,6.699,2.955,9.319,5.455c4.909,4.685,7.843,11.121,9.462,17.718c5.119-2.975,12.729,0.81,13.448,6.688
				c3.723-1.296,7.952,0.516,10.624,3.42c2.671,2.894,4.108,6.688,5.484,10.382C886.76,193.971,887.235,195.256,887.145,196.571z"/>
		</g>
		<g clip-path="url(#SVGID_2_)">
			<polygon fill="#EEAD2B" points="823.508,178.522 829.315,150 816.191,150 827.191,121 860.097,121 850.93,136.935 
				863.71,136.979 			"/>
			<polygon fill="#E8930C" points="823.508,178.277 849.422,140.575 835.589,143.066 845.678,121 860.097,121 850.93,136.935 
				863.71,136.857 			"/>
		</g>
		<path clip-path="url(#SVGID_2_)" fill="#FFFFFF" d="M800.785,228.257c-1.353-0.779-3.081-0.313-3.86,1.041l-7.798,13.55
			c-0.778,1.353-0.313,3.082,1.04,3.861c1.353,0.779,3.081,0.313,3.86-1.041l7.799-13.549
			C802.605,230.765,802.14,229.036,800.785,228.257z"/>
		<path clip-path="url(#SVGID_2_)" fill="#FFFFFF" d="M796.807,265.794c-1.354-0.779-3.083-0.313-3.862,1.041l-7.798,13.55
			c-0.779,1.354-0.313,3.083,1.041,3.861c1.353,0.779,3.08,0.313,3.86-1.04l7.798-13.551
			C798.625,268.302,798.159,266.573,796.807,265.794z"/>
		<path clip-path="url(#SVGID_2_)" fill="#FFFFFF" d="M831.568,231.943c-1.353-0.779-3.082-0.313-3.86,1.041l-7.799,13.55
			c-0.778,1.353-0.313,3.082,1.04,3.86c1.354,0.779,3.082,0.313,3.86-1.04l7.8-13.55
			C833.388,234.45,832.922,232.722,831.568,231.943z"/>
		<path clip-path="url(#SVGID_2_)" fill="#FFFFFF" d="M831.734,270.058c-1.354-0.779-3.082-0.313-3.862,1.041l-7.797,13.55
			c-0.78,1.354-0.314,3.082,1.039,3.861c1.354,0.779,3.082,0.313,3.861-1.041l7.798-13.55
			C833.554,272.565,833.087,270.837,831.734,270.058z"/>
		<path clip-path="url(#SVGID_2_)" fill="#FFFFFF" d="M862.384,233.869c-1.354-0.779-3.083-0.314-3.861,1.04l-7.8,13.55
			c-0.778,1.354-0.313,3.082,1.041,3.861c1.353,0.779,3.082,0.313,3.86-1.04l7.8-13.551
			C864.201,236.376,863.735,234.647,862.384,233.869z"/>
	</g>
</g>
</svg>
